<svg width="1728" height="1117" viewBox="0 0 1728 1117" fill="none" xmlns="http://www.w3.org/2000/svg">
    <g clip-path="url(#clip0_206_534)">
        <rect width="1728" height="1117" fill="white"/>
        <path d="M-118.011 111C-155.047 243.556 -130.148 472.554 83.5611 532.266C297.271 591.977 309.837 230.544 507.388 285.74C704.282 340.754 571.397 675.759 807.442 741.712C1043.49 807.664 1091.56 448.962 1302.02 507.765C1512.47 566.567 1392.16 905.085 1569.53 954.643C1746.9 1004.2 1889.43 870.79 1935.53 705.771" stroke="#DFE2F2" stroke-width="100"/>
        <path d="M-213.79 462.317C-176.635 329.338 -36.4581 145.754 177.251 205.466C390.961 265.177 214.058 581.86 411.608 637.057C608.503 692.071 668.819 335.6 904.864 401.553C1140.91 467.505 995.783 800.279 1206.24 859.082C1416.69 917.884 1489.58 564.926 1666.95 614.484C1844.32 664.042 1896.91 852.525 1850.66 1018.07" stroke="#F2F5FA" stroke-width="100"/>
    </g>
    <defs>
        <clipPath id="clip0_206_534">
            <rect width="1728" height="1117" fill="white"/>
        </clipPath>
    </defs>
</svg>
