<svg width="474" height="201" viewBox="0 0 474 201" fill="none" xmlns="http://www.w3.org/2000/svg">
    <rect width="473.5" height="200.382" rx="36" fill="#A7A7E3"/>
    <path d="M115.023 52.6912V148.691H98.1266V59.7312H105.039L49.9986 120.915L49.6146 114.899H132.559V128.467H36.3026V116.307L93.5186 52.6912H115.023Z" fill="black"/>
    <path fill-rule="evenodd" clip-rule="evenodd" d="M198.49 122.281L163.896 122.254L163.884 78.0888L198.478 78.0809L181.188 48.0987L219.418 26.0264L236.738 55.9917L254.042 26.0361L292.284 48.1289L275.01 78.1019L309.604 78.1285L309.616 122.294L275.022 122.301L292.313 152.284L254.082 174.356L236.762 144.391L219.458 174.346L181.216 152.253L198.49 122.281Z" fill="white"/>
    <path d="M419.305 52.6912V148.691H402.409V59.7312H409.321L354.281 120.915L353.897 114.899H436.841V128.467H340.585V116.307L397.801 52.6912H419.305Z" fill="black"/>
</svg>
