<svg width="474" height="200" viewBox="0 0 474 200" fill="none" xmlns="http://www.w3.org/2000/svg">
    <rect x="0.5" y="0.691162" width="473.5" height="199" rx="36" fill="#1E1F26"/>
    <path d="M95.634 150.483C87.186 150.483 79.6767 148.904 73.106 145.747C66.5353 142.504 61.3727 138.024 57.618 132.307C53.8633 126.59 51.986 119.934 51.986 112.339C51.986 104.83 53.7353 98.2592 57.234 92.6272C60.818 86.9098 65.7247 82.4725 71.954 79.3152C78.2687 76.0725 85.4793 74.4512 93.586 74.4512C101.693 74.4512 108.69 76.2858 114.578 79.9552C120.551 83.5392 125.159 88.6165 128.402 95.1872C131.645 101.758 133.266 109.48 133.266 118.355H65.042V105.683H124.946L116.626 110.419C116.37 105.64 115.218 101.544 113.17 98.1312C111.207 94.7178 108.519 92.1152 105.106 90.3232C101.778 88.4458 97.81 87.5072 93.202 87.5072C88.338 87.5072 84.0713 88.4885 80.402 90.4512C76.818 92.4138 74.002 95.1872 71.954 98.7712C69.906 102.27 68.882 106.451 68.882 111.315C68.882 116.691 70.0767 121.342 72.466 125.267C74.9407 129.192 78.3967 132.222 82.834 134.355C87.3567 136.403 92.69 137.427 98.834 137.427C104.381 137.427 110.055 136.574 115.858 134.867C121.661 133.075 126.781 130.6 131.218 127.443V139.475C126.781 142.888 121.362 145.576 114.962 147.539C108.647 149.502 102.205 150.483 95.634 150.483ZM143.501 76.2432H160.141L164.493 102.611V148.691H147.853V99.4112L143.501 76.2432ZM201.229 75.7312V90.3232C199.352 89.8112 197.304 89.4272 195.085 89.1712C192.866 88.9152 190.776 88.7872 188.813 88.7872C184.12 88.7872 179.938 89.8112 176.269 91.8592C172.6 93.9072 169.698 96.9792 167.565 101.075C165.517 105.086 164.493 110.035 164.493 115.923L160.653 111.187C160.994 106.067 161.848 101.288 163.213 96.8512C164.664 92.3285 166.626 88.4032 169.101 85.0752C171.661 81.7472 174.776 79.1445 178.445 77.2672C182.114 75.3898 186.381 74.4512 191.245 74.4512C192.952 74.4512 194.701 74.5792 196.493 74.8352C198.285 75.0058 199.864 75.3045 201.229 75.7312ZM208.251 76.2432H224.891L229.243 102.611V148.691H212.603V99.4112L208.251 76.2432ZM265.979 75.7312V90.3232C264.102 89.8112 262.054 89.4272 259.835 89.1712C257.616 88.9152 255.526 88.7872 253.563 88.7872C248.87 88.7872 244.688 89.8112 241.019 91.8592C237.35 93.9072 234.448 96.9792 232.315 101.075C230.267 105.086 229.243 110.035 229.243 115.923L225.403 111.187C225.744 106.067 226.598 101.288 227.963 96.8512C229.414 92.3285 231.376 88.4032 233.851 85.0752C236.411 81.7472 239.526 79.1445 243.195 77.2672C246.864 75.3898 251.131 74.4512 255.995 74.4512C257.702 74.4512 259.451 74.5792 261.243 74.8352C263.035 75.0058 264.614 75.3045 265.979 75.7312ZM313.646 150.483C304.857 150.483 297.134 148.904 290.478 145.747C283.907 142.504 278.745 138.024 274.99 132.307C271.321 126.59 269.486 119.976 269.486 112.467C269.486 104.872 271.321 98.2592 274.99 92.6272C278.745 86.9098 283.907 82.4725 290.478 79.3152C297.134 76.0725 304.857 74.4512 313.646 74.4512C322.435 74.4512 330.115 76.0725 336.686 79.3152C343.342 82.4725 348.505 86.9098 352.174 92.6272C355.929 98.2592 357.806 104.872 357.806 112.467C357.806 119.976 355.929 126.59 352.174 132.307C348.505 138.024 343.342 142.504 336.686 145.747C330.115 148.904 322.435 150.483 313.646 150.483ZM313.646 137.427C319.278 137.427 324.099 136.403 328.11 134.355C332.206 132.307 335.363 129.448 337.582 125.779C339.801 122.024 340.91 117.587 340.91 112.467C340.91 107.347 339.801 102.952 337.582 99.2832C335.363 95.5285 332.206 92.6272 328.11 90.5792C324.099 88.5312 319.278 87.5072 313.646 87.5072C308.099 87.5072 303.278 88.5312 299.182 90.5792C295.086 92.6272 291.929 95.5285 289.71 99.2832C287.491 102.952 286.382 107.347 286.382 112.467C286.382 117.587 287.491 122.024 289.71 125.779C291.929 129.448 295.086 132.307 299.182 134.355C303.278 136.403 308.099 137.427 313.646 137.427ZM367.876 76.2432H384.516L388.868 102.611V148.691H372.228V99.4112L367.876 76.2432ZM425.604 75.7312V90.3232C423.727 89.8112 421.679 89.4272 419.46 89.1712C417.241 88.9152 415.151 88.7872 413.188 88.7872C408.495 88.7872 404.313 89.8112 400.644 91.8592C396.975 93.9072 394.073 96.9792 391.94 101.075C389.892 105.086 388.868 110.035 388.868 115.923L385.028 111.187C385.369 106.067 386.223 101.288 387.588 96.8512C389.039 92.3285 391.001 88.4032 393.476 85.0752C396.036 81.7472 399.151 79.1445 402.82 77.2672C406.489 75.3898 410.756 74.4512 415.62 74.4512C417.327 74.4512 419.076 74.5792 420.868 74.8352C422.66 75.0058 424.239 75.3045 425.604 75.7312Z" fill="white"/>
</svg>
