<svg width="319" height="452" viewBox="0 0 319 452" fill="none" xmlns="http://www.w3.org/2000/svg">
    <g clip-path="url(#clip0_206_348)">
        <rect width="319" height="452" rx="36" fill="#88A7D4"/>
        <path d="M222.233 4.34154C226.847 4.34154 230.588 0.606797 230.588 -4L290 -4C290 33.3668 259.66 63.6586 222.233 63.6586L98.7671 63.6586C94.1531 63.6586 90.4122 67.3931 90.4122 71.9999C90.4122 76.6069 94.1531 80.3415 98.7671 80.3415L222.233 80.3415C259.66 80.3415 290 110.633 290 148.001C290 185.367 259.66 215.658 222.233 215.658L98.7671 215.658C94.1531 215.658 90.4122 219.394 90.4122 224C90.4122 228.606 94.1531 232.342 98.7671 232.342L222.233 232.342C259.66 232.342 290 262.633 290 299.999C290 337.367 259.66 367.659 222.233 367.659L98.7671 367.659C94.1531 367.659 90.4122 371.393 90.4122 376.001C90.4122 380.607 94.1531 384.342 98.7671 384.342L222.233 384.342C259.66 384.342 290 414.634 290 452L230.588 452C230.588 447.394 226.847 443.658 222.233 443.658L98.7671 443.658C61.3408 443.658 31 413.367 31 376.001C31 338.633 61.3408 308.341 98.7671 308.341L222.233 308.341C226.847 308.341 230.588 304.607 230.588 299.999C230.588 295.393 226.847 291.658 222.233 291.658L98.7671 291.658C61.3408 291.658 31 261.366 31 224C31 186.634 61.3408 156.342 98.7671 156.342L222.233 156.342C226.847 156.342 230.588 152.607 230.588 148.001C230.588 143.393 226.847 139.659 222.233 139.659L98.7671 139.659C61.3408 139.659 31 109.367 31 71.9999C31 34.6331 61.3408 4.34153 98.7671 4.34153L222.233 4.34154Z" fill="#7D9BC7"/>
    </g>
    <defs>
        <clipPath id="clip0_206_348">
            <rect width="319" height="452" rx="36" fill="white"/>
        </clipPath>
    </defs>
</svg>
