<svg width="851" height="889" viewBox="0 0 851 889" fill="none" xmlns="http://www.w3.org/2000/svg">
    <g clip-path="url(#clip0_253_56)">
        <rect width="851" height="889" rx="36" fill="#1E1F26"/>
        <path fill-rule="evenodd" clip-rule="evenodd" d="M-7.07863 92.5L-80 50.3247L-26.2528 -42.8246L46.711 -0.722206L46.7522 -85H154.248L154.289 -0.722206L227.252 -42.8246L281 50.3247L208.078 92.5L281 134.675L227.252 227.825L154.289 185.722L154.248 270H46.7522L46.711 185.722L-26.2528 227.825L-80 134.675L-7.07863 92.5Z" fill="#131419"/>
        <path d="M401 1126.07C460.427 1160.38 574.102 1176.73 629.418 1080.92C684.733 985.115 511.742 934.264 562.875 845.699C613.838 757.428 759.159 863.111 820.255 757.288C881.352 651.466 714.08 583.805 768.553 489.455C823.026 395.105 971.601 495.15 1017.51 415.634C1063.42 336.117 1016.65 250.754 942.669 208.041" stroke="#131419" stroke-width="100"/>
        <circle cx="837.5" cy="3.5" r="303.5" fill="#131419"/>
        <circle cx="810" cy="67" r="171" fill="#090A0D"/>
        <circle cx="13.5" cy="885.5" r="303.5" transform="rotate(180 13.5 885.5)" fill="#131419"/>
        <circle cx="41" cy="822" r="171" transform="rotate(180 41 822)" fill="#090A0D"/>
    </g>
    <defs>
        <clipPath id="clip0_253_56">
            <rect width="851" height="889" rx="36" fill="white"/>
        </clipPath>
    </defs>
</svg>
