
<svg width="367" height="376" viewBox="0 0 367 376" fill="none" xmlns="http://www.w3.org/2000/svg">
<rect x="202.609" y="38.7725" width="190" height="43" rx="21.5" transform="rotate(31.4127 202.609 38.7725)" stroke="black"/>
<path d="M222.14 67.6902C223.562 68.5588 224.651 69.5907 225.405 70.7857C226.16 71.9807 226.543 73.2459 226.555 74.5815C226.575 75.9056 226.195 77.205 225.417 78.4794C224.646 79.7425 223.663 80.6735 222.469 81.2724C221.282 81.8599 219.982 82.0967 218.567 81.9827C217.159 81.8574 215.744 81.3603 214.322 80.4917L208.843 77.1456L216.661 64.3441L222.14 67.6902ZM210.708 77.6987L210.289 76.0833L215.256 79.1167C216.348 79.7838 217.432 80.157 218.509 80.2364C219.585 80.3157 220.58 80.1188 221.494 79.6458C222.419 79.1797 223.181 78.4573 223.778 77.4787C224.39 76.4773 224.688 75.4644 224.673 74.4398C224.677 73.4108 224.398 72.4356 223.835 71.5143C223.273 70.5929 222.446 69.7986 221.354 69.1315L216.387 66.0981L218.005 65.7506L210.708 77.6987ZM232.737 91.7377L234.616 87.8936L235.762 86.9764L236.044 85.5552L238.605 82.128L240.21 83.1079L236.837 87.6332L234.341 92.7176L232.737 91.7377ZM236.291 87.2996C235.429 88.1481 234.503 88.7937 233.514 89.2364C232.544 89.6747 231.56 89.8785 230.563 89.8478C229.578 89.8241 228.641 89.5412 227.754 88.9992C226.809 88.4224 226.101 87.7011 225.63 86.8353C225.166 85.9581 224.953 85.0155 224.991 84.0073C225.046 82.9948 225.377 81.9935 225.981 81.0035C226.593 80.0021 227.333 79.251 228.201 78.7502C229.081 78.2563 230.013 78.0212 230.999 78.0449C231.984 78.0687 232.949 78.3689 233.893 78.9457C234.781 79.4878 235.46 80.1917 235.932 81.0575C236.414 81.9302 236.688 82.9019 236.753 83.9726C236.817 85.0433 236.663 86.1523 236.291 87.2996ZM227.586 81.9834C227.141 82.7116 226.896 83.4449 226.852 84.1831C226.818 84.9283 226.966 85.6201 227.295 86.2584C227.642 86.8922 228.151 87.4142 228.823 87.8242C229.506 88.2411 230.225 88.4697 230.982 88.51C231.757 88.5458 232.536 88.4204 233.321 88.1338C234.116 87.8542 234.879 87.4372 235.608 86.8826C235.768 85.9806 235.791 85.1119 235.677 84.2763C235.573 83.4477 235.325 82.7026 234.933 82.0409C234.558 81.3748 234.03 80.8333 233.347 80.4164C232.676 80.0064 231.975 79.7973 231.246 79.7893C230.535 79.7769 229.855 79.9557 229.207 80.3256C228.571 80.7025 228.031 81.2551 227.586 81.9834ZM240.575 85.0652L241.034 84.3142L243.39 85.2142L245.617 82.9884L246.555 83.5617L245.034 86.0537L249.71 88.9099L248.939 90.173L244.262 87.3168L241.281 92.1984C240.753 93.0633 240.569 93.7867 240.729 94.3688C240.907 94.9464 241.395 95.4785 242.191 95.9649C242.715 96.2846 243.208 96.5 243.671 96.6111C244.146 96.7292 244.644 96.7834 245.166 96.7737L244.321 98.1563C243.944 98.1602 243.443 98.0728 242.818 97.8941C242.204 97.7224 241.612 97.4628 241.043 97.1153C240.179 96.5872 239.569 96.0118 239.215 95.3894C238.879 94.7625 238.748 94.12 238.822 93.462C238.914 92.7996 239.162 92.1384 239.565 91.4784L242.692 86.3578L240.575 85.0652ZM254.523 105.043L256.402 101.198L257.548 100.281L257.83 98.86L260.391 95.4329L261.996 96.4127L258.623 100.938L256.127 106.022L254.523 105.043ZM258.077 100.604C257.215 101.453 256.289 102.099 255.3 102.541C254.33 102.98 253.346 103.183 252.349 103.153C251.364 103.129 250.427 102.846 249.54 102.304C248.595 101.727 247.887 101.006 247.416 100.14C246.952 99.263 246.739 98.3203 246.776 97.3122C246.832 96.2996 247.163 95.2983 247.767 94.3083C248.379 93.307 249.119 92.5559 249.987 92.055C250.867 91.5611 251.799 91.326 252.785 91.3498C253.77 91.3735 254.735 91.6738 255.679 92.2506C256.567 92.7926 257.246 93.4965 257.717 94.3623C258.2 95.235 258.474 96.2067 258.538 97.2774C258.603 98.3481 258.449 99.4571 258.077 100.604ZM249.372 95.2882C248.927 96.0165 248.682 96.7497 248.638 97.488C248.604 98.2332 248.752 98.9249 249.081 99.5632C249.428 100.197 249.937 100.719 250.609 101.129C251.292 101.546 252.011 101.775 252.768 101.815C253.543 101.851 254.322 101.725 255.107 101.439C255.902 101.159 256.665 100.742 257.394 100.187C257.554 99.2855 257.577 98.4167 257.462 97.5811C257.359 96.7525 257.111 96.0074 256.718 95.3458C256.344 94.6797 255.816 94.1382 255.133 93.7212C254.461 93.3112 253.761 93.1022 253.032 93.0942C252.321 93.0817 251.641 93.2605 250.993 93.6305C250.357 94.0073 249.816 94.5599 249.372 95.2882ZM262.282 100.572L266.02 102.854L265.186 104.22L261.448 101.937L262.282 100.572ZM266.719 108.132L267.553 106.767L276.566 112.271L275.732 113.636L266.719 108.132ZM278.112 101.872L276.592 118.52L274.851 117.457L276.413 101.585L277.266 102.106L263.842 110.734L262.101 109.67L276.217 100.715L278.112 101.872ZM283.436 109.507L285.007 110.466L283.562 114.059L279.684 120.409L278.114 119.45L282.127 112.878L283.436 109.507ZM289.665 113.006C290.564 113.555 291.216 114.203 291.619 114.949C292.03 115.684 292.191 116.494 292.104 117.378C292.024 118.251 291.692 119.165 291.109 120.121L287.877 125.412L286.307 124.453L289.372 119.435C290.073 118.286 290.334 117.258 290.154 116.351C289.992 115.439 289.404 114.674 288.392 114.056C287.686 113.625 286.969 113.406 286.239 113.398C285.521 113.397 284.84 113.59 284.197 113.979C283.572 114.362 283.03 114.93 282.572 115.681L282.211 114.851C282.875 113.944 283.623 113.269 284.457 112.825C285.29 112.381 286.152 112.172 287.041 112.2C287.949 112.223 288.823 112.492 289.665 113.006ZM299.411 132.456L301.29 128.612L302.436 127.695L302.718 126.274L305.28 122.847L306.885 123.827L303.512 128.352L301.016 133.436L299.411 132.456ZM302.965 128.018C302.104 128.867 301.178 129.512 300.189 129.955C299.218 130.393 298.235 130.597 297.238 130.567C296.252 130.543 295.316 130.26 294.428 129.718C293.484 129.141 292.776 128.42 292.305 127.554C291.841 126.677 291.627 125.734 291.665 124.726C291.721 123.713 292.051 122.712 292.656 121.722C293.267 120.721 294.007 119.97 294.876 119.469C295.755 118.975 296.688 118.74 297.673 118.764C298.659 118.787 299.624 119.088 300.568 119.664C301.456 120.206 302.135 120.91 302.606 121.776C303.089 122.649 303.362 123.621 303.427 124.691C303.492 125.762 303.338 126.871 302.965 128.018ZM294.26 122.702C293.816 123.43 293.571 124.164 293.526 124.902C293.493 125.647 293.641 126.339 293.97 126.977C294.317 127.611 294.826 128.133 295.497 128.543C296.18 128.96 296.9 129.188 297.656 129.229C298.431 129.264 299.211 129.139 299.995 128.853C300.791 128.573 301.553 128.156 302.283 127.601C302.443 126.699 302.466 125.831 302.351 124.995C302.248 124.166 302 123.421 301.607 122.76C301.233 122.094 300.704 121.552 300.021 121.135C299.35 120.725 298.65 120.516 297.92 120.508C297.209 120.496 296.53 120.674 295.882 121.044C295.246 121.421 294.705 121.974 294.26 122.702ZM311.391 121.728L312.961 122.687L304.935 135.83L303.365 134.871L311.391 121.728ZM307.538 141.591C307.049 141.292 306.649 140.962 306.338 140.6C306.028 140.239 305.758 139.824 305.528 139.356L306.289 138.11C306.519 138.578 306.775 138.977 307.058 139.306C307.342 139.635 307.711 139.939 308.166 140.217C308.655 140.516 309.146 140.659 309.638 140.647C310.122 140.646 310.637 140.468 311.182 140.113L322.055 133.092L323.728 134.113L312.039 141.434C311.502 141.777 310.974 142.002 310.456 142.108C309.943 142.232 309.442 142.246 308.954 142.151C308.476 142.062 308.004 141.876 307.538 141.591ZM311.185 139.225L312.309 127.139L314.033 128.192L312.773 140.195L311.185 139.225ZM329.957 147.244C329.582 147.859 329.067 148.279 328.414 148.505C327.772 148.737 327.016 148.76 326.146 148.573C325.288 148.392 324.352 147.993 323.339 147.374C322.304 146.742 321.475 146.04 320.852 145.269C320.247 144.494 319.883 143.709 319.759 142.914C319.635 142.12 319.768 141.365 320.158 140.65L321.762 141.63C321.559 142.116 321.519 142.63 321.64 143.173C321.769 143.704 322.045 144.224 322.468 144.733C322.892 145.242 323.445 145.704 324.128 146.121C325.118 146.726 325.982 147.051 326.72 147.095C327.477 147.136 328.015 146.894 328.335 146.37C328.585 145.961 328.587 145.548 328.341 145.132C328.102 144.705 327.519 144.138 326.591 143.431L324.845 142.107C323.979 141.453 323.34 140.836 322.929 140.257C322.535 139.673 322.33 139.126 322.314 138.616C322.304 138.094 322.438 137.606 322.716 137.151C323.099 136.525 323.606 136.116 324.239 135.925C324.89 135.729 325.622 135.731 326.437 135.932C327.259 136.121 328.119 136.49 329.018 137.039C329.974 137.623 330.738 138.277 331.311 139.002C331.896 139.734 332.26 140.48 332.405 141.24C332.55 142 332.451 142.713 332.107 143.378L330.52 142.409C330.685 142.01 330.716 141.576 330.612 141.106C330.515 140.625 330.267 140.137 329.866 139.642C329.476 139.155 328.912 138.685 328.172 138.233C327.262 137.677 326.471 137.374 325.799 137.323C325.138 137.279 324.655 137.507 324.349 138.008C324.127 138.372 324.115 138.763 324.313 139.18C324.511 139.598 325.003 140.11 325.789 140.715L327.77 142.229C328.682 142.911 329.347 143.536 329.766 144.104C330.184 144.672 330.396 145.208 330.401 145.711C330.418 146.221 330.27 146.732 329.957 147.244Z" fill="black"/>
</svg>