
<svg width="367" height="376" viewBox="0 0 367 376" fill="none" xmlns="http://www.w3.org/2000/svg">

<rect x="212.785" y="246.865" width="175" height="48" rx="24" transform="rotate(29.361 212.785 246.865)" stroke="black"/>
<path d="M217.344 273.41C217.989 272.524 218.816 271.87 219.825 271.446C220.848 271.031 222.005 270.901 223.294 271.057C224.583 271.213 225.945 271.695 227.382 272.503C228.692 273.24 229.724 274.05 230.476 274.932C231.228 275.814 231.686 276.714 231.849 277.632C232.026 278.558 231.875 279.446 231.396 280.296C230.988 281.022 230.403 281.555 229.642 281.898C228.888 282.226 227.998 282.323 226.973 282.187C225.948 282.051 224.829 281.641 223.616 280.959L223.828 280.582C225.092 281.239 226.085 281.971 226.805 282.78C227.532 283.575 227.968 284.399 228.113 285.251C228.279 286.097 228.131 286.932 227.668 287.755C227.143 288.689 226.404 289.366 225.452 289.785C224.508 290.19 223.4 290.301 222.126 290.117C220.867 289.941 219.484 289.429 217.978 288.582C216.514 287.758 215.36 286.824 214.515 285.78C213.671 284.736 213.161 283.651 212.987 282.524C212.813 281.398 212.974 280.296 213.471 279.217L215.458 280.335C214.97 281.529 215.01 282.698 215.577 283.844C216.166 284.983 217.276 286.011 218.908 286.929C220.525 287.839 221.916 288.255 223.081 288.175C224.267 288.09 225.147 287.538 225.719 286.52C226.049 285.935 226.181 285.357 226.115 284.788C226.05 284.219 225.749 283.646 225.211 283.068C224.681 282.476 223.886 281.882 222.826 281.286L219.898 279.638L220.757 278.111L223.685 279.759C225.08 280.543 226.246 280.869 227.184 280.735C228.143 280.596 228.835 280.15 229.259 279.397C229.769 278.49 229.766 277.58 229.252 276.667C228.738 275.754 227.77 274.897 226.347 274.097C224.883 273.273 223.533 272.899 222.297 272.975C221.083 273.044 220.094 273.562 219.331 274.528L217.344 273.41ZM243.756 282.073C245.499 283.053 246.849 284.244 247.805 285.645C248.761 287.045 249.275 288.546 249.347 290.147C249.427 291.735 249.028 293.309 248.149 294.871C247.279 296.419 246.14 297.577 244.734 298.347C243.336 299.102 241.787 299.442 240.085 299.366C238.392 299.276 236.674 298.741 234.93 297.761L228.216 293.983L237.042 278.295L243.756 282.073ZM230.476 294.566L229.904 292.647L235.991 296.072C237.329 296.825 238.646 297.226 239.94 297.275C241.235 297.323 242.419 297.045 243.495 296.438C244.585 295.839 245.467 294.94 246.141 293.741C246.832 292.514 247.146 291.286 247.084 290.058C247.044 288.824 246.667 287.667 245.953 286.586C245.24 285.505 244.213 284.588 242.875 283.835L236.788 280.411L238.714 279.924L230.476 294.566ZM250.575 295.74L255.156 298.317L254.215 299.99L249.634 297.413L250.575 295.74ZM269.187 296.38C270.931 297.361 272.28 298.551 273.236 299.952C274.192 301.353 274.706 302.853 274.779 304.454C274.859 306.042 274.459 307.616 273.581 309.178C272.71 310.726 271.572 311.884 270.166 312.654C268.768 313.41 267.218 313.749 265.517 313.673C263.823 313.584 262.105 313.048 260.362 312.068L253.647 308.29L262.473 292.603L269.187 296.38ZM255.908 308.874L255.335 306.954L261.422 310.379C262.761 311.132 264.077 311.533 265.372 311.582C266.666 311.631 267.851 311.352 268.927 310.745C270.016 310.146 270.898 309.247 271.573 308.048C272.263 306.821 272.577 305.593 272.516 304.365C272.476 303.131 272.099 301.974 271.385 300.893C270.671 299.812 269.645 298.895 268.306 298.142L262.219 294.718L264.145 294.232L255.908 308.874ZM277.797 322.234C276.445 321.473 275.391 320.541 274.635 319.437C273.901 318.326 273.493 317.142 273.411 315.884C273.351 314.621 273.663 313.382 274.345 312.169C275.035 310.942 275.918 310.025 276.994 309.418C278.07 308.812 279.248 308.529 280.528 308.57C281.808 308.611 283.09 308.992 284.373 309.714C285.642 310.428 286.593 311.331 287.228 312.422C287.862 313.513 288.151 314.713 288.094 316.021C288.06 317.323 287.665 318.644 286.912 319.982L275.492 313.557L276.351 312.03L286.956 317.996L285.438 318.051C285.89 317.149 286.109 316.272 286.093 315.418C286.077 314.565 285.847 313.784 285.401 313.074C284.956 312.365 284.308 311.771 283.457 311.292C282.537 310.774 281.629 310.512 280.734 310.504C279.847 310.482 279.02 310.696 278.253 311.145C277.5 311.603 276.868 312.285 276.358 313.191C275.825 314.14 275.578 315.084 275.618 316.024C275.658 316.965 275.963 317.843 276.532 318.659C277.101 319.475 277.916 320.181 278.975 320.777C279.938 321.318 280.969 321.687 282.07 321.884C283.185 322.089 284.268 322.121 285.321 321.979L284.474 323.485C283.419 323.662 282.292 323.643 281.092 323.427C279.899 323.197 278.801 322.799 277.797 322.234ZM299.727 329.67C299.304 330.423 298.705 330.949 297.931 331.248C297.171 331.555 296.265 331.614 295.214 331.427C294.177 331.247 293.038 330.808 291.797 330.11C290.528 329.396 289.503 328.591 288.723 327.693C287.965 326.789 287.495 325.863 287.312 324.916C287.129 323.968 287.256 323.058 287.692 322.183L289.658 323.29C289.436 323.881 289.41 324.499 289.579 325.145C289.755 325.777 290.109 326.389 290.639 326.98C291.169 327.572 291.852 328.103 292.689 328.574C293.902 329.257 294.952 329.609 295.839 329.631C296.748 329.646 297.383 329.334 297.744 328.692C298.027 328.19 298.011 327.695 297.699 327.207C297.393 326.705 296.67 326.05 295.527 325.242L293.377 323.729C292.31 322.982 291.517 322.27 290.999 321.593C290.502 320.909 290.233 320.262 290.191 319.651C290.157 319.026 290.297 318.435 290.611 317.877C291.042 317.11 291.633 316.598 292.383 316.341C293.156 316.078 294.035 316.049 295.02 316.255C296.014 316.447 297.062 316.853 298.163 317.472C299.335 318.131 300.279 318.883 300.997 319.728C301.73 320.58 302.199 321.459 302.405 322.365C302.612 323.27 302.523 324.129 302.14 324.942L300.194 323.847C300.376 323.362 300.394 322.84 300.249 322.281C300.113 321.708 299.793 321.134 299.291 320.558C298.803 319.989 298.106 319.45 297.2 318.94C296.084 318.313 295.122 317.983 294.314 317.951C293.52 317.926 292.951 318.221 292.606 318.834C292.354 319.281 292.357 319.75 292.612 320.242C292.867 320.735 293.48 321.327 294.449 322.019L296.889 323.75C298.012 324.529 298.836 325.249 299.363 325.913C299.889 326.576 300.166 327.209 300.194 327.812C300.236 328.423 300.08 329.043 299.727 329.67ZM306.841 322.657L307.709 323.366L308.766 323.74L302.117 335.558L300.193 334.475L306.841 322.657ZM308.759 321.451C308.369 321.231 308.101 320.924 307.955 320.53C307.831 320.13 307.872 319.749 308.076 319.386C308.287 319.01 308.592 318.778 308.991 318.69C309.411 318.595 309.816 318.658 310.207 318.878C310.625 319.113 310.896 319.431 311.02 319.831C311.151 320.217 311.111 320.598 310.899 320.975C310.695 321.337 310.39 321.57 309.984 321.672C309.586 321.76 309.177 321.686 308.759 321.451ZM317.811 340.614L318.999 338.502L319.259 338.235L320.354 336.29L320.505 335.824L322.824 331.704L324.748 332.786L319.888 341.425C319.025 342.959 317.994 344.058 316.793 344.723C315.607 345.396 314.343 345.685 313.001 345.591C311.658 345.497 310.311 345.069 308.958 344.309C307.94 343.736 307.075 343.056 306.361 342.269C305.653 341.504 305.067 340.605 304.601 339.572L305.554 337.877C306.007 339.031 306.598 339.988 307.327 340.747C308.07 341.514 308.881 342.145 309.76 342.639C311.461 343.596 313.009 343.879 314.404 343.489C315.804 343.121 316.94 342.162 317.811 340.614ZM310.64 339.362C309.58 338.765 308.751 337.987 308.153 337.026C307.57 336.074 307.262 335.038 307.231 333.919C307.207 332.786 307.513 331.654 308.149 330.525C308.792 329.381 309.6 328.533 310.573 327.978C311.553 327.41 312.598 327.135 313.708 327.154C314.839 327.166 315.935 327.47 316.994 328.066C317.789 328.513 318.458 329.055 319 329.69C319.55 330.312 319.99 330.981 320.32 331.7C320.65 332.418 320.87 333.138 320.978 333.859C321.086 334.581 321.099 335.259 321.018 335.892C320.959 336.52 320.803 337.057 320.552 337.503C320.231 338.075 319.718 338.594 319.015 339.061C318.333 339.522 317.521 339.873 316.578 340.114C315.657 340.348 314.679 340.422 313.644 340.336C312.631 340.243 311.63 339.919 310.64 339.362ZM312.034 338.108C313.121 338.72 314.306 338.964 315.587 338.84C316.868 338.716 318.3 338.145 319.883 337.126C319.962 335.225 319.71 333.697 319.129 332.544C318.57 331.385 317.746 330.499 316.658 329.887C315.752 329.377 314.876 329.123 314.03 329.125C313.207 329.121 312.455 329.331 311.775 329.756C311.109 330.19 310.549 330.811 310.094 331.619C309.655 332.4 309.419 333.195 309.386 334.003C309.376 334.804 309.582 335.563 310.006 336.279C310.451 336.988 311.127 337.598 312.034 338.108ZM327.252 334.195L329.177 335.278L327.598 339.649L323.221 347.431L321.296 346.348L325.827 338.295L327.252 334.195ZM334.873 338.124C335.974 338.744 336.783 339.493 337.299 340.37C337.823 341.234 338.051 342.198 337.985 343.262C337.927 344.313 337.568 345.423 336.909 346.595L333.261 353.079L331.337 351.996L334.796 345.847C335.589 344.438 335.857 343.194 335.602 342.114C335.368 341.028 334.631 340.136 333.39 339.438C332.525 338.952 331.656 338.719 330.781 338.741C329.919 338.771 329.111 339.032 328.357 339.525C327.624 340.012 326.998 340.716 326.48 341.637L326.012 340.657C326.769 339.541 327.638 338.699 328.618 338.13C329.599 337.562 330.623 337.275 331.691 337.27C332.78 337.259 333.841 337.544 334.873 338.124Z" fill="black"/>
</svg>
