<svg width="367" height="376" viewBox="0 0 367 376" fill="none" xmlns="http://www.w3.org/2000/svg">
    <rect x="10.5" y="303.5" width="223" height="62" rx="31" stroke="black"/>
    <path d="M30.896 333.204H50.192V336.192H30.896V333.204ZM50.732 321V323.988H30.536L32.66 321.828V348H29.276V321H50.732ZM53.3226 327.732H56.6346L57.7866 334.644V348H54.4746V334.032L53.3226 327.732ZM68.5506 327.66V330.648C68.0946 330.504 67.5546 330.396 66.9306 330.324C66.3306 330.252 65.7546 330.216 65.2026 330.216C63.7626 330.216 62.4786 330.54 61.3506 331.188C60.2226 331.836 59.3466 332.784 58.7226 334.032C58.0986 335.256 57.7866 336.708 57.7866 338.388L56.8506 337.092C56.8986 335.676 57.1266 334.368 57.5346 333.168C57.9426 331.968 58.5186 330.936 59.2626 330.072C60.0306 329.184 60.9426 328.5 61.9986 328.02C63.0786 327.516 64.2906 327.264 65.6346 327.264C66.1386 327.264 66.6546 327.3 67.1826 327.372C67.7346 327.444 68.1906 327.54 68.5506 327.66ZM81.3711 348.468C78.9951 348.468 76.8951 348.024 75.0711 347.136C73.2711 346.248 71.8671 345 70.8591 343.392C69.8511 341.784 69.3471 339.936 69.3471 337.848C69.3471 335.736 69.8511 333.888 70.8591 332.304C71.8671 330.72 73.2711 329.484 75.0711 328.596C76.8951 327.708 78.9951 327.264 81.3711 327.264C83.7711 327.264 85.8711 327.708 87.6711 328.596C89.4711 329.484 90.8751 330.72 91.8831 332.304C92.9151 333.888 93.4311 335.736 93.4311 337.848C93.4311 339.936 92.9151 341.784 91.8831 343.392C90.8751 345 89.4711 346.248 87.6711 347.136C85.8711 348.024 83.7711 348.468 81.3711 348.468ZM81.3711 345.696C83.1471 345.696 84.6831 345.384 85.9791 344.76C87.2751 344.112 88.2711 343.2 88.9671 342.024C89.6871 340.848 90.0471 339.456 90.0471 337.848C90.0471 336.264 89.6871 334.884 88.9671 333.708C88.2711 332.532 87.2751 331.62 85.9791 330.972C84.6831 330.324 83.1471 330 81.3711 330C79.6191 330 78.0831 330.324 76.7631 330.972C75.4671 331.62 74.4711 332.532 73.7751 333.708C73.0791 334.884 72.7311 336.264 72.7311 337.848C72.7311 339.456 73.0791 340.848 73.7751 342.024C74.4711 343.2 75.4671 344.112 76.7631 344.76C78.0831 345.384 79.6191 345.696 81.3711 345.696ZM96.6351 327.732H99.9471L101.099 334.608V348H97.7871V334.14L96.6351 327.732ZM109.487 327.264C111.383 327.264 112.991 327.648 114.311 328.416C115.631 329.16 116.639 330.252 117.335 331.692C118.031 333.108 118.379 334.824 118.379 336.84V348H115.067V337.416C115.067 334.992 114.503 333.168 113.375 331.944C112.271 330.696 110.651 330.072 108.515 330.072C107.027 330.072 105.719 330.408 104.591 331.08C103.487 331.752 102.623 332.688 101.999 333.888C101.399 335.064 101.099 336.444 101.099 338.028L99.7671 337.092C99.9351 335.076 100.451 333.336 101.315 331.872C102.179 330.408 103.307 329.28 104.699 328.488C106.115 327.672 107.711 327.264 109.487 327.264ZM120.539 330.396V328.812L125.003 327.984L126.335 322.476H128.315V327.732H138.179V330.396H128.315V340.692C128.315 342.516 128.711 343.8 129.503 344.544C130.319 345.264 131.567 345.624 133.247 345.624C134.351 345.624 135.311 345.492 136.127 345.228C136.967 344.964 137.783 344.58 138.575 344.076V346.992C137.999 347.352 137.147 347.688 136.019 348C134.915 348.312 133.763 348.468 132.563 348.468C130.739 348.468 129.263 348.156 128.135 347.532C127.031 346.884 126.227 346.02 125.723 344.94C125.243 343.836 125.003 342.588 125.003 341.196V330.396H120.539ZM152.103 348.468C149.775 348.468 147.711 348.024 145.911 347.136C144.135 346.224 142.731 344.976 141.699 343.392C140.691 341.784 140.187 339.936 140.187 337.848C140.187 335.736 140.667 333.888 141.627 332.304C142.587 330.72 143.919 329.484 145.623 328.596C147.327 327.708 149.283 327.264 151.491 327.264C153.675 327.264 155.583 327.744 157.215 328.704C158.847 329.664 160.107 331.02 160.995 332.772C161.907 334.5 162.363 336.516 162.363 338.82H142.707V336.192H160.959L159.015 337.38C158.943 335.868 158.583 334.56 157.935 333.456C157.287 332.352 156.411 331.5 155.307 330.9C154.203 330.3 152.919 330 151.455 330C149.871 330 148.491 330.324 147.315 330.972C146.139 331.596 145.215 332.484 144.543 333.636C143.895 334.788 143.571 336.144 143.571 337.704C143.571 339.336 143.943 340.752 144.687 341.952C145.431 343.152 146.475 344.076 147.819 344.724C149.163 345.372 150.747 345.696 152.571 345.696C154.227 345.696 155.847 345.42 157.431 344.868C159.039 344.316 160.479 343.56 161.751 342.6V345.192C160.503 346.2 159.015 347.004 157.287 347.604C155.559 348.18 153.831 348.468 152.103 348.468ZM165.541 327.732H168.853L170.005 334.608V348H166.693V334.14L165.541 327.732ZM178.393 327.264C180.289 327.264 181.897 327.648 183.217 328.416C184.537 329.16 185.545 330.252 186.241 331.692C186.937 333.108 187.285 334.824 187.285 336.84V348H183.973V337.416C183.973 334.992 183.409 333.168 182.281 331.944C181.177 330.696 179.557 330.072 177.421 330.072C175.933 330.072 174.625 330.408 173.497 331.08C172.393 331.752 171.529 332.688 170.905 333.888C170.305 335.064 170.005 336.444 170.005 338.028L168.673 337.092C168.841 335.076 169.357 333.336 170.221 331.872C171.085 330.408 172.213 329.28 173.605 328.488C175.021 327.672 176.617 327.264 178.393 327.264ZM211.648 348L210.928 340.26L211.9 337.884L211 335.328L212.404 320.28H215.788L214.096 337.704L215.032 348H211.648ZM212.908 337.848C212.38 339.96 211.564 341.82 210.46 343.428C209.38 345.012 208.06 346.248 206.5 347.136C204.964 348.024 203.26 348.468 201.388 348.468C199.396 348.468 197.632 348.024 196.096 347.136C194.56 346.224 193.348 344.976 192.46 343.392C191.596 341.784 191.164 339.936 191.164 337.848C191.164 335.736 191.596 333.888 192.46 332.304C193.348 330.72 194.56 329.484 196.096 328.596C197.632 327.708 199.396 327.264 201.388 327.264C203.26 327.264 204.964 327.708 206.5 328.596C208.06 329.484 209.392 330.72 210.496 332.304C211.6 333.888 212.404 335.736 212.908 337.848ZM194.548 337.848C194.548 339.384 194.86 340.74 195.484 341.916C196.132 343.092 197.008 344.016 198.112 344.688C199.24 345.336 200.512 345.66 201.928 345.66C203.368 345.66 204.688 345.336 205.888 344.688C207.112 344.016 208.192 343.092 209.128 341.916C210.088 340.74 210.868 339.384 211.468 337.848C210.868 336.312 210.088 334.956 209.128 333.78C208.192 332.604 207.112 331.692 205.888 331.044C204.688 330.372 203.368 330.036 201.928 330.036C200.512 330.036 199.24 330.372 198.112 331.044C197.008 331.692 196.132 332.604 195.484 333.78C194.86 334.956 194.548 336.312 194.548 337.848Z" fill="black"/>
</svg>
