
<svg width="367" height="376" viewBox="0 0 367 376" fill="none" xmlns="http://www.w3.org/2000/svg">
<rect x="177.076" y="133.546" width="132" height="57" rx="28.5" transform="rotate(5.56704 177.076 133.546)" stroke="black"/>
<path d="M195.125 165.87C194.972 167.441 195.157 168.841 195.68 170.071C196.227 171.282 197.074 172.265 198.222 173.02C199.37 173.775 200.762 174.232 202.397 174.391C204.053 174.553 205.507 174.373 206.758 173.852C208.009 173.331 209.019 172.529 209.789 171.446C210.561 170.343 211.024 169.005 211.177 167.434L212.527 153.58L215.521 153.872L214.165 167.79C213.964 169.849 213.32 171.619 212.233 173.099C211.147 174.558 209.734 175.642 207.993 176.351C206.273 177.063 204.32 177.312 202.133 177.098C199.946 176.885 198.067 176.263 196.496 175.231C194.924 174.199 193.747 172.862 192.964 171.221C192.204 169.561 191.924 167.701 192.125 165.641L193.482 151.723L196.476 152.015L195.125 165.87ZM220.953 154.401L223.947 154.693L221.618 178.58L218.625 178.288L220.953 154.401ZM236.496 155.048L239.012 155.293L227.598 180.031L225.082 179.785L236.496 155.048ZM243.801 170.614C243.648 172.185 243.833 173.586 244.356 174.816C244.902 176.026 245.75 177.009 246.898 177.764C248.046 178.519 249.437 178.976 251.072 179.136C252.729 179.297 254.182 179.117 255.433 178.596C256.684 178.075 257.695 177.273 258.465 176.191C259.237 175.087 259.7 173.75 259.853 172.179L261.203 158.324L264.197 158.616L262.84 172.534C262.64 174.594 261.995 176.364 260.908 177.844C259.823 179.303 258.41 180.387 256.669 181.096C254.949 181.807 252.995 182.056 250.809 181.843C248.622 181.63 246.742 181.007 245.171 179.975C243.6 178.943 242.423 177.607 241.639 175.966C240.88 174.305 240.6 172.445 240.801 170.386L242.157 156.468L245.151 156.76L243.801 170.614ZM278.819 172.388L278.977 170.763L288.543 185.103L284.817 184.74L276.871 172.583L278.145 172.708L267.969 183.097L264.306 182.74L276.455 170.582L276.312 172.047L267.495 158.937L271.189 159.298L278.505 170.331L277.136 170.198L286.413 160.781L290.012 161.132L278.819 172.388Z" fill="black"/>
</svg>
