<svg width="367" height="376" viewBox="0 0 367 376" fill="none" xmlns="http://www.w3.org/2000/svg">
    <rect x="212.785" y="246.865" width="175" height="48" rx="24" transform="rotate(29.361 212.785 246.865)" stroke="black"/>
    <path d="M217.344 273.41C217.989 272.524 218.816 271.87 219.825 271.446C220.848 271.031 222.005 270.901 223.294 271.057C224.583 271.213 225.945 271.695 227.382 272.503C228.692 273.24 229.724 274.05 230.476 274.932C231.228 275.814 231.686 276.714 231.849 277.632C232.026 278.558 231.875 279.446 231.396 280.296C230.988 281.022 230.403 281.555 229.642 281.898C228.888 282.226 227.998 282.323 226.973 282.187C225.948 282.051 224.829 281.641 223.616 280.959L223.828 280.582C225.092 281.239 226.085 281.971 226.805 282.78C227.532 283.575 227.968 284.399 228.113 285.251C228.279 286.097 228.131 286.932 227.668 287.755C227.143 288.689 226.404 289.366 225.452 289.785C224.508 290.19 223.4 290.301 222.126 290.117C220.867 289.941 219.484 289.429 217.978 288.582C216.514 287.758 215.36 286.824 214.515 285.78C213.671 284.736 213.161 283.651 212.987 282.524C212.813 281.398 212.974 280.296 213.471 279.217L215.458 280.335C214.97 281.529 215.01 282.698 215.577 283.844C216.166 284.983 217.276 286.011 218.908 286.929C220.525 287.839 221.916 288.255 223.081 288.175C224.267 288.09 225.147 287.538 225.719 286.52C226.049 285.935 226.181 285.357 226.115 284.788C226.05 284.219 225.749 283.646 225.211 283.068C224.681 282.476 223.886 281.882 222.826 281.286L219.898 279.638L220.757 278.111L223.685 279.759C225.08 280.543 226.246 280.869 227.184 280.735C228.143 280.596 228.835 280.15 229.259 279.397C229.769 278.49 229.766 277.58 229.252 276.667C228.738 275.754 227.77 274.897 226.347 274.097C224.883 273.273 223.533 272.899 222.297 272.975C221.083 273.044 220.094 273.562 219.331 274.528L217.344 273.41ZM243.756 282.073C245.499 283.053 246.849 284.244 247.805 285.645C248.761 287.045 249.275 288.546 249.347 290.147C249.427 291.735 249.028 293.309 248.149 294.871C247.279 296.419 246.14 297.577 244.734 298.347C243.336 299.102 241.787 299.442 240.085 299.366C238.392 299.276 236.674 298.741 234.93 297.761L228.216 293.983L237.042 278.295L243.756 282.073ZM230.476 294.566L229.904 292.647L235.991 296.072C237.329 296.825 238.646 297.226 239.94 297.275C241.235 297.323 242.419 297.045 243.495 296.438C244.585 295.839 245.467 294.94 246.141 293.741C246.832 292.514 247.146 291.286 247.084 290.058C247.044 288.824 246.667 287.667 245.953 286.586C245.24 285.505 244.213 284.588 242.875 283.835L236.788 280.411L238.714 279.924L230.476 294.566ZM250.575 295.74L255.156 298.317L254.215 299.99L249.634 297.413L250.575 295.74ZM269.187 296.38C270.931 297.361 272.28 298.551 273.236 299.952C274.192 301.353 274.706 302.853 274.779 304.454C274.859 306.042 274.459 307.616 273.581 309.178C272.71 310.726 271.572 311.884 270.166 312.654C268.768 313.41 267.218 313.749 265.517 313.673C263.823 313.584 262.105 313.048 260.362 312.068L253.647 308.29L262.473 292.603L269.187 296.38ZM255.908 308.874L255.335 306.954L261.422 310.379C262.761 311.132 264.077 311.533 265.372 311.582C266.666 311.631 267.851 311.352 268.927 310.745C270.016 310.146 270.898 309.247 271.573 308.048C272.263 306.821 272.577 305.593 272.516 304.365C272.476 303.131 272.099 301.974 271.385 300.893C270.671 299.812 269.645 298.895 268.306 298.142L262.219 294.718L264.145 294.232L255.908 308.874ZM277.797 322.234C276.445 321.473 275.391 320.541 274.635 319.437C273.901 318.326 273.493 317.142 273.411 315.884C273.351 314.621 273.663 313.382 274.345 312.169C275.035 310.942 275.918 310.025 276.994 309.418C278.07 308.812 279.248 308.529 280.528 308.57C281.808 308.611 283.09 308.992 284.373 309.714C285.642 310.428 286.593 311.331 287.228 312.422C287.862 313.513 288.151 314.713 288.094 316.021C288.06 317.323 287.665 318.644 286.912 319.982L275.492 313.557L276.351 312.03L286.956 317.996L285.438 318.051C285.89 317.149 286.109 316.272 286.093 315.418C286.077 314.565 285.847 313.784 285.401 313.074C284.956 312.365 284.308 311.771 283.457 311.292C282.537 310.774 281.629 310.512 280.734 310.504C279.847 310.482 279.02 310.696 278.253 311.145C277.5 311.603 276.868 312.285 276.358 313.191C275.825 314.14 275.578 315.084 275.618 316.024C275.658 316.965 275.963 317.843 276.532 318.659C277.101 319.475 277.916 320.181 278.975 320.777C279.938 321.318 280.969 321.687 282.07 321.884C283.185 322.089 284.268 322.121 285.321 321.979L284.474 323.485C283.419 323.662 282.292 323.643 281.092 323.427C279.899 323.197 278.801 322.799 277.797 322.234ZM299.727 329.67C299.304 330.423 298.705 330.949 297.931 331.248C297.171 331.555 296.265 331.614 295.214 331.427C294.177 331.247 293.038 330.808 291.797 330.11C290.528 329.396 289.503 328.591 288.723 327.693C287.965 326.789 287.495 325.863 287.312 324.916C287.129 323.968 287.256 323.058 287.692 322.183L289.658 323.29C289.436 323.881 289.41 324.499 289.579 325.145C289.755 325.777 290.109 326.389 290.639 326.98C291.169 327.572 291.852 328.103 292.689 328.574C293.902 329.257 294.952 329.609 295.839 329.631C296.748 329.646 297.383 329.334 297.744 328.692C298.027 328.19 298.011 327.695 297.699 327.207C297.393 326.705 296.67 326.05 295.527 325.242L293.377 323.729C292.31 322.982 291.517 322.27 290.999 321.593C290.502 320.909 290.233 320.262 290.191 319.651C290.157 319.026 290.297 318.435 290.611 317.877C291.042 317.11 291.633 316.598 292.383 316.341C293.156 316.078 294.035 316.049 295.02 316.255C296.014 316.447 297.062 316.853 298.163 317.472C299.335 318.131 300.279 318.883 300.997 319.728C301.73 320.58 302.199 321.459 302.405 322.365C302.612 323.27 302.523 324.129 302.14 324.942L300.194 323.847C300.376 323.362 300.394 322.84 300.249 322.281C300.113 321.708 299.793 321.134 299.291 320.558C298.803 319.989 298.106 319.45 297.2 318.94C296.084 318.313 295.122 317.983 294.314 317.951C293.52 317.926 292.951 318.221 292.606 318.834C292.354 319.281 292.357 319.75 292.612 320.242C292.867 320.735 293.48 321.327 294.449 322.019L296.889 323.75C298.012 324.529 298.836 325.249 299.363 325.913C299.889 326.576 300.166 327.209 300.194 327.812C300.236 328.423 300.08 329.043 299.727 329.67ZM306.841 322.657L307.709 323.366L308.766 323.74L302.117 335.558L300.193 334.475L306.841 322.657ZM308.759 321.451C308.369 321.231 308.101 320.924 307.955 320.53C307.831 320.13 307.872 319.749 308.076 319.386C308.287 319.01 308.592 318.778 308.991 318.69C309.411 318.595 309.816 318.658 310.207 318.878C310.625 319.113 310.896 319.431 311.02 319.831C311.151 320.217 311.111 320.598 310.899 320.975C310.695 321.337 310.39 321.57 309.984 321.672C309.586 321.76 309.177 321.686 308.759 321.451ZM317.811 340.614L318.999 338.502L319.259 338.235L320.354 336.29L320.505 335.824L322.824 331.704L324.748 332.786L319.888 341.425C319.025 342.959 317.994 344.058 316.793 344.723C315.607 345.396 314.343 345.685 313.001 345.591C311.658 345.497 310.311 345.069 308.958 344.309C307.94 343.736 307.075 343.056 306.361 342.269C305.653 341.504 305.067 340.605 304.601 339.572L305.554 337.877C306.007 339.031 306.598 339.988 307.327 340.747C308.07 341.514 308.881 342.145 309.76 342.639C311.461 343.596 313.009 343.879 314.404 343.489C315.804 343.121 316.94 342.162 317.811 340.614ZM310.64 339.362C309.58 338.765 308.751 337.987 308.153 337.026C307.57 336.074 307.262 335.038 307.231 333.919C307.207 332.786 307.513 331.654 308.149 330.525C308.792 329.381 309.6 328.533 310.573 327.978C311.553 327.41 312.598 327.135 313.708 327.154C314.839 327.166 315.935 327.47 316.994 328.066C317.789 328.513 318.458 329.055 319 329.69C319.55 330.312 319.99 330.981 320.32 331.7C320.65 332.418 320.87 333.138 320.978 333.859C321.086 334.581 321.099 335.259 321.018 335.892C320.959 336.52 320.803 337.057 320.552 337.503C320.231 338.075 319.718 338.594 319.015 339.061C318.333 339.522 317.521 339.873 316.578 340.114C315.657 340.348 314.679 340.422 313.644 340.336C312.631 340.243 311.63 339.919 310.64 339.362ZM312.034 338.108C313.121 338.72 314.306 338.964 315.587 338.84C316.868 338.716 318.3 338.145 319.883 337.126C319.962 335.225 319.71 333.697 319.129 332.544C318.57 331.385 317.746 330.499 316.658 329.887C315.752 329.377 314.876 329.123 314.03 329.125C313.207 329.121 312.455 329.331 311.775 329.756C311.109 330.19 310.549 330.811 310.094 331.619C309.655 332.4 309.419 333.195 309.386 334.003C309.376 334.804 309.582 335.563 310.006 336.279C310.451 336.988 311.127 337.598 312.034 338.108ZM327.252 334.195L329.177 335.278L327.598 339.649L323.221 347.431L321.296 346.348L325.827 338.295L327.252 334.195ZM334.873 338.124C335.974 338.744 336.783 339.493 337.299 340.37C337.823 341.234 338.051 342.198 337.985 343.262C337.927 344.313 337.568 345.423 336.909 346.595L333.261 353.079L331.337 351.996L334.796 345.847C335.589 344.438 335.857 343.194 335.602 342.114C335.368 341.028 334.631 340.136 333.39 339.438C332.525 338.952 331.656 338.719 330.781 338.741C329.919 338.771 329.111 339.032 328.357 339.525C327.624 340.012 326.998 340.716 326.48 341.637L326.012 340.657C326.769 339.541 327.638 338.699 328.618 338.13C329.599 337.562 330.623 337.275 331.691 337.27C332.78 337.259 333.841 337.544 334.873 338.124Z" fill="black"/>
    <rect x="39.6368" y="255.847" width="195" height="57" rx="28.5" transform="rotate(-19.2252 39.6368 255.847)" stroke="black"/>
    <path d="M79.3689 272.174L79.4484 271.333C81.2884 270.714 82.8674 270.48 84.1851 270.63C85.4957 270.76 86.571 271.188 87.4109 271.911C88.2437 272.615 88.8497 273.511 89.2291 274.598C89.6435 275.787 89.7202 276.946 89.4592 278.077C89.2113 279.18 88.6247 280.186 87.6995 281.097C86.7742 282.007 85.4958 282.746 83.8641 283.315L69.5722 288.299L67.2982 276.045L61.6695 265.638L75.4477 260.833C77.5427 260.102 79.3162 260.037 80.7683 260.638C82.2335 261.211 83.2612 262.344 83.8512 264.036C84.1603 264.923 84.2443 265.876 84.1032 266.897C83.9752 267.89 83.5432 268.854 82.8072 269.789C82.0642 270.703 80.9181 271.498 79.3689 272.174ZM72.1463 286.351L70.5633 285.31L82.8912 281.011C84.3818 280.491 85.4241 279.755 86.0182 278.802C86.6254 277.822 86.7077 276.698 86.2652 275.429C85.7945 274.079 84.9392 273.214 83.6993 272.833C82.4594 272.452 80.8725 272.599 78.9387 273.273L69.1489 276.687L68.3481 274.391L77.9869 271.029C79.276 270.58 80.2207 269.855 80.8209 268.855C81.4412 267.848 81.516 266.669 81.0454 265.32C80.7012 264.333 80.0677 263.65 79.1449 263.271C78.2352 262.866 77.1056 262.898 75.7559 263.369L64.3043 267.362L64.8968 265.563L70.0478 275.086L72.1463 286.351ZM111.121 273.81L108.272 267.585L108.3 265.237L106.829 263.445L105.188 256.799L108.029 255.808L110.204 264.573L113.961 272.819L111.121 273.81ZM109.237 264.91C109.412 266.837 109.272 268.637 108.816 270.31C108.373 271.955 107.627 273.379 106.577 274.581C105.548 275.776 104.248 276.647 102.677 277.195C101.005 277.778 99.3942 277.922 97.8451 277.626C96.2889 277.31 94.9064 276.618 93.6975 275.548C92.5016 274.451 91.5981 273.027 90.987 271.274C90.3688 269.502 90.1905 267.824 90.4521 266.242C90.7337 264.652 91.3892 263.26 92.4185 262.065C93.4478 260.87 94.7984 259.981 96.4703 259.398C98.0415 258.85 99.6017 258.724 101.151 259.02C102.72 259.309 104.2 259.956 105.59 260.963C106.98 261.969 108.196 263.285 109.237 264.91ZM93.8273 270.284C94.2768 271.573 94.9356 272.62 95.8035 273.424C96.6916 274.222 97.6973 274.741 98.8206 274.982C99.957 275.195 101.119 275.095 102.308 274.68C103.517 274.259 104.53 273.601 105.347 272.706C106.178 271.783 106.814 270.692 107.255 269.431C107.717 268.163 107.974 266.796 108.029 265.331C107.075 264.218 106.024 263.308 104.874 262.602C103.744 261.889 102.571 261.44 101.354 261.254C100.15 261.041 98.9435 261.145 97.7349 261.567C96.5464 261.981 95.5771 262.636 94.8271 263.53C94.0901 264.397 93.6218 265.419 93.4222 266.595C93.2426 267.765 93.3777 268.995 93.8273 270.284ZM133.933 258.602C134.182 260.029 134.042 261.411 133.514 262.747C133.006 264.077 132.179 265.269 131.033 266.324C129.888 267.378 128.499 268.19 126.867 268.759C124.974 269.42 123.172 269.63 121.461 269.391C119.744 269.131 118.241 268.48 116.951 267.439C115.675 266.37 114.731 264.96 114.12 263.207C113.509 261.455 113.374 259.773 113.716 258.163C114.072 256.525 114.844 255.081 116.035 253.83C117.225 252.578 118.767 251.623 120.661 250.962C122.292 250.393 123.885 250.166 125.438 250.279C126.985 250.373 128.37 250.782 129.594 251.507C130.839 252.225 131.811 253.231 132.51 254.523L129.64 255.524C128.846 254.22 127.704 253.375 126.214 252.991C124.738 252.579 123.154 252.669 121.462 253.259C120.092 253.737 118.988 254.426 118.15 255.329C117.333 256.224 116.814 257.263 116.595 258.447C116.368 259.61 116.49 260.867 116.96 262.217C117.431 263.566 118.12 264.636 119.029 265.427C119.937 266.217 120.989 266.708 122.186 266.901C123.396 267.067 124.686 266.91 126.056 266.433C127.768 265.836 129.074 264.917 129.975 263.677C130.895 262.429 131.258 261.071 131.062 259.603L133.933 258.602ZM141.366 260.382L140.445 260.364L147.267 242.125L150.531 240.987L142.081 263.013L139.482 263.92L131.368 240.654L134.148 239.684L141.366 260.382ZM145.132 252.426L146.188 249.719L157.007 257.808L153.683 258.967L145.132 252.426ZM167.655 254.536C165.701 255.217 163.838 255.448 162.068 255.23C160.31 254.984 158.766 254.348 157.437 253.32C156.12 252.266 155.156 250.862 154.545 249.11C153.927 247.337 153.789 245.646 154.131 244.035C154.473 242.425 155.229 240.997 156.399 239.753C157.57 238.509 159.081 237.564 160.935 236.918C162.768 236.279 164.51 236.123 166.16 236.451C167.811 236.779 169.266 237.548 170.524 238.759C171.795 239.942 172.768 241.501 173.442 243.435L156.944 249.188L156.175 246.982L171.494 241.64L170.211 243.206C169.708 241.958 169.023 240.966 168.156 240.229C167.289 239.492 166.304 239.033 165.202 238.853C164.1 238.672 162.934 238.796 161.705 239.225C160.376 239.688 159.312 240.364 158.515 241.252C157.711 242.12 157.195 243.136 156.968 244.3C156.761 245.456 156.886 246.689 157.343 247.998C157.821 249.368 158.547 250.448 159.523 251.237C160.499 252.027 161.645 252.497 162.963 252.647C164.281 252.798 165.705 252.606 167.236 252.072C168.626 251.587 169.905 250.881 171.073 249.955C172.261 249.021 173.248 247.965 174.035 246.787L174.793 248.962C174.041 250.173 173.027 251.284 171.753 252.293C170.471 253.282 169.105 254.03 167.655 254.536ZM172.864 233.198L175.644 232.229L178.624 237.663L182.543 248.903L179.764 249.872L175.707 238.239L172.864 233.198ZM183.514 229.044C185.106 228.489 186.568 228.34 187.9 228.599C189.226 228.837 190.392 229.458 191.397 230.463C192.396 231.448 193.19 232.786 193.78 234.478L197.047 243.845L194.267 244.814L191.169 235.931C190.46 233.897 189.452 232.531 188.147 231.834C186.856 231.109 185.313 231.06 183.52 231.685C182.271 232.12 181.272 232.785 180.522 233.679C179.792 234.567 179.341 235.605 179.168 236.795C179.009 237.958 179.161 239.204 179.625 240.533L178.233 240.137C177.784 238.396 177.707 236.785 178.004 235.303C178.301 233.821 178.917 232.545 179.854 231.472C180.804 230.373 182.024 229.563 183.514 229.044ZM217.495 236.714L214.625 230.429L214.746 228.15L213.242 226.268L210.016 213.227L212.856 212.237L216.536 227.356L220.335 235.724L217.495 236.714ZM215.581 227.825C215.756 229.752 215.616 231.552 215.16 233.225C214.717 234.87 213.971 236.294 212.921 237.496C211.892 238.691 210.592 239.562 209.021 240.11C207.349 240.693 205.738 240.837 204.189 240.541C202.633 240.225 201.251 239.532 200.042 238.463C198.846 237.366 197.942 235.941 197.331 234.189C196.713 232.416 196.535 230.739 196.796 229.156C197.078 227.567 197.733 226.175 198.763 224.98C199.792 223.785 201.142 222.896 202.814 222.313C204.386 221.765 205.946 221.639 207.495 221.935C209.064 222.224 210.544 222.871 211.934 223.877C213.324 224.884 214.54 226.199 215.581 227.825ZM200.171 233.198C200.621 234.488 201.28 235.534 202.148 236.339C203.036 237.136 204.041 237.655 205.165 237.896C206.301 238.11 207.464 238.01 208.652 237.595C209.861 237.174 210.874 236.515 211.691 235.62C212.522 234.698 213.158 233.606 213.599 232.345C214.061 231.077 214.319 229.711 214.373 228.246C213.419 227.133 212.368 226.223 211.218 225.517C210.088 224.804 208.915 224.354 207.698 224.169C206.494 223.956 205.288 224.06 204.079 224.482C202.891 224.896 201.921 225.55 201.171 226.445C200.434 227.312 199.966 228.333 199.766 229.51C199.587 230.68 199.722 231.909 200.171 233.198Z" fill="black"/>
    <rect x="177.076" y="133.546" width="132" height="57" rx="28.5" transform="rotate(5.56704 177.076 133.546)" stroke="black"/>
    <path d="M195.125 165.87C194.972 167.441 195.157 168.841 195.68 170.071C196.227 171.282 197.074 172.265 198.222 173.02C199.37 173.775 200.762 174.232 202.397 174.391C204.053 174.553 205.507 174.373 206.758 173.852C208.009 173.331 209.019 172.529 209.789 171.446C210.561 170.343 211.024 169.005 211.177 167.434L212.527 153.58L215.521 153.872L214.165 167.79C213.964 169.849 213.32 171.619 212.233 173.099C211.147 174.558 209.734 175.642 207.993 176.351C206.273 177.063 204.32 177.312 202.133 177.098C199.946 176.885 198.067 176.263 196.496 175.231C194.924 174.199 193.747 172.862 192.964 171.221C192.204 169.561 191.924 167.701 192.125 165.641L193.482 151.723L196.476 152.015L195.125 165.87ZM220.953 154.401L223.947 154.693L221.618 178.58L218.625 178.288L220.953 154.401ZM236.496 155.048L239.012 155.293L227.598 180.031L225.082 179.785L236.496 155.048ZM243.801 170.614C243.648 172.185 243.833 173.586 244.356 174.816C244.902 176.026 245.75 177.009 246.898 177.764C248.046 178.519 249.437 178.976 251.072 179.136C252.729 179.297 254.182 179.117 255.433 178.596C256.684 178.075 257.695 177.273 258.465 176.191C259.237 175.087 259.7 173.75 259.853 172.179L261.203 158.324L264.197 158.616L262.84 172.534C262.64 174.594 261.995 176.364 260.908 177.844C259.823 179.303 258.41 180.387 256.669 181.096C254.949 181.807 252.995 182.056 250.809 181.843C248.622 181.63 246.742 181.007 245.171 179.975C243.6 178.943 242.423 177.607 241.639 175.966C240.88 174.305 240.6 172.445 240.801 170.386L242.157 156.468L245.151 156.76L243.801 170.614ZM278.819 172.388L278.977 170.763L288.543 185.103L284.817 184.74L276.871 172.583L278.145 172.708L267.969 183.097L264.306 182.74L276.455 170.582L276.312 172.047L267.495 158.937L271.189 159.298L278.505 170.331L277.136 170.198L286.413 160.781L290.012 161.132L278.819 172.388Z" fill="black"/>
    <rect x="10.5" y="303.5" width="223" height="62" rx="31" stroke="black"/>
    <path d="M30.896 333.204H50.192V336.192H30.896V333.204ZM50.732 321V323.988H30.536L32.66 321.828V348H29.276V321H50.732ZM53.3226 327.732H56.6346L57.7866 334.644V348H54.4746V334.032L53.3226 327.732ZM68.5506 327.66V330.648C68.0946 330.504 67.5546 330.396 66.9306 330.324C66.3306 330.252 65.7546 330.216 65.2026 330.216C63.7626 330.216 62.4786 330.54 61.3506 331.188C60.2226 331.836 59.3466 332.784 58.7226 334.032C58.0986 335.256 57.7866 336.708 57.7866 338.388L56.8506 337.092C56.8986 335.676 57.1266 334.368 57.5346 333.168C57.9426 331.968 58.5186 330.936 59.2626 330.072C60.0306 329.184 60.9426 328.5 61.9986 328.02C63.0786 327.516 64.2906 327.264 65.6346 327.264C66.1386 327.264 66.6546 327.3 67.1826 327.372C67.7346 327.444 68.1906 327.54 68.5506 327.66ZM81.3711 348.468C78.9951 348.468 76.8951 348.024 75.0711 347.136C73.2711 346.248 71.8671 345 70.8591 343.392C69.8511 341.784 69.3471 339.936 69.3471 337.848C69.3471 335.736 69.8511 333.888 70.8591 332.304C71.8671 330.72 73.2711 329.484 75.0711 328.596C76.8951 327.708 78.9951 327.264 81.3711 327.264C83.7711 327.264 85.8711 327.708 87.6711 328.596C89.4711 329.484 90.8751 330.72 91.8831 332.304C92.9151 333.888 93.4311 335.736 93.4311 337.848C93.4311 339.936 92.9151 341.784 91.8831 343.392C90.8751 345 89.4711 346.248 87.6711 347.136C85.8711 348.024 83.7711 348.468 81.3711 348.468ZM81.3711 345.696C83.1471 345.696 84.6831 345.384 85.9791 344.76C87.2751 344.112 88.2711 343.2 88.9671 342.024C89.6871 340.848 90.0471 339.456 90.0471 337.848C90.0471 336.264 89.6871 334.884 88.9671 333.708C88.2711 332.532 87.2751 331.62 85.9791 330.972C84.6831 330.324 83.1471 330 81.3711 330C79.6191 330 78.0831 330.324 76.7631 330.972C75.4671 331.62 74.4711 332.532 73.7751 333.708C73.0791 334.884 72.7311 336.264 72.7311 337.848C72.7311 339.456 73.0791 340.848 73.7751 342.024C74.4711 343.2 75.4671 344.112 76.7631 344.76C78.0831 345.384 79.6191 345.696 81.3711 345.696ZM96.6351 327.732H99.9471L101.099 334.608V348H97.7871V334.14L96.6351 327.732ZM109.487 327.264C111.383 327.264 112.991 327.648 114.311 328.416C115.631 329.16 116.639 330.252 117.335 331.692C118.031 333.108 118.379 334.824 118.379 336.84V348H115.067V337.416C115.067 334.992 114.503 333.168 113.375 331.944C112.271 330.696 110.651 330.072 108.515 330.072C107.027 330.072 105.719 330.408 104.591 331.08C103.487 331.752 102.623 332.688 101.999 333.888C101.399 335.064 101.099 336.444 101.099 338.028L99.7671 337.092C99.9351 335.076 100.451 333.336 101.315 331.872C102.179 330.408 103.307 329.28 104.699 328.488C106.115 327.672 107.711 327.264 109.487 327.264ZM120.539 330.396V328.812L125.003 327.984L126.335 322.476H128.315V327.732H138.179V330.396H128.315V340.692C128.315 342.516 128.711 343.8 129.503 344.544C130.319 345.264 131.567 345.624 133.247 345.624C134.351 345.624 135.311 345.492 136.127 345.228C136.967 344.964 137.783 344.58 138.575 344.076V346.992C137.999 347.352 137.147 347.688 136.019 348C134.915 348.312 133.763 348.468 132.563 348.468C130.739 348.468 129.263 348.156 128.135 347.532C127.031 346.884 126.227 346.02 125.723 344.94C125.243 343.836 125.003 342.588 125.003 341.196V330.396H120.539ZM152.103 348.468C149.775 348.468 147.711 348.024 145.911 347.136C144.135 346.224 142.731 344.976 141.699 343.392C140.691 341.784 140.187 339.936 140.187 337.848C140.187 335.736 140.667 333.888 141.627 332.304C142.587 330.72 143.919 329.484 145.623 328.596C147.327 327.708 149.283 327.264 151.491 327.264C153.675 327.264 155.583 327.744 157.215 328.704C158.847 329.664 160.107 331.02 160.995 332.772C161.907 334.5 162.363 336.516 162.363 338.82H142.707V336.192H160.959L159.015 337.38C158.943 335.868 158.583 334.56 157.935 333.456C157.287 332.352 156.411 331.5 155.307 330.9C154.203 330.3 152.919 330 151.455 330C149.871 330 148.491 330.324 147.315 330.972C146.139 331.596 145.215 332.484 144.543 333.636C143.895 334.788 143.571 336.144 143.571 337.704C143.571 339.336 143.943 340.752 144.687 341.952C145.431 343.152 146.475 344.076 147.819 344.724C149.163 345.372 150.747 345.696 152.571 345.696C154.227 345.696 155.847 345.42 157.431 344.868C159.039 344.316 160.479 343.56 161.751 342.6V345.192C160.503 346.2 159.015 347.004 157.287 347.604C155.559 348.18 153.831 348.468 152.103 348.468ZM165.541 327.732H168.853L170.005 334.608V348H166.693V334.14L165.541 327.732ZM178.393 327.264C180.289 327.264 181.897 327.648 183.217 328.416C184.537 329.16 185.545 330.252 186.241 331.692C186.937 333.108 187.285 334.824 187.285 336.84V348H183.973V337.416C183.973 334.992 183.409 333.168 182.281 331.944C181.177 330.696 179.557 330.072 177.421 330.072C175.933 330.072 174.625 330.408 173.497 331.08C172.393 331.752 171.529 332.688 170.905 333.888C170.305 335.064 170.005 336.444 170.005 338.028L168.673 337.092C168.841 335.076 169.357 333.336 170.221 331.872C171.085 330.408 172.213 329.28 173.605 328.488C175.021 327.672 176.617 327.264 178.393 327.264ZM211.648 348L210.928 340.26L211.9 337.884L211 335.328L212.404 320.28H215.788L214.096 337.704L215.032 348H211.648ZM212.908 337.848C212.38 339.96 211.564 341.82 210.46 343.428C209.38 345.012 208.06 346.248 206.5 347.136C204.964 348.024 203.26 348.468 201.388 348.468C199.396 348.468 197.632 348.024 196.096 347.136C194.56 346.224 193.348 344.976 192.46 343.392C191.596 341.784 191.164 339.936 191.164 337.848C191.164 335.736 191.596 333.888 192.46 332.304C193.348 330.72 194.56 329.484 196.096 328.596C197.632 327.708 199.396 327.264 201.388 327.264C203.26 327.264 204.964 327.708 206.5 328.596C208.06 329.484 209.392 330.72 210.496 332.304C211.6 333.888 212.404 335.736 212.908 337.848ZM194.548 337.848C194.548 339.384 194.86 340.74 195.484 341.916C196.132 343.092 197.008 344.016 198.112 344.688C199.24 345.336 200.512 345.66 201.928 345.66C203.368 345.66 204.688 345.336 205.888 344.688C207.112 344.016 208.192 343.092 209.128 341.916C210.088 340.74 210.868 339.384 211.468 337.848C210.868 336.312 210.088 334.956 209.128 333.78C208.192 332.604 207.112 331.692 205.888 331.044C204.688 330.372 203.368 330.036 201.928 330.036C200.512 330.036 199.24 330.372 198.112 331.044C197.008 331.692 196.132 332.604 195.484 333.78C194.86 334.956 194.548 336.312 194.548 337.848Z" fill="black"/>
</svg>
