<svg width="367" height="376" viewBox="0 0 367 376" fill="none" xmlns="http://www.w3.org/2000/svg">
    <rect x="202.609" y="38.7725" width="190" height="43" rx="21.5" transform="rotate(31.4127 202.609 38.7725)" stroke="black"/>
    <path d="M222.14 67.6902C223.562 68.5588 224.651 69.5907 225.405 70.7857C226.16 71.9807 226.543 73.2459 226.555 74.5815C226.575 75.9056 226.195 77.205 225.417 78.4794C224.646 79.7425 223.663 80.6735 222.469 81.2724C221.282 81.8599 219.982 82.0967 218.567 81.9827C217.159 81.8574 215.744 81.3603 214.322 80.4917L208.843 77.1456L216.661 64.3441L222.14 67.6902ZM210.708 77.6987L210.289 76.0833L215.256 79.1167C216.348 79.7838 217.432 80.157 218.509 80.2364C219.585 80.3157 220.58 80.1188 221.494 79.6458C222.419 79.1797 223.181 78.4573 223.778 77.4787C224.39 76.4773 224.688 75.4644 224.673 74.4398C224.677 73.4108 224.398 72.4356 223.835 71.5143C223.273 70.5929 222.446 69.7986 221.354 69.1315L216.387 66.0981L218.005 65.7506L210.708 77.6987ZM232.737 91.7377L234.616 87.8936L235.762 86.9764L236.044 85.5552L238.605 82.128L240.21 83.1079L236.837 87.6332L234.341 92.7176L232.737 91.7377ZM236.291 87.2996C235.429 88.1481 234.503 88.7937 233.514 89.2364C232.544 89.6747 231.56 89.8785 230.563 89.8478C229.578 89.8241 228.641 89.5412 227.754 88.9992C226.809 88.4224 226.101 87.7011 225.63 86.8353C225.166 85.9581 224.953 85.0155 224.991 84.0073C225.046 82.9948 225.377 81.9935 225.981 81.0035C226.593 80.0021 227.333 79.251 228.201 78.7502C229.081 78.2563 230.013 78.0212 230.999 78.0449C231.984 78.0687 232.949 78.3689 233.893 78.9457C234.781 79.4878 235.46 80.1917 235.932 81.0575C236.414 81.9302 236.688 82.9019 236.753 83.9726C236.817 85.0433 236.663 86.1523 236.291 87.2996ZM227.586 81.9834C227.141 82.7116 226.896 83.4449 226.852 84.1831C226.818 84.9283 226.966 85.6201 227.295 86.2584C227.642 86.8922 228.151 87.4142 228.823 87.8242C229.506 88.2411 230.225 88.4697 230.982 88.51C231.757 88.5458 232.536 88.4204 233.321 88.1338C234.116 87.8542 234.879 87.4372 235.608 86.8826C235.768 85.9806 235.791 85.1119 235.677 84.2763C235.573 83.4477 235.325 82.7026 234.933 82.0409C234.558 81.3748 234.03 80.8333 233.347 80.4164C232.676 80.0064 231.975 79.7973 231.246 79.7893C230.535 79.7769 229.855 79.9557 229.207 80.3256C228.571 80.7025 228.031 81.2551 227.586 81.9834ZM240.575 85.0652L241.034 84.3142L243.39 85.2142L245.617 82.9884L246.555 83.5617L245.034 86.0537L249.71 88.9099L248.939 90.173L244.262 87.3168L241.281 92.1984C240.753 93.0633 240.569 93.7867 240.729 94.3688C240.907 94.9464 241.395 95.4785 242.191 95.9649C242.715 96.2846 243.208 96.5 243.671 96.6111C244.146 96.7292 244.644 96.7834 245.166 96.7737L244.321 98.1563C243.944 98.1602 243.443 98.0728 242.818 97.8941C242.204 97.7224 241.612 97.4628 241.043 97.1153C240.179 96.5872 239.569 96.0118 239.215 95.3894C238.879 94.7625 238.748 94.12 238.822 93.462C238.914 92.7996 239.162 92.1384 239.565 91.4784L242.692 86.3578L240.575 85.0652ZM254.523 105.043L256.402 101.198L257.548 100.281L257.83 98.86L260.391 95.4329L261.996 96.4127L258.623 100.938L256.127 106.022L254.523 105.043ZM258.077 100.604C257.215 101.453 256.289 102.099 255.3 102.541C254.33 102.98 253.346 103.183 252.349 103.153C251.364 103.129 250.427 102.846 249.54 102.304C248.595 101.727 247.887 101.006 247.416 100.14C246.952 99.263 246.739 98.3203 246.776 97.3122C246.832 96.2996 247.163 95.2983 247.767 94.3083C248.379 93.307 249.119 92.5559 249.987 92.055C250.867 91.5611 251.799 91.326 252.785 91.3498C253.77 91.3735 254.735 91.6738 255.679 92.2506C256.567 92.7926 257.246 93.4965 257.717 94.3623C258.2 95.235 258.474 96.2067 258.538 97.2774C258.603 98.3481 258.449 99.4571 258.077 100.604ZM249.372 95.2882C248.927 96.0165 248.682 96.7497 248.638 97.488C248.604 98.2332 248.752 98.9249 249.081 99.5632C249.428 100.197 249.937 100.719 250.609 101.129C251.292 101.546 252.011 101.775 252.768 101.815C253.543 101.851 254.322 101.725 255.107 101.439C255.902 101.159 256.665 100.742 257.394 100.187C257.554 99.2855 257.577 98.4167 257.462 97.5811C257.359 96.7525 257.111 96.0074 256.718 95.3458C256.344 94.6797 255.816 94.1382 255.133 93.7212C254.461 93.3112 253.761 93.1022 253.032 93.0942C252.321 93.0817 251.641 93.2605 250.993 93.6305C250.357 94.0073 249.816 94.5599 249.372 95.2882ZM262.282 100.572L266.02 102.854L265.186 104.22L261.448 101.937L262.282 100.572ZM266.719 108.132L267.553 106.767L276.566 112.271L275.732 113.636L266.719 108.132ZM278.112 101.872L276.592 118.52L274.851 117.457L276.413 101.585L277.266 102.106L263.842 110.734L262.101 109.67L276.217 100.715L278.112 101.872ZM283.436 109.507L285.007 110.466L283.562 114.059L279.684 120.409L278.114 119.45L282.127 112.878L283.436 109.507ZM289.665 113.006C290.564 113.555 291.216 114.203 291.619 114.949C292.03 115.684 292.191 116.494 292.104 117.378C292.024 118.251 291.692 119.165 291.109 120.121L287.877 125.412L286.307 124.453L289.372 119.435C290.073 118.286 290.334 117.258 290.154 116.351C289.992 115.439 289.404 114.674 288.392 114.056C287.686 113.625 286.969 113.406 286.239 113.398C285.521 113.397 284.84 113.59 284.197 113.979C283.572 114.362 283.03 114.93 282.572 115.681L282.211 114.851C282.875 113.944 283.623 113.269 284.457 112.825C285.29 112.381 286.152 112.172 287.041 112.2C287.949 112.223 288.823 112.492 289.665 113.006ZM299.411 132.456L301.29 128.612L302.436 127.695L302.718 126.274L305.28 122.847L306.885 123.827L303.512 128.352L301.016 133.436L299.411 132.456ZM302.965 128.018C302.104 128.867 301.178 129.512 300.189 129.955C299.218 130.393 298.235 130.597 297.238 130.567C296.252 130.543 295.316 130.26 294.428 129.718C293.484 129.141 292.776 128.42 292.305 127.554C291.841 126.677 291.627 125.734 291.665 124.726C291.721 123.713 292.051 122.712 292.656 121.722C293.267 120.721 294.007 119.97 294.876 119.469C295.755 118.975 296.688 118.74 297.673 118.764C298.659 118.787 299.624 119.088 300.568 119.664C301.456 120.206 302.135 120.91 302.606 121.776C303.089 122.649 303.362 123.621 303.427 124.691C303.492 125.762 303.338 126.871 302.965 128.018ZM294.26 122.702C293.816 123.43 293.571 124.164 293.526 124.902C293.493 125.647 293.641 126.339 293.97 126.977C294.317 127.611 294.826 128.133 295.497 128.543C296.18 128.96 296.9 129.188 297.656 129.229C298.431 129.264 299.211 129.139 299.995 128.853C300.791 128.573 301.553 128.156 302.283 127.601C302.443 126.699 302.466 125.831 302.351 124.995C302.248 124.166 302 123.421 301.607 122.76C301.233 122.094 300.704 121.552 300.021 121.135C299.35 120.725 298.65 120.516 297.92 120.508C297.209 120.496 296.53 120.674 295.882 121.044C295.246 121.421 294.705 121.974 294.26 122.702ZM311.391 121.728L312.961 122.687L304.935 135.83L303.365 134.871L311.391 121.728ZM307.538 141.591C307.049 141.292 306.649 140.962 306.338 140.6C306.028 140.239 305.758 139.824 305.528 139.356L306.289 138.11C306.519 138.578 306.775 138.977 307.058 139.306C307.342 139.635 307.711 139.939 308.166 140.217C308.655 140.516 309.146 140.659 309.638 140.647C310.122 140.646 310.637 140.468 311.182 140.113L322.055 133.092L323.728 134.113L312.039 141.434C311.502 141.777 310.974 142.002 310.456 142.108C309.943 142.232 309.442 142.246 308.954 142.151C308.476 142.062 308.004 141.876 307.538 141.591ZM311.185 139.225L312.309 127.139L314.033 128.192L312.773 140.195L311.185 139.225ZM329.957 147.244C329.582 147.859 329.067 148.279 328.414 148.505C327.772 148.737 327.016 148.76 326.146 148.573C325.288 148.392 324.352 147.993 323.339 147.374C322.304 146.742 321.475 146.04 320.852 145.269C320.247 144.494 319.883 143.709 319.759 142.914C319.635 142.12 319.768 141.365 320.158 140.65L321.762 141.63C321.559 142.116 321.519 142.63 321.64 143.173C321.769 143.704 322.045 144.224 322.468 144.733C322.892 145.242 323.445 145.704 324.128 146.121C325.118 146.726 325.982 147.051 326.72 147.095C327.477 147.136 328.015 146.894 328.335 146.37C328.585 145.961 328.587 145.548 328.341 145.132C328.102 144.705 327.519 144.138 326.591 143.431L324.845 142.107C323.979 141.453 323.34 140.836 322.929 140.257C322.535 139.673 322.33 139.126 322.314 138.616C322.304 138.094 322.438 137.606 322.716 137.151C323.099 136.525 323.606 136.116 324.239 135.925C324.89 135.729 325.622 135.731 326.437 135.932C327.259 136.121 328.119 136.49 329.018 137.039C329.974 137.623 330.738 138.277 331.311 139.002C331.896 139.734 332.26 140.48 332.405 141.24C332.55 142 332.451 142.713 332.107 143.378L330.52 142.409C330.685 142.01 330.716 141.576 330.612 141.106C330.515 140.625 330.267 140.137 329.866 139.642C329.476 139.155 328.912 138.685 328.172 138.233C327.262 137.677 326.471 137.374 325.799 137.323C325.138 137.279 324.655 137.507 324.349 138.008C324.127 138.372 324.115 138.763 324.313 139.18C324.511 139.598 325.003 140.11 325.789 140.715L327.77 142.229C328.682 142.911 329.347 143.536 329.766 144.104C330.184 144.672 330.396 145.208 330.401 145.711C330.418 146.221 330.27 146.732 329.957 147.244Z" fill="black"/>
    <rect x="255.195" y="194.006" width="144" height="43" rx="21.5" transform="rotate(39.6991 255.195 194.006)" stroke="black"/>
    <path d="M280.249 233.651L270.668 245.192L269.283 244.042L278.583 232.84L279.139 233.328L264.02 239.673L262.481 238.396L265.924 222.382L266.506 222.84L257.218 234.027L255.833 232.877L265.415 221.336L267.6 223.15L264.121 238.925L263.213 238.172L278.064 231.837L280.249 233.651ZM277.575 251.264C276.559 250.421 275.819 249.486 275.354 248.459C274.9 247.441 274.743 246.409 274.883 245.364C275.022 244.319 275.463 243.35 276.204 242.458C276.953 241.555 277.824 240.944 278.817 240.625C279.81 240.305 280.849 240.275 281.934 240.534C283.028 240.802 284.084 241.358 285.099 242.201C286.125 243.052 286.865 243.987 287.319 245.006C287.774 246.024 287.935 247.051 287.804 248.085C287.683 249.129 287.248 250.102 286.498 251.004C285.757 251.897 284.881 252.504 283.869 252.825C282.868 253.155 281.825 253.19 280.74 252.931C279.656 252.671 278.601 252.116 277.575 251.264ZM278.558 250.079C279.317 250.71 280.085 251.121 280.86 251.315C281.644 251.497 282.393 251.461 283.108 251.205C283.833 250.958 284.481 250.491 285.052 249.804C285.614 249.127 285.95 248.409 286.059 247.651C286.179 246.901 286.077 246.158 285.753 245.421C285.429 244.684 284.887 244 284.128 243.37C283.379 242.748 282.608 242.342 281.814 242.15C281.03 241.968 280.28 242.004 279.566 242.26C278.851 242.515 278.212 242.982 277.65 243.659C277.08 244.346 276.734 245.065 276.614 245.814C276.495 246.564 276.597 247.307 276.921 248.044C277.264 248.779 277.809 249.458 278.558 250.079ZM288.085 259.99C287.295 259.334 286.755 258.617 286.465 257.839C286.194 257.06 286.165 256.238 286.378 255.376C286.602 254.522 287.072 253.664 287.787 252.802L291.735 248.047L293.15 249.223L289.395 253.747C288.543 254.773 288.126 255.744 288.145 256.661C288.172 257.567 288.627 258.387 289.509 259.119C290.135 259.639 290.794 259.951 291.486 260.058C292.186 260.154 292.877 260.052 293.559 259.752C294.241 259.452 294.864 258.963 295.426 258.286L295.711 259.069C294.926 259.89 294.08 260.47 293.174 260.81C292.279 261.158 291.394 261.264 290.52 261.127C289.645 260.991 288.834 260.611 288.085 259.99ZM292.236 263.098L294.212 259.748L298.952 254.039L300.367 255.214L295.449 261.139L293.652 264.274L292.236 263.098ZM300.715 257.426L301.277 256.749L303.479 257.979L306.003 256.098L306.849 256.8L304.984 259.047L309.2 262.547L308.255 263.686L304.039 260.186L300.385 264.587C299.738 265.366 299.451 266.056 299.526 266.655C299.619 267.252 300.025 267.849 300.743 268.445C301.215 268.837 301.672 269.121 302.115 269.298C302.567 269.483 303.052 269.608 303.57 269.674L302.535 270.92C302.161 270.87 301.678 270.711 301.085 270.444C300.502 270.186 299.954 269.844 299.441 269.418C298.662 268.771 298.141 268.113 297.881 267.446C297.639 266.778 297.602 266.123 297.77 265.483C297.956 264.84 298.296 264.222 298.79 263.627L302.623 259.01L300.715 257.426ZM310.923 263.925L311.529 264.636L312.339 265.101L305.121 273.795L303.705 272.62L310.923 263.925ZM312.676 263.223C312.389 262.985 312.215 262.693 312.155 262.348C312.113 262.002 312.203 261.695 312.424 261.429C312.654 261.152 312.939 261.007 313.279 260.994C313.637 260.98 313.96 261.092 314.247 261.33C314.555 261.586 314.73 261.887 314.771 262.233C314.822 262.57 314.732 262.876 314.502 263.153C314.28 263.42 313.995 263.565 313.647 263.588C313.308 263.6 312.984 263.479 312.676 263.223ZM311.867 279.734C310.852 278.891 310.112 277.956 309.647 276.929C309.193 275.911 309.036 274.879 309.175 273.834C309.315 272.789 309.755 271.82 310.496 270.927C311.246 270.025 312.117 269.414 313.11 269.094C314.103 268.775 315.142 268.745 316.226 269.004C317.321 269.272 318.376 269.827 319.392 270.67C320.418 271.522 321.158 272.457 321.612 273.475C322.067 274.494 322.228 275.52 322.097 276.555C321.976 277.598 321.541 278.571 320.791 279.474C320.05 280.367 319.174 280.973 318.162 281.294C317.161 281.624 316.118 281.659 315.033 281.4C313.949 281.141 312.893 280.586 311.867 279.734ZM312.851 278.549C313.61 279.179 314.378 279.591 315.153 279.784C315.937 279.967 316.686 279.931 317.401 279.675C318.126 279.428 318.774 278.961 319.345 278.273C319.907 277.596 320.243 276.878 320.352 276.12C320.472 275.371 320.37 274.627 320.046 273.89C319.722 273.154 319.18 272.47 318.421 271.84C317.672 271.218 316.901 270.811 316.106 270.62C315.323 270.437 314.573 270.473 313.858 270.729C313.144 270.985 312.505 271.451 311.943 272.128C311.372 272.816 311.027 273.534 310.907 274.284C310.787 275.034 310.89 275.777 311.214 276.514C311.556 277.249 312.102 277.927 312.851 278.549ZM325.751 276.287L327.166 277.462L325.219 280.81L320.466 286.535L319.051 285.359L323.969 279.435L325.751 276.287ZM331.41 280.648C332.221 281.32 332.772 282.055 333.063 282.852C333.364 283.638 333.407 284.463 333.193 285.325C332.988 286.178 332.528 287.035 331.813 287.896L327.853 292.667L326.437 291.491L330.193 286.967C331.053 285.931 331.459 284.951 331.411 284.028C331.382 283.103 330.911 282.261 329.998 281.503C329.362 280.975 328.684 280.654 327.963 280.541C327.253 280.437 326.551 280.53 325.859 280.822C325.185 281.112 324.567 281.595 324.005 282.272L323.768 281.399C324.555 280.597 325.393 280.037 326.282 279.717C327.171 279.398 328.053 279.316 328.929 279.472C329.824 279.625 330.651 280.017 331.41 280.648Z" fill="black"/>
    <rect x="60.5472" y="122.013" width="150" height="48" rx="24" transform="rotate(-15.6998 60.5472 122.013)" stroke="black"/>
    <path d="M87.2075 144.68L86.688 142.832L98.8872 139.403L99.4068 141.251L87.2075 144.68ZM91.0075 129.552L104.404 144.484L102.047 145.146L89.367 130.811L90.5222 130.486L87.1447 149.335L84.788 149.997L88.4429 130.273L91.0075 129.552ZM102.068 131.105L104.194 130.507L106.174 134.712L108.59 143.307L106.464 143.905L103.964 135.009L102.068 131.105ZM110.232 128.486C111.449 128.144 112.55 128.1 113.536 128.355C114.517 128.594 115.361 129.113 116.068 129.912C116.77 130.695 117.303 131.734 117.667 133.027L119.68 140.19L117.554 140.787L115.645 133.995C115.208 132.439 114.517 131.37 113.572 130.788C112.638 130.186 111.486 130.078 110.115 130.463C109.16 130.732 108.381 131.183 107.778 131.818C107.191 132.448 106.805 133.205 106.621 134.088C106.449 134.951 106.505 135.891 106.791 136.907L105.767 136.547C105.511 135.223 105.528 134.013 105.819 132.917C106.109 131.822 106.63 130.894 107.38 130.135C108.142 129.356 109.092 128.806 110.232 128.486ZM119.262 126.222L120.377 126.108L121.388 125.624L125.057 138.678L122.932 139.276L119.262 126.222ZM119.763 124.012C119.332 124.133 118.925 124.106 118.544 123.931C118.173 123.736 117.932 123.438 117.819 123.038C117.702 122.622 117.753 122.242 117.972 121.898C118.202 121.534 118.533 121.291 118.964 121.17C119.426 121.04 119.843 121.073 120.213 121.268C120.58 121.447 120.821 121.745 120.938 122.161C121.051 122.561 121 122.941 120.785 123.301C120.566 123.645 120.225 123.882 119.763 124.012ZM124.248 124.87L126.373 124.273L128.353 128.478L130.769 137.073L128.644 137.67L126.143 128.775L124.248 124.87ZM131.996 122.368C133.12 122.052 134.145 122.03 135.069 122.302C135.988 122.559 136.786 123.091 137.462 123.898C138.133 124.69 138.651 125.733 139.014 127.027L141.028 134.189L138.902 134.787L136.993 127.994C136.555 126.438 135.903 125.359 135.035 124.755C134.163 124.136 133.111 123.999 131.879 124.346C131.001 124.593 130.291 125.025 129.75 125.642C129.224 126.255 128.893 126.997 128.755 127.866C128.613 128.721 128.684 129.656 128.97 130.673L127.946 130.312C127.691 128.988 127.685 127.785 127.929 126.702C128.189 125.616 128.663 124.701 129.352 123.959C130.052 123.197 130.933 122.667 131.996 122.368ZM142.231 119.491C143.356 119.175 144.38 119.153 145.304 119.425C146.239 119.678 147.045 120.208 147.72 121.015C148.392 121.807 148.909 122.85 149.273 124.143L151.286 131.306L149.16 131.903L147.251 125.111C146.814 123.555 146.161 122.475 145.294 121.871C144.421 121.252 143.369 121.116 142.137 121.462C141.259 121.709 140.55 122.141 140.008 122.759C139.483 123.372 139.151 124.113 139.013 124.983C138.871 125.837 138.943 126.773 139.229 127.789L138.205 127.429C137.949 126.105 137.943 124.901 138.187 123.819C138.447 122.732 138.921 121.818 139.61 121.076C140.31 120.314 141.184 119.786 142.231 119.491ZM166.904 126.916L165.058 122.125L165.188 120.368L164.169 118.959L163.247 113.908L165.419 113.298L166.643 119.959L169.076 126.306L166.904 126.916ZM165.904 120.167C165.946 121.617 165.758 122.958 165.34 124.19C164.932 125.401 164.308 126.432 163.467 127.284C162.641 128.131 161.628 128.723 160.426 129.061C159.148 129.42 157.936 129.453 156.79 129.161C155.639 128.852 154.636 128.27 153.781 127.414C152.936 126.537 152.326 125.429 151.949 124.089C151.568 122.734 151.512 121.47 151.78 120.297C152.065 119.121 152.62 118.109 153.445 117.262C154.271 116.415 155.323 115.811 156.601 115.452C157.803 115.114 158.976 115.092 160.122 115.385C161.284 115.673 162.362 116.226 163.356 117.044C164.35 117.861 165.2 118.902 165.904 120.167ZM154.121 123.479C154.398 124.465 154.843 125.279 155.455 125.921C156.083 126.559 156.812 126.994 157.642 127.226C158.483 127.438 159.358 127.417 160.266 127.161C161.191 126.901 161.979 126.455 162.633 125.823C163.297 125.171 163.823 124.383 164.212 123.459C164.616 122.531 164.872 121.521 164.98 120.426C164.318 119.549 163.572 118.819 162.744 118.238C161.931 117.652 161.074 117.261 160.171 117.066C159.28 116.852 158.372 116.874 157.448 117.134C156.539 117.389 155.783 117.834 155.181 118.469C154.589 119.084 154.191 119.827 153.988 120.699C153.799 121.566 153.844 122.493 154.121 123.479ZM167.439 114.575L167.153 113.558L169.868 112.222L169.73 108.446L171 108.089L171.949 111.462L178.279 109.683L178.76 111.393L172.429 113.172L174.287 119.78C174.616 120.951 175.101 121.703 175.744 122.038C176.398 122.353 177.263 122.359 178.342 122.056C179.05 121.856 179.642 121.599 180.119 121.282C180.61 120.961 181.064 120.567 181.482 120.101L182.008 121.972C181.703 122.307 181.217 122.677 180.549 123.08C179.897 123.48 179.186 123.788 178.416 124.004C177.245 124.333 176.241 124.399 175.405 124.202C174.58 123.986 173.908 123.576 173.389 122.974C172.882 122.352 172.503 121.594 172.252 120.701L170.304 113.77L167.439 114.575ZM190.957 120.479C189.463 120.899 188.058 120.987 186.742 120.741C185.438 120.476 184.312 119.929 183.364 119.098C182.427 118.248 181.77 117.153 181.393 115.813C181.012 114.457 180.987 113.185 181.317 111.995C181.648 110.805 182.279 109.772 183.213 108.894C184.146 108.017 185.322 107.379 186.739 106.981C188.14 106.587 189.451 106.551 190.672 106.873C191.893 107.194 192.946 107.837 193.832 108.801C194.729 109.746 195.385 110.958 195.801 112.436L183.186 115.982L182.712 114.296L194.426 111.003L193.392 112.116C193.073 111.159 192.606 110.384 191.991 109.792C191.376 109.201 190.66 108.812 189.844 108.626C189.027 108.44 188.149 108.479 187.209 108.743C186.193 109.029 185.365 109.486 184.727 110.114C184.085 110.727 183.652 111.463 183.429 112.324C183.221 113.18 183.258 114.109 183.539 115.11C183.833 116.157 184.328 116.999 185.022 117.635C185.716 118.271 186.552 118.676 187.532 118.849C188.511 119.023 189.586 118.945 190.757 118.616C191.82 118.317 192.81 117.848 193.727 117.208C194.659 116.563 195.447 115.818 196.09 114.973L196.558 116.636C195.939 117.508 195.129 118.293 194.128 118.989C193.123 119.671 192.066 120.167 190.957 120.479Z" fill="black"/>
    <rect x="212.785" y="246.865" width="175" height="48" rx="24" transform="rotate(29.361 212.785 246.865)" stroke="black"/>
    <path d="M217.344 273.41C217.989 272.524 218.816 271.87 219.825 271.446C220.848 271.031 222.005 270.901 223.294 271.057C224.583 271.213 225.945 271.695 227.382 272.503C228.692 273.24 229.724 274.05 230.476 274.932C231.228 275.814 231.686 276.714 231.849 277.632C232.026 278.558 231.875 279.446 231.396 280.296C230.988 281.022 230.403 281.555 229.642 281.898C228.888 282.226 227.998 282.323 226.973 282.187C225.948 282.051 224.829 281.641 223.616 280.959L223.828 280.582C225.092 281.239 226.085 281.971 226.805 282.78C227.532 283.575 227.968 284.399 228.113 285.251C228.279 286.097 228.131 286.932 227.668 287.755C227.143 288.689 226.404 289.366 225.452 289.785C224.508 290.19 223.4 290.301 222.126 290.117C220.867 289.941 219.484 289.429 217.978 288.582C216.514 287.758 215.36 286.824 214.515 285.78C213.671 284.736 213.161 283.651 212.987 282.524C212.813 281.398 212.974 280.296 213.471 279.217L215.458 280.335C214.97 281.529 215.01 282.698 215.577 283.844C216.166 284.983 217.276 286.011 218.908 286.929C220.525 287.839 221.916 288.255 223.081 288.175C224.267 288.09 225.147 287.538 225.719 286.52C226.049 285.935 226.181 285.357 226.115 284.788C226.05 284.219 225.749 283.646 225.211 283.068C224.681 282.476 223.886 281.882 222.826 281.286L219.898 279.638L220.757 278.111L223.685 279.759C225.08 280.543 226.246 280.869 227.184 280.735C228.143 280.596 228.835 280.15 229.259 279.397C229.769 278.49 229.766 277.58 229.252 276.667C228.738 275.754 227.77 274.897 226.347 274.097C224.883 273.273 223.533 272.899 222.297 272.975C221.083 273.044 220.094 273.562 219.331 274.528L217.344 273.41ZM243.756 282.073C245.499 283.053 246.849 284.244 247.805 285.645C248.761 287.045 249.275 288.546 249.347 290.147C249.427 291.735 249.028 293.309 248.149 294.871C247.279 296.419 246.14 297.577 244.734 298.347C243.336 299.102 241.787 299.442 240.085 299.366C238.392 299.276 236.674 298.741 234.93 297.761L228.216 293.983L237.042 278.295L243.756 282.073ZM230.476 294.566L229.904 292.647L235.991 296.072C237.329 296.825 238.646 297.226 239.94 297.275C241.235 297.323 242.419 297.045 243.495 296.438C244.585 295.839 245.467 294.94 246.141 293.741C246.832 292.514 247.146 291.286 247.084 290.058C247.044 288.824 246.667 287.667 245.953 286.586C245.24 285.505 244.213 284.588 242.875 283.835L236.788 280.411L238.714 279.924L230.476 294.566ZM250.575 295.74L255.156 298.317L254.215 299.99L249.634 297.413L250.575 295.74ZM269.187 296.38C270.931 297.361 272.28 298.551 273.236 299.952C274.192 301.353 274.706 302.853 274.779 304.454C274.859 306.042 274.459 307.616 273.581 309.178C272.71 310.726 271.572 311.884 270.166 312.654C268.768 313.41 267.218 313.749 265.517 313.673C263.823 313.584 262.105 313.048 260.362 312.068L253.647 308.29L262.473 292.603L269.187 296.38ZM255.908 308.874L255.335 306.954L261.422 310.379C262.761 311.132 264.077 311.533 265.372 311.582C266.666 311.631 267.851 311.352 268.927 310.745C270.016 310.146 270.898 309.247 271.573 308.048C272.263 306.821 272.577 305.593 272.516 304.365C272.476 303.131 272.099 301.974 271.385 300.893C270.671 299.812 269.645 298.895 268.306 298.142L262.219 294.718L264.145 294.232L255.908 308.874ZM277.797 322.234C276.445 321.473 275.391 320.541 274.635 319.437C273.901 318.326 273.493 317.142 273.411 315.884C273.351 314.621 273.663 313.382 274.345 312.169C275.035 310.942 275.918 310.025 276.994 309.418C278.07 308.812 279.248 308.529 280.528 308.57C281.808 308.611 283.09 308.992 284.373 309.714C285.642 310.428 286.593 311.331 287.228 312.422C287.862 313.513 288.151 314.713 288.094 316.021C288.06 317.323 287.665 318.644 286.912 319.982L275.492 313.557L276.351 312.03L286.956 317.996L285.438 318.051C285.89 317.149 286.109 316.272 286.093 315.418C286.077 314.565 285.847 313.784 285.401 313.074C284.956 312.365 284.308 311.771 283.457 311.292C282.537 310.774 281.629 310.512 280.734 310.504C279.847 310.482 279.02 310.696 278.253 311.145C277.5 311.603 276.868 312.285 276.358 313.191C275.825 314.14 275.578 315.084 275.618 316.024C275.658 316.965 275.963 317.843 276.532 318.659C277.101 319.475 277.916 320.181 278.975 320.777C279.938 321.318 280.969 321.687 282.07 321.884C283.185 322.089 284.268 322.121 285.321 321.979L284.474 323.485C283.419 323.662 282.292 323.643 281.092 323.427C279.899 323.197 278.801 322.799 277.797 322.234ZM299.727 329.67C299.304 330.423 298.705 330.949 297.931 331.248C297.171 331.555 296.265 331.614 295.214 331.427C294.177 331.247 293.038 330.808 291.797 330.11C290.528 329.396 289.503 328.591 288.723 327.693C287.965 326.789 287.495 325.863 287.312 324.916C287.129 323.968 287.256 323.058 287.692 322.183L289.658 323.29C289.436 323.881 289.41 324.499 289.579 325.145C289.755 325.777 290.109 326.389 290.639 326.98C291.169 327.572 291.852 328.103 292.689 328.574C293.902 329.257 294.952 329.609 295.839 329.631C296.748 329.646 297.383 329.334 297.744 328.692C298.027 328.19 298.011 327.695 297.699 327.207C297.393 326.705 296.67 326.05 295.527 325.242L293.377 323.729C292.31 322.982 291.517 322.27 290.999 321.593C290.502 320.909 290.233 320.262 290.191 319.651C290.157 319.026 290.297 318.435 290.611 317.877C291.042 317.11 291.633 316.598 292.383 316.341C293.156 316.078 294.035 316.049 295.02 316.255C296.014 316.447 297.062 316.853 298.163 317.472C299.335 318.131 300.279 318.883 300.997 319.728C301.73 320.58 302.199 321.459 302.405 322.365C302.612 323.27 302.523 324.129 302.14 324.942L300.194 323.847C300.376 323.362 300.394 322.84 300.249 322.281C300.113 321.708 299.793 321.134 299.291 320.558C298.803 319.989 298.106 319.45 297.2 318.94C296.084 318.313 295.122 317.983 294.314 317.951C293.52 317.926 292.951 318.221 292.606 318.834C292.354 319.281 292.357 319.75 292.612 320.242C292.867 320.735 293.48 321.327 294.449 322.019L296.889 323.75C298.012 324.529 298.836 325.249 299.363 325.913C299.889 326.576 300.166 327.209 300.194 327.812C300.236 328.423 300.08 329.043 299.727 329.67ZM306.841 322.657L307.709 323.366L308.766 323.74L302.117 335.558L300.193 334.475L306.841 322.657ZM308.759 321.451C308.369 321.231 308.101 320.924 307.955 320.53C307.831 320.13 307.872 319.749 308.076 319.386C308.287 319.01 308.592 318.778 308.991 318.69C309.411 318.595 309.816 318.658 310.207 318.878C310.625 319.113 310.896 319.431 311.02 319.831C311.151 320.217 311.111 320.598 310.899 320.975C310.695 321.337 310.39 321.57 309.984 321.672C309.586 321.76 309.177 321.686 308.759 321.451ZM317.811 340.614L318.999 338.502L319.259 338.235L320.354 336.29L320.505 335.824L322.824 331.704L324.748 332.786L319.888 341.425C319.025 342.959 317.994 344.058 316.793 344.723C315.607 345.396 314.343 345.685 313.001 345.591C311.658 345.497 310.311 345.069 308.958 344.309C307.94 343.736 307.075 343.056 306.361 342.269C305.653 341.504 305.067 340.605 304.601 339.572L305.554 337.877C306.007 339.031 306.598 339.988 307.327 340.747C308.07 341.514 308.881 342.145 309.76 342.639C311.461 343.596 313.009 343.879 314.404 343.489C315.804 343.121 316.94 342.162 317.811 340.614ZM310.64 339.362C309.58 338.765 308.751 337.987 308.153 337.026C307.57 336.074 307.262 335.038 307.231 333.919C307.207 332.786 307.513 331.654 308.149 330.525C308.792 329.381 309.6 328.533 310.573 327.978C311.553 327.41 312.598 327.135 313.708 327.154C314.839 327.166 315.935 327.47 316.994 328.066C317.789 328.513 318.458 329.055 319 329.69C319.55 330.312 319.99 330.981 320.32 331.7C320.65 332.418 320.87 333.138 320.978 333.859C321.086 334.581 321.099 335.259 321.018 335.892C320.959 336.52 320.803 337.057 320.552 337.503C320.231 338.075 319.718 338.594 319.015 339.061C318.333 339.522 317.521 339.873 316.578 340.114C315.657 340.348 314.679 340.422 313.644 340.336C312.631 340.243 311.63 339.919 310.64 339.362ZM312.034 338.108C313.121 338.72 314.306 338.964 315.587 338.84C316.868 338.716 318.3 338.145 319.883 337.126C319.962 335.225 319.71 333.697 319.129 332.544C318.57 331.385 317.746 330.499 316.658 329.887C315.752 329.377 314.876 329.123 314.03 329.125C313.207 329.121 312.455 329.331 311.775 329.756C311.109 330.19 310.549 330.811 310.094 331.619C309.655 332.4 309.419 333.195 309.386 334.003C309.376 334.804 309.582 335.563 310.006 336.279C310.451 336.988 311.127 337.598 312.034 338.108ZM327.252 334.195L329.177 335.278L327.598 339.649L323.221 347.431L321.296 346.348L325.827 338.295L327.252 334.195ZM334.873 338.124C335.974 338.744 336.783 339.493 337.299 340.37C337.823 341.234 338.051 342.198 337.985 343.262C337.927 344.313 337.568 345.423 336.909 346.595L333.261 353.079L331.337 351.996L334.796 345.847C335.589 344.438 335.857 343.194 335.602 342.114C335.368 341.028 334.631 340.136 333.39 339.438C332.525 338.952 331.656 338.719 330.781 338.741C329.919 338.771 329.111 339.032 328.357 339.525C327.624 340.012 326.998 340.716 326.48 341.637L326.012 340.657C326.769 339.541 327.638 338.699 328.618 338.13C329.599 337.562 330.623 337.275 331.691 337.27C332.78 337.259 333.841 337.544 334.873 338.124Z" fill="black"/>
    <rect x="18.9378" y="151.59" width="120" height="62" rx="31" transform="rotate(11.488 18.9378 151.59)" stroke="black"/>
    <path d="M28.4533 190.006L31.8047 190.687C31.716 191.967 31.9877 193.161 32.6197 194.269C33.2516 195.378 34.1853 196.326 35.4208 197.116C36.6845 197.887 38.1984 198.452 39.9623 198.811C42.62 199.351 44.8157 199.332 46.5496 198.754C48.3119 198.157 49.3507 197.082 49.6662 195.53C49.9099 194.33 49.6024 193.313 48.7437 192.477C47.9085 191.646 46.3083 190.843 43.9432 190.069L38.9568 188.394C35.8112 187.363 33.6499 186.128 32.4729 184.688C31.3008 183.226 30.9154 181.506 31.317 179.531C31.6372 177.955 32.3848 176.686 33.5598 175.725C34.7396 174.74 36.2383 174.114 38.0559 173.847C39.9019 173.561 41.9656 173.65 44.2469 174.113C46.5283 174.577 48.4792 175.341 50.0998 176.405C51.7486 177.45 52.9638 178.701 53.7453 180.158C54.5551 181.596 54.8374 183.16 54.5921 184.849L51.2406 184.168C51.3289 183.01 51.078 181.955 50.4879 181.002C49.9026 180.026 49.0203 179.186 47.8411 178.481C46.6902 177.757 45.2798 177.225 43.6099 176.886C41.1875 176.394 39.1587 176.434 37.5237 177.008C35.9169 177.563 34.9582 178.605 34.6475 180.134C34.4085 181.31 34.6949 182.311 35.5066 183.137C36.3466 183.945 37.8786 184.722 40.1026 185.467L44.976 187.156C47.247 187.911 49.0096 188.698 50.2638 189.516C51.5415 190.339 52.3929 191.271 52.818 192.313C53.2478 193.331 53.3217 194.534 53.0397 195.921C52.7004 197.591 51.9007 198.935 50.6409 199.952C49.4045 200.975 47.8139 201.631 45.8691 201.922C43.9243 202.212 41.7524 202.113 39.3534 201.626C36.9309 201.134 34.8554 200.32 33.1268 199.185C31.403 198.026 30.1247 196.665 29.2917 195.099C28.4635 193.511 28.1841 191.813 28.4533 190.006ZM79.5754 194.077L79.0018 196.9L60.9743 193.236L61.5479 190.414L79.5754 194.077ZM63.3426 192.248L58.8079 204.257L57.467 201.817L78.1403 206.019L77.5524 208.912L55.2562 204.38L60.1322 191.595L60.6336 177.921L82.7534 182.417L82.1655 185.31L61.6685 181.144L63.8555 179.421L63.3426 192.248ZM95.463 213.029C92.5231 212.432 90.0413 211.327 88.0177 209.716C86.0176 208.11 84.6022 206.157 83.7715 203.857C82.9456 201.534 82.8075 199.02 83.3572 196.315C83.9117 193.587 85.0201 191.327 86.6825 189.534C88.3448 187.741 90.4103 186.495 92.8788 185.797C95.3709 185.103 98.0869 185.055 101.027 185.653C103.967 186.25 106.437 187.352 108.437 188.959C110.437 190.565 111.852 192.519 112.683 194.818C113.514 197.118 113.652 199.631 113.097 202.36C112.548 205.064 111.439 207.325 109.772 209.141C108.11 210.934 106.044 212.18 103.576 212.878C101.107 213.576 98.4029 213.627 95.463 213.029ZM96.0724 210.031C98.4008 210.504 100.512 210.48 102.406 209.958C104.304 209.414 105.886 208.437 107.152 207.029C108.418 205.621 109.271 203.835 109.71 201.671C110.155 199.484 110.069 197.495 109.454 195.705C108.838 193.914 107.76 192.409 106.22 191.19C104.68 189.971 102.746 189.125 100.417 188.652C98.0889 188.178 95.9779 188.202 94.0841 188.724C92.1903 189.245 90.5988 190.207 89.3095 191.611C88.0437 193.019 87.1885 194.816 86.744 197.004C86.3042 199.168 86.3922 201.145 87.008 202.935C87.6472 204.73 88.7345 206.249 90.2697 207.492C91.8098 208.711 93.744 209.557 96.0724 210.031Z" fill="black"/>
    <rect x="39.6368" y="255.847" width="195" height="57" rx="28.5" transform="rotate(-19.2252 39.6368 255.847)" stroke="black"/>
    <path d="M79.3689 272.174L79.4484 271.333C81.2884 270.714 82.8674 270.48 84.1851 270.63C85.4957 270.76 86.571 271.188 87.4109 271.911C88.2437 272.615 88.8497 273.511 89.2291 274.598C89.6435 275.787 89.7202 276.946 89.4592 278.077C89.2113 279.18 88.6247 280.186 87.6995 281.097C86.7742 282.007 85.4958 282.746 83.8641 283.315L69.5722 288.299L67.2982 276.045L61.6695 265.638L75.4477 260.833C77.5427 260.102 79.3162 260.037 80.7683 260.638C82.2335 261.211 83.2612 262.344 83.8512 264.036C84.1603 264.923 84.2443 265.876 84.1032 266.897C83.9752 267.89 83.5432 268.854 82.8072 269.789C82.0642 270.703 80.9181 271.498 79.3689 272.174ZM72.1463 286.351L70.5633 285.31L82.8912 281.011C84.3818 280.491 85.4241 279.755 86.0182 278.802C86.6254 277.822 86.7077 276.698 86.2652 275.429C85.7945 274.079 84.9392 273.214 83.6993 272.833C82.4594 272.452 80.8725 272.599 78.9387 273.273L69.1489 276.687L68.3481 274.391L77.9869 271.029C79.276 270.58 80.2207 269.855 80.8209 268.855C81.4412 267.848 81.516 266.669 81.0454 265.32C80.7012 264.333 80.0677 263.65 79.1449 263.271C78.2352 262.866 77.1056 262.898 75.7559 263.369L64.3043 267.362L64.8968 265.563L70.0478 275.086L72.1463 286.351ZM111.121 273.81L108.272 267.585L108.3 265.237L106.829 263.445L105.188 256.799L108.029 255.808L110.204 264.573L113.961 272.819L111.121 273.81ZM109.237 264.91C109.412 266.837 109.272 268.637 108.816 270.31C108.373 271.955 107.627 273.379 106.577 274.581C105.548 275.776 104.248 276.647 102.677 277.195C101.005 277.778 99.3942 277.922 97.8451 277.626C96.2889 277.31 94.9064 276.618 93.6975 275.548C92.5016 274.451 91.5981 273.027 90.987 271.274C90.3688 269.502 90.1905 267.824 90.4521 266.242C90.7337 264.652 91.3892 263.26 92.4185 262.065C93.4478 260.87 94.7984 259.981 96.4703 259.398C98.0415 258.85 99.6017 258.724 101.151 259.02C102.72 259.309 104.2 259.956 105.59 260.963C106.98 261.969 108.196 263.285 109.237 264.91ZM93.8273 270.284C94.2768 271.573 94.9356 272.62 95.8035 273.424C96.6916 274.222 97.6973 274.741 98.8206 274.982C99.957 275.195 101.119 275.095 102.308 274.68C103.517 274.259 104.53 273.601 105.347 272.706C106.178 271.783 106.814 270.692 107.255 269.431C107.717 268.163 107.974 266.796 108.029 265.331C107.075 264.218 106.024 263.308 104.874 262.602C103.744 261.889 102.571 261.44 101.354 261.254C100.15 261.041 98.9435 261.145 97.7349 261.567C96.5464 261.981 95.5771 262.636 94.8271 263.53C94.0901 264.397 93.6218 265.419 93.4222 266.595C93.2426 267.765 93.3777 268.995 93.8273 270.284ZM133.933 258.602C134.182 260.029 134.042 261.411 133.514 262.747C133.006 264.077 132.179 265.269 131.033 266.324C129.888 267.378 128.499 268.19 126.867 268.759C124.974 269.42 123.172 269.63 121.461 269.391C119.744 269.131 118.241 268.48 116.951 267.439C115.675 266.37 114.731 264.96 114.12 263.207C113.509 261.455 113.374 259.773 113.716 258.163C114.072 256.525 114.844 255.081 116.035 253.83C117.225 252.578 118.767 251.623 120.661 250.962C122.292 250.393 123.885 250.166 125.438 250.279C126.985 250.373 128.37 250.782 129.594 251.507C130.839 252.225 131.811 253.231 132.51 254.523L129.64 255.524C128.846 254.22 127.704 253.375 126.214 252.991C124.738 252.579 123.154 252.669 121.462 253.259C120.092 253.737 118.988 254.426 118.15 255.329C117.333 256.224 116.814 257.263 116.595 258.447C116.368 259.61 116.49 260.867 116.96 262.217C117.431 263.566 118.12 264.636 119.029 265.427C119.937 266.217 120.989 266.708 122.186 266.901C123.396 267.067 124.686 266.91 126.056 266.433C127.768 265.836 129.074 264.917 129.975 263.677C130.895 262.429 131.258 261.071 131.062 259.603L133.933 258.602ZM141.366 260.382L140.445 260.364L147.267 242.125L150.531 240.987L142.081 263.013L139.482 263.92L131.368 240.654L134.148 239.684L141.366 260.382ZM145.132 252.426L146.188 249.719L157.007 257.808L153.683 258.967L145.132 252.426ZM167.655 254.536C165.701 255.217 163.838 255.448 162.068 255.23C160.31 254.984 158.766 254.348 157.437 253.32C156.12 252.266 155.156 250.862 154.545 249.11C153.927 247.337 153.789 245.646 154.131 244.035C154.473 242.425 155.229 240.997 156.399 239.753C157.57 238.509 159.081 237.564 160.935 236.918C162.768 236.279 164.51 236.123 166.16 236.451C167.811 236.779 169.266 237.548 170.524 238.759C171.795 239.942 172.768 241.501 173.442 243.435L156.944 249.188L156.175 246.982L171.494 241.64L170.211 243.206C169.708 241.958 169.023 240.966 168.156 240.229C167.289 239.492 166.304 239.033 165.202 238.853C164.1 238.672 162.934 238.796 161.705 239.225C160.376 239.688 159.312 240.364 158.515 241.252C157.711 242.12 157.195 243.136 156.968 244.3C156.761 245.456 156.886 246.689 157.343 247.998C157.821 249.368 158.547 250.448 159.523 251.237C160.499 252.027 161.645 252.497 162.963 252.647C164.281 252.798 165.705 252.606 167.236 252.072C168.626 251.587 169.905 250.881 171.073 249.955C172.261 249.021 173.248 247.965 174.035 246.787L174.793 248.962C174.041 250.173 173.027 251.284 171.753 252.293C170.471 253.282 169.105 254.03 167.655 254.536ZM172.864 233.198L175.644 232.229L178.624 237.663L182.543 248.903L179.764 249.872L175.707 238.239L172.864 233.198ZM183.514 229.044C185.106 228.489 186.568 228.34 187.9 228.599C189.226 228.837 190.392 229.458 191.397 230.463C192.396 231.448 193.19 232.786 193.78 234.478L197.047 243.845L194.267 244.814L191.169 235.931C190.46 233.897 189.452 232.531 188.147 231.834C186.856 231.109 185.313 231.06 183.52 231.685C182.271 232.12 181.272 232.785 180.522 233.679C179.792 234.567 179.341 235.605 179.168 236.795C179.009 237.958 179.161 239.204 179.625 240.533L178.233 240.137C177.784 238.396 177.707 236.785 178.004 235.303C178.301 233.821 178.917 232.545 179.854 231.472C180.804 230.373 182.024 229.563 183.514 229.044ZM217.495 236.714L214.625 230.429L214.746 228.15L213.242 226.268L210.016 213.227L212.856 212.237L216.536 227.356L220.335 235.724L217.495 236.714ZM215.581 227.825C215.756 229.752 215.616 231.552 215.16 233.225C214.717 234.87 213.971 236.294 212.921 237.496C211.892 238.691 210.592 239.562 209.021 240.11C207.349 240.693 205.738 240.837 204.189 240.541C202.633 240.225 201.251 239.532 200.042 238.463C198.846 237.366 197.942 235.941 197.331 234.189C196.713 232.416 196.535 230.739 196.796 229.156C197.078 227.567 197.733 226.175 198.763 224.98C199.792 223.785 201.142 222.896 202.814 222.313C204.386 221.765 205.946 221.639 207.495 221.935C209.064 222.224 210.544 222.871 211.934 223.877C213.324 224.884 214.54 226.199 215.581 227.825ZM200.171 233.198C200.621 234.488 201.28 235.534 202.148 236.339C203.036 237.136 204.041 237.655 205.165 237.896C206.301 238.11 207.464 238.01 208.652 237.595C209.861 237.174 210.874 236.515 211.691 235.62C212.522 234.698 213.158 233.606 213.599 232.345C214.061 231.077 214.319 229.711 214.373 228.246C213.419 227.133 212.368 226.223 211.218 225.517C210.088 224.804 208.915 224.354 207.698 224.169C206.494 223.956 205.288 224.06 204.079 224.482C202.891 224.896 201.921 225.55 201.171 226.445C200.434 227.312 199.966 228.333 199.766 229.51C199.587 230.68 199.722 231.909 200.171 233.198Z" fill="black"/>
    <rect x="177.076" y="133.546" width="132" height="57" rx="28.5" transform="rotate(5.56704 177.076 133.546)" stroke="black"/>
    <path d="M195.125 165.87C194.972 167.441 195.157 168.841 195.68 170.071C196.227 171.282 197.074 172.265 198.222 173.02C199.37 173.775 200.762 174.232 202.397 174.391C204.053 174.553 205.507 174.373 206.758 173.852C208.009 173.331 209.019 172.529 209.789 171.446C210.561 170.343 211.024 169.005 211.177 167.434L212.527 153.58L215.521 153.872L214.165 167.79C213.964 169.849 213.32 171.619 212.233 173.099C211.147 174.558 209.734 175.642 207.993 176.351C206.273 177.063 204.32 177.312 202.133 177.098C199.946 176.885 198.067 176.263 196.496 175.231C194.924 174.199 193.747 172.862 192.964 171.221C192.204 169.561 191.924 167.701 192.125 165.641L193.482 151.723L196.476 152.015L195.125 165.87ZM220.953 154.401L223.947 154.693L221.618 178.58L218.625 178.288L220.953 154.401ZM236.496 155.048L239.012 155.293L227.598 180.031L225.082 179.785L236.496 155.048ZM243.801 170.614C243.648 172.185 243.833 173.586 244.356 174.816C244.902 176.026 245.75 177.009 246.898 177.764C248.046 178.519 249.437 178.976 251.072 179.136C252.729 179.297 254.182 179.117 255.433 178.596C256.684 178.075 257.695 177.273 258.465 176.191C259.237 175.087 259.7 173.75 259.853 172.179L261.203 158.324L264.197 158.616L262.84 172.534C262.64 174.594 261.995 176.364 260.908 177.844C259.823 179.303 258.41 180.387 256.669 181.096C254.949 181.807 252.995 182.056 250.809 181.843C248.622 181.63 246.742 181.007 245.171 179.975C243.6 178.943 242.423 177.607 241.639 175.966C240.88 174.305 240.6 172.445 240.801 170.386L242.157 156.468L245.151 156.76L243.801 170.614ZM278.819 172.388L278.977 170.763L288.543 185.103L284.817 184.74L276.871 172.583L278.145 172.708L267.969 183.097L264.306 182.74L276.455 170.582L276.312 172.047L267.495 158.937L271.189 159.298L278.505 170.331L277.136 170.198L286.413 160.781L290.012 161.132L278.819 172.388Z" fill="black"/>
    <rect x="10.5" y="303.5" width="223" height="62" rx="31" stroke="black"/>
    <path d="M30.896 333.204H50.192V336.192H30.896V333.204ZM50.732 321V323.988H30.536L32.66 321.828V348H29.276V321H50.732ZM53.3226 327.732H56.6346L57.7866 334.644V348H54.4746V334.032L53.3226 327.732ZM68.5506 327.66V330.648C68.0946 330.504 67.5546 330.396 66.9306 330.324C66.3306 330.252 65.7546 330.216 65.2026 330.216C63.7626 330.216 62.4786 330.54 61.3506 331.188C60.2226 331.836 59.3466 332.784 58.7226 334.032C58.0986 335.256 57.7866 336.708 57.7866 338.388L56.8506 337.092C56.8986 335.676 57.1266 334.368 57.5346 333.168C57.9426 331.968 58.5186 330.936 59.2626 330.072C60.0306 329.184 60.9426 328.5 61.9986 328.02C63.0786 327.516 64.2906 327.264 65.6346 327.264C66.1386 327.264 66.6546 327.3 67.1826 327.372C67.7346 327.444 68.1906 327.54 68.5506 327.66ZM81.3711 348.468C78.9951 348.468 76.8951 348.024 75.0711 347.136C73.2711 346.248 71.8671 345 70.8591 343.392C69.8511 341.784 69.3471 339.936 69.3471 337.848C69.3471 335.736 69.8511 333.888 70.8591 332.304C71.8671 330.72 73.2711 329.484 75.0711 328.596C76.8951 327.708 78.9951 327.264 81.3711 327.264C83.7711 327.264 85.8711 327.708 87.6711 328.596C89.4711 329.484 90.8751 330.72 91.8831 332.304C92.9151 333.888 93.4311 335.736 93.4311 337.848C93.4311 339.936 92.9151 341.784 91.8831 343.392C90.8751 345 89.4711 346.248 87.6711 347.136C85.8711 348.024 83.7711 348.468 81.3711 348.468ZM81.3711 345.696C83.1471 345.696 84.6831 345.384 85.9791 344.76C87.2751 344.112 88.2711 343.2 88.9671 342.024C89.6871 340.848 90.0471 339.456 90.0471 337.848C90.0471 336.264 89.6871 334.884 88.9671 333.708C88.2711 332.532 87.2751 331.62 85.9791 330.972C84.6831 330.324 83.1471 330 81.3711 330C79.6191 330 78.0831 330.324 76.7631 330.972C75.4671 331.62 74.4711 332.532 73.7751 333.708C73.0791 334.884 72.7311 336.264 72.7311 337.848C72.7311 339.456 73.0791 340.848 73.7751 342.024C74.4711 343.2 75.4671 344.112 76.7631 344.76C78.0831 345.384 79.6191 345.696 81.3711 345.696ZM96.6351 327.732H99.9471L101.099 334.608V348H97.7871V334.14L96.6351 327.732ZM109.487 327.264C111.383 327.264 112.991 327.648 114.311 328.416C115.631 329.16 116.639 330.252 117.335 331.692C118.031 333.108 118.379 334.824 118.379 336.84V348H115.067V337.416C115.067 334.992 114.503 333.168 113.375 331.944C112.271 330.696 110.651 330.072 108.515 330.072C107.027 330.072 105.719 330.408 104.591 331.08C103.487 331.752 102.623 332.688 101.999 333.888C101.399 335.064 101.099 336.444 101.099 338.028L99.7671 337.092C99.9351 335.076 100.451 333.336 101.315 331.872C102.179 330.408 103.307 329.28 104.699 328.488C106.115 327.672 107.711 327.264 109.487 327.264ZM120.539 330.396V328.812L125.003 327.984L126.335 322.476H128.315V327.732H138.179V330.396H128.315V340.692C128.315 342.516 128.711 343.8 129.503 344.544C130.319 345.264 131.567 345.624 133.247 345.624C134.351 345.624 135.311 345.492 136.127 345.228C136.967 344.964 137.783 344.58 138.575 344.076V346.992C137.999 347.352 137.147 347.688 136.019 348C134.915 348.312 133.763 348.468 132.563 348.468C130.739 348.468 129.263 348.156 128.135 347.532C127.031 346.884 126.227 346.02 125.723 344.94C125.243 343.836 125.003 342.588 125.003 341.196V330.396H120.539ZM152.103 348.468C149.775 348.468 147.711 348.024 145.911 347.136C144.135 346.224 142.731 344.976 141.699 343.392C140.691 341.784 140.187 339.936 140.187 337.848C140.187 335.736 140.667 333.888 141.627 332.304C142.587 330.72 143.919 329.484 145.623 328.596C147.327 327.708 149.283 327.264 151.491 327.264C153.675 327.264 155.583 327.744 157.215 328.704C158.847 329.664 160.107 331.02 160.995 332.772C161.907 334.5 162.363 336.516 162.363 338.82H142.707V336.192H160.959L159.015 337.38C158.943 335.868 158.583 334.56 157.935 333.456C157.287 332.352 156.411 331.5 155.307 330.9C154.203 330.3 152.919 330 151.455 330C149.871 330 148.491 330.324 147.315 330.972C146.139 331.596 145.215 332.484 144.543 333.636C143.895 334.788 143.571 336.144 143.571 337.704C143.571 339.336 143.943 340.752 144.687 341.952C145.431 343.152 146.475 344.076 147.819 344.724C149.163 345.372 150.747 345.696 152.571 345.696C154.227 345.696 155.847 345.42 157.431 344.868C159.039 344.316 160.479 343.56 161.751 342.6V345.192C160.503 346.2 159.015 347.004 157.287 347.604C155.559 348.18 153.831 348.468 152.103 348.468ZM165.541 327.732H168.853L170.005 334.608V348H166.693V334.14L165.541 327.732ZM178.393 327.264C180.289 327.264 181.897 327.648 183.217 328.416C184.537 329.16 185.545 330.252 186.241 331.692C186.937 333.108 187.285 334.824 187.285 336.84V348H183.973V337.416C183.973 334.992 183.409 333.168 182.281 331.944C181.177 330.696 179.557 330.072 177.421 330.072C175.933 330.072 174.625 330.408 173.497 331.08C172.393 331.752 171.529 332.688 170.905 333.888C170.305 335.064 170.005 336.444 170.005 338.028L168.673 337.092C168.841 335.076 169.357 333.336 170.221 331.872C171.085 330.408 172.213 329.28 173.605 328.488C175.021 327.672 176.617 327.264 178.393 327.264ZM211.648 348L210.928 340.26L211.9 337.884L211 335.328L212.404 320.28H215.788L214.096 337.704L215.032 348H211.648ZM212.908 337.848C212.38 339.96 211.564 341.82 210.46 343.428C209.38 345.012 208.06 346.248 206.5 347.136C204.964 348.024 203.26 348.468 201.388 348.468C199.396 348.468 197.632 348.024 196.096 347.136C194.56 346.224 193.348 344.976 192.46 343.392C191.596 341.784 191.164 339.936 191.164 337.848C191.164 335.736 191.596 333.888 192.46 332.304C193.348 330.72 194.56 329.484 196.096 328.596C197.632 327.708 199.396 327.264 201.388 327.264C203.26 327.264 204.964 327.708 206.5 328.596C208.06 329.484 209.392 330.72 210.496 332.304C211.6 333.888 212.404 335.736 212.908 337.848ZM194.548 337.848C194.548 339.384 194.86 340.74 195.484 341.916C196.132 343.092 197.008 344.016 198.112 344.688C199.24 345.336 200.512 345.66 201.928 345.66C203.368 345.66 204.688 345.336 205.888 344.688C207.112 344.016 208.192 343.092 209.128 341.916C210.088 340.74 210.868 339.384 211.468 337.848C210.868 336.312 210.088 334.956 209.128 333.78C208.192 332.604 207.112 331.692 205.888 331.044C204.688 330.372 203.368 330.036 201.928 330.036C200.512 330.036 199.24 330.372 198.112 331.044C197.008 331.692 196.132 332.604 195.484 333.78C194.86 334.956 194.548 336.312 194.548 337.848Z" fill="black"/>
</svg>
