<svg width="794" height="270" viewBox="0 0 794 270" fill="none" xmlns="http://www.w3.org/2000/svg">
    <rect width="794" height="270" rx="34" fill="#D3D6E6"/>
    <path d="M150 8C67 8 15 83 0 98V270H912.908C809.852 270 728.879 96.4999 623.923 96.4999C518.967 96.4999 465.114 152.5 382.496 152.5C299.878 152.5 243.5 8 150 8Z" fill="#E4E6F2"/>
    <path d="M117.993 82C56.3569 82 13.1788 163.81 0 174.5V302H791.147C728.009 302 626.666 174.5 562.364 174.5C498.061 174.5 493.605 199 389.194 199C284.783 199 195.038 82 117.993 82Z" fill="#F5F6FA"/>
</svg>
