<svg width="60" height="60" viewBox="0 0 60 60" fill="none" xmlns="http://www.w3.org/2000/svg">
    <rect x="0.5" y="0.5" width="59" height="59" rx="14.5" stroke="#1E1F26"/>
    <path d="M42.25 25.4502L39.3333 27.0544L36.4166 29.8252V39.3335H40.5C41.4665 39.3335 42.25 38.5501 42.25 37.5835V25.4502Z" fill="#1E1F26"/>
    <path d="M17.75 25.4502L19.8582 26.4477L23.5833 29.8252V39.3335H19.5C18.5334 39.3335 17.75 38.5501 17.75 37.5835V25.4502Z" fill="#1E1F26"/>
    <path d="M36.4167 22.5332L30 27.3457L23.5833 22.5332L23 25.9165L23.5833 29.8249L30 34.6374L36.4167 29.8249L37 25.9165L36.4167 22.5332Z" fill="#1E1F26"/>
    <path d="M17.75 23.1737V25.4498L23.5833 29.8248V22.5332L21.761 21.1676C21.327 20.8421 20.7997 20.6665 20.2572 20.6665C18.8723 20.6665 17.75 21.7888 17.75 23.1737Z" fill="#1E1F26"/>
    <path d="M42.25 23.1737V25.4498L36.4166 29.8248V22.5332L38.239 21.1676C38.673 20.8421 39.2003 20.6665 39.7428 20.6665C41.1276 20.6665 42.25 21.7888 42.25 23.1737Z" fill="#1E1F26"/>
</svg>
