<svg width="60" height="60" viewBox="0 0 60 60" fill="none" xmlns="http://www.w3.org/2000/svg">
    <rect x="0.5" y="0.5" width="59" height="59" rx="14.5" stroke="#1E1F26"/>
    <path d="M40.0001 34.9201V37.9201C40.0012 38.1986 39.9441 38.4743 39.8326 38.7294C39.721 38.9846 39.5574 39.2137 39.3521 39.402C39.1469 39.5902 38.9046 39.7336 38.6408 39.8228C38.377 39.912 38.0974 39.9452 37.8201 39.9201C34.7429 39.5857 31.7871 38.5342 29.1901 36.8501C26.7739 35.3148 24.7254 33.2663 23.1901 30.8501C21.5 28.2413 20.4483 25.2711 20.1201 22.1801C20.0951 21.9036 20.1279 21.6249 20.2166 21.3617C20.3052 21.0986 20.4476 20.8568 20.6348 20.6517C20.822 20.4466 21.0499 20.2828 21.3038 20.1706C21.5578 20.0584 21.8324 20.0004 22.1101 20.0001H25.1101C25.5954 19.9953 26.0658 20.1672 26.4338 20.4836C26.8018 20.8001 27.0421 21.2395 27.1101 21.7201C27.2367 22.6802 27.4715 23.6228 27.8101 24.5301C27.9446 24.888 27.9737 25.277 27.894 25.651C27.8142 26.0249 27.6289 26.3682 27.3601 26.6401L26.0901 27.9101C27.5136 30.4136 29.5865 32.4865 32.0901 33.9101L33.3601 32.6401C33.6319 32.3712 33.9752 32.1859 34.3492 32.1062C34.7231 32.0264 35.1121 32.0556 35.4701 32.1901C36.3773 32.5286 37.32 32.7635 38.2801 32.8901C38.7658 32.9586 39.2095 33.2033 39.5266 33.5776C39.8437 33.9519 40.0122 34.4297 40.0001 34.9201Z" stroke="#1E1F26" stroke-width="2" stroke-linecap="round" stroke-linejoin="round"/>
</svg>
