<svg width="60" height="60" viewBox="0 0 60 60" fill="none" xmlns="http://www.w3.org/2000/svg">
    <rect x="0.5" y="0.5" width="59" height="59" rx="14.5" stroke="#1E1F26"/>
    <g clip-path="url(#clip0_206_510)">
        <path d="M38.6004 19.0018C38.2835 19.0158 37.9882 19.1081 37.7283 19.2132C37.4848 19.3112 36.5544 19.7102 35.0889 20.3387C33.6222 20.9677 31.6801 21.8015 29.6083 22.6924C25.4649 24.4742 20.8066 26.4799 18.4206 27.5064C18.3309 27.545 18.0178 27.645 17.6855 27.9044C17.3533 28.1638 17 28.7013 17 29.3003C17 29.7832 17.2302 30.263 17.5199 30.5495C17.8096 30.836 18.1161 30.9775 18.3787 31.0846C19.3314 31.4734 22.2863 32.6825 22.8443 32.9108C23.0407 33.5124 24.1102 36.784 24.3582 37.5859C24.5217 38.115 24.6773 38.4464 24.88 38.7094C24.9813 38.8409 25.0991 38.9562 25.2418 39.0465C25.2988 39.0826 25.3614 39.1104 25.4246 39.136L25.4284 39.1379C25.443 39.1437 25.4555 39.1537 25.4703 39.1588C25.4982 39.1686 25.5168 39.1697 25.5541 39.1779C25.7026 39.2258 25.8526 39.2559 25.9864 39.2559C26.5569 39.2559 26.9062 38.9417 26.9062 38.9417L26.9271 38.9265L29.8616 36.3881L33.4207 39.7549C33.4709 39.8257 33.9382 40.4671 34.9689 40.4671C35.5809 40.4671 36.0664 40.16 36.3781 39.8329C36.6898 39.5059 36.884 39.1623 36.9666 38.7304V38.7285C37.0438 38.3203 40.3238 21.4812 40.3238 21.4812L40.3181 21.5041C40.4141 21.0658 40.4393 20.6577 40.3333 20.2549C40.2274 19.8521 39.9482 19.4664 39.6021 19.2589C39.256 19.0514 38.9174 18.9879 38.6004 19.0018ZM38.4176 21.0394C38.4129 21.0679 38.4211 21.0536 38.4138 21.087L38.4119 21.0985L38.41 21.1099C38.41 21.1099 35.1706 37.7335 35.0508 38.3666C35.0596 38.3188 35.0195 38.4139 34.9785 38.4714C34.9204 38.4314 34.8014 38.38 34.8014 38.38L34.7823 38.359L29.9207 33.7601L26.4834 36.7308L27.506 32.6366C27.506 32.6366 33.8983 26.0196 34.2834 25.6345C34.5934 25.3264 34.6585 25.219 34.6585 25.1127C34.6585 24.9704 34.5844 24.8671 34.4186 24.8671C34.2694 24.8671 34.0688 25.0121 33.9616 25.0804C32.5643 25.9711 26.43 29.5462 23.6803 31.1455C23.2433 30.9667 20.2074 29.724 19.1785 29.3041C19.1863 29.3007 19.1837 29.3019 19.1918 29.2984C21.5785 28.2716 26.2348 26.2659 30.3777 24.4843C32.4491 23.5935 34.3927 22.7591 35.8582 22.1306C37.3012 21.5118 38.3039 21.0859 38.4176 21.0394Z" fill="#1E1F26"/>
    </g>
    <defs>
        <clipPath id="clip0_206_510">
            <rect width="30" height="30" fill="white" transform="translate(12 15)"/>
        </clipPath>
    </defs>
</svg>
