<svg width="60" height="60" viewBox="0 0 60 60" fill="none" xmlns="http://www.w3.org/2000/svg">
    <rect x="0.5" y="0.5" width="59" height="59" rx="14.5" stroke="#1E1F26"/>
    <path d="M32.8716 29.7657C32.4028 29.5895 32.4028 28.9164 32.3738 28.4476C32.2566 26.7779 32.8425 24.2289 32.1394 23.1451C31.6416 22.5001 29.2388 22.5592 27.7744 22.6473C27.3638 22.7064 26.866 22.7936 26.5144 22.9698C26.1628 23.1461 25.8113 23.4386 25.8113 23.702C25.8113 24.0826 26.6906 24.0245 27.0122 24.5223C27.3638 25.0501 27.3638 26.192 27.3638 27.1295C27.3638 28.2132 27.1875 29.6495 26.7488 29.7076C26.0747 29.7367 25.6941 29.0626 25.3425 28.5648C24.6394 27.5982 23.9363 26.3964 23.4085 25.2245C23.145 24.6095 22.9978 23.9354 22.6172 23.672C22.0313 23.2614 20.9766 23.2323 19.951 23.2614C19.0135 23.2904 17.6653 23.1732 17.4019 23.7301C17.1966 24.3451 17.6363 24.9311 17.8706 25.4298C19.0716 28.037 20.3606 30.3226 21.9431 32.4901C23.4085 34.5114 24.7847 36.1229 27.48 36.9723C28.2422 37.2067 31.5816 37.8807 32.2556 36.9723C32.49 36.6207 32.4319 35.8295 32.5491 35.2436C32.6663 34.6576 32.8125 34.0717 33.3694 34.0426C33.8381 34.0136 34.1016 34.4232 34.395 34.7167C34.7175 35.0392 34.981 35.3026 35.2153 35.5961C35.7722 36.1529 36.3581 36.9142 37.0613 37.2076C38.0278 37.6182 39.5222 37.5011 40.9285 37.442C42.0713 37.4129 42.8916 37.1786 42.9797 36.5045C43.0388 35.9767 42.4519 35.2154 42.1003 34.7757C41.221 33.692 40.8113 33.3695 39.8147 32.3729C39.375 31.9332 38.8181 31.4645 38.8181 30.9376C38.7891 30.6151 39.0525 30.3226 39.2869 30.0001C40.3125 28.4767 41.3381 27.3929 42.2756 25.8104C42.5391 25.3417 43.155 24.2579 42.9206 23.7301C42.6572 23.1442 41.1919 23.3195 40.2835 23.3195C39.1116 23.3195 37.5881 23.2314 37.2947 23.4657C36.7378 23.8464 36.5035 24.4623 36.24 25.0482C35.6541 26.3964 34.8628 27.7726 34.0425 28.7982C33.7491 29.1498 33.1931 29.882 32.8706 29.7648L32.8716 29.7657Z" fill="#1E1F26"/>
</svg>
