<svg width="205" height="254" viewBox="0 0 205 254" fill="none" xmlns="http://www.w3.org/2000/svg">
    <path d="M151.362 -47.378C155.014 -47.378 157.975 -50.3428 157.975 -54L205 -54C205 -24.336 180.985 -0.288591 151.362 -0.288592L53.6381 -0.288596C49.9861 -0.288597 47.0251 2.67613 47.0251 6.33329C47.0251 9.99057 49.9861 12.9553 53.6381 12.9553L151.362 12.9553C180.985 12.9553 205 37.0027 205 66.6671C205 96.3307 180.985 120.378 151.362 120.378L53.638 120.378C49.9861 120.378 47.0251 123.343 47.0251 127C47.0251 130.657 49.9861 133.622 53.638 133.622L151.362 133.622C180.985 133.622 205 157.669 205 187.333C205 216.998 180.985 241.045 151.362 241.045L53.638 241.045C49.9861 241.045 47.0251 244.009 47.0251 247.667C47.0251 251.324 49.9861 254.289 53.638 254.289L151.362 254.289C180.985 254.289 205 278.336 205 308L157.975 308C157.975 304.343 155.014 301.378 151.362 301.378L53.638 301.378C24.0149 301.378 -4.58856e-06 277.331 -3.29192e-06 247.667C-1.99522e-06 218.002 24.0149 193.955 53.638 193.955L151.362 193.955C155.014 193.955 157.975 190.991 157.975 187.333C157.975 183.676 155.014 180.711 151.362 180.711L53.638 180.711C24.0149 180.711 6.85973e-07 156.664 1.98261e-06 127C3.27925e-06 97.3364 24.0149 73.2893 53.6381 73.2893L151.362 73.2893C155.014 73.2893 157.975 70.3239 157.975 66.6671C157.975 63.009 155.014 60.045 151.362 60.045L53.6381 60.045C24.0149 60.045 5.96046e-06 35.9973 7.25712e-06 6.33328C8.55377e-06 -23.3307 24.0149 -47.378 53.6381 -47.378L151.362 -47.378Z" fill="#88A7D4"/>
</svg>
