<svg width="385" height="383" viewBox="0 0 385 383" fill="none" xmlns="http://www.w3.org/2000/svg">
    <path fill-rule="evenodd" clip-rule="evenodd" d="M213.833 1.10579C252.189 6.34152 279.031 41.7325 273.787 80.1539C268.542 118.575 233.197 145.477 194.84 140.242C156.484 135.006 129.641 99.6152 134.886 61.1939C140.131 22.7725 175.476 -4.12995 213.833 1.10579ZM49.0397 342.54C21.0912 315.722 20.1508 271.277 46.9392 243.27C73.7274 215.264 118.1 214.302 146.048 241.122C173.997 267.94 174.937 312.386 148.15 340.392C121.361 368.398 76.9879 369.36 49.0397 342.54ZM309.943 279.171C328.246 313.332 315.429 355.899 281.315 374.246C247.201 392.594 204.709 379.775 186.408 345.614C168.105 311.453 180.922 268.886 215.036 250.539C249.15 232.191 291.642 245.009 309.943 279.171ZM7.3869 111.827C24.2275 76.9044 66.1378 62.2551 100.996 79.1074C135.855 95.9597 150.461 137.932 133.621 172.855C116.78 207.777 74.8694 222.427 40.011 205.574C5.15251 188.722 -9.45388 146.751 7.3869 111.827ZM301.589 106.488C339.689 99.5951 376.14 124.941 383.005 163.099C389.869 201.259 364.549 237.78 326.449 244.673C288.349 251.567 251.898 226.221 245.033 188.063C238.168 149.904 263.489 113.382 301.589 106.488Z" fill="#E4E6F2"/>
</svg>
