<svg width="387" height="376" viewBox="0 0 387 376" fill="none" xmlns="http://www.w3.org/2000/svg">
    <path fill-rule="evenodd" clip-rule="evenodd" d="M314.216 17.1488C345.135 40.4434 351.284 84.4345 327.95 115.406C304.617 146.378 260.636 152.601 229.717 129.307C198.797 106.012 192.648 62.0213 215.982 31.0497C239.316 0.0781224 283.296 -6.14579 314.216 17.1488ZM3.71169 234.683C-7.58785 197.634 13.2889 158.386 50.3404 147.021C87.3918 135.656 126.587 156.479 137.886 193.53C149.185 230.579 128.308 269.827 91.2576 281.193C54.2057 292.557 15.0102 271.734 3.71169 234.683ZM262.349 306.747C261.646 345.496 229.679 376.389 190.95 375.747C152.22 375.107 121.393 343.175 122.098 304.427C122.801 265.678 154.768 234.785 193.497 235.427C232.227 236.067 263.053 267.999 262.349 306.747ZM79.9901 12.9963C111.736 -9.26069 155.465 -1.58578 177.66 30.1393C199.855 61.8643 192.113 105.626 160.367 127.883C128.621 150.14 84.8919 142.465 62.6965 110.74C40.5011 79.0151 48.2431 35.2545 79.9901 12.9963ZM339.358 151.962C375.975 164.546 395.414 204.46 382.777 241.114C370.139 277.769 330.211 297.281 293.595 284.698C256.978 272.114 237.54 232.199 250.177 195.546C262.814 158.892 302.742 139.378 339.358 151.962Z" fill="white"/>
</svg>
