<svg width="532" height="254" viewBox="0 0 532 254" fill="none" xmlns="http://www.w3.org/2000/svg">
    <g clip-path="url(#clip0_215_292)">
        <rect width="532" height="254" rx="36" fill="#F5F6FA"/>
        <path fill-rule="evenodd" clip-rule="evenodd" d="M236.832 153.106C275.189 158.342 302.031 193.733 296.787 232.154C291.542 270.575 256.197 297.477 217.84 292.242C179.483 287.006 152.641 251.615 157.886 213.194C163.13 174.772 198.475 147.87 236.832 153.106ZM72.0394 494.54C44.0909 467.722 43.1505 423.277 69.9389 395.27C96.7271 367.264 141.1 366.302 169.048 393.122C196.997 419.94 197.937 464.386 171.149 492.392C144.361 520.398 99.9876 521.36 72.0394 494.54ZM332.943 431.171C351.246 465.332 338.429 507.899 304.315 526.246C270.201 544.594 227.709 531.775 209.407 497.614C191.105 463.453 203.922 420.886 238.035 402.539C272.149 384.191 314.642 397.009 332.943 431.171ZM30.3867 263.827C47.2272 228.904 89.1376 214.255 123.996 231.107C158.855 247.96 173.461 289.932 156.62 324.855C139.78 359.777 97.8692 374.427 63.0108 357.574C28.1523 340.722 13.5459 298.751 30.3867 263.827ZM324.588 258.488C362.689 251.595 399.139 276.941 406.004 315.099C412.869 353.259 387.548 389.78 349.449 396.673C311.348 403.567 274.898 378.221 268.033 340.063C261.168 301.904 286.489 265.382 324.588 258.488Z" fill="#E4E6F2"/>
        <path fill-rule="evenodd" clip-rule="evenodd" d="M586.061 -194.958C616.98 -171.663 623.129 -127.672 599.795 -96.7004C576.461 -65.7288 532.481 -59.5051 501.561 -82.7997C470.642 -106.094 464.493 -150.085 487.827 -181.057C511.16 -212.028 555.141 -218.252 586.061 -194.958ZM275.556 22.577C264.257 -14.4725 285.134 -53.7207 322.185 -65.0853C359.237 -76.45 398.432 -55.6274 409.73 -18.5767C421.03 18.4729 400.153 57.7209 363.102 69.0861C326.05 80.4504 286.855 59.6276 275.556 22.577ZM534.194 94.6406C533.49 133.39 501.524 164.283 462.795 163.641C424.065 163 393.238 131.069 393.942 92.3207C394.646 53.5716 426.612 22.6785 465.341 23.3203C504.071 23.9609 534.898 55.8923 534.194 94.6406ZM351.835 -199.11C383.581 -221.367 427.309 -213.692 449.505 -181.967C471.7 -150.242 463.957 -106.48 432.211 -84.2233C400.465 -61.9663 356.737 -69.6413 334.541 -101.366C312.346 -133.091 320.088 -176.852 351.835 -199.11ZM611.203 -60.1448C647.82 -47.5607 667.258 -7.64626 654.622 29.0075C641.984 65.6623 602.056 85.1746 565.44 72.5914C528.823 60.0074 509.385 20.0929 522.022 -16.5608C534.658 -53.2145 574.587 -72.728 611.203 -60.1448Z" fill="white"/>
        <path fill-rule="evenodd" clip-rule="evenodd" d="M356.969 153.432L317.079 154.097L316.176 103.172L356.066 102.467L335.525 68.2427L379.163 42.0221L399.738 76.2259L419.088 41.3364L463.629 66.0414L444.313 100.95L484.204 100.285L485.107 151.21L445.217 151.916L465.758 186.14L422.12 212.36L401.545 178.156L382.195 213.046L337.654 188.341L356.969 153.432Z" fill="#A7A7E3"/>
    </g>
    <defs>
        <clipPath id="clip0_215_292">
            <rect width="532" height="254" rx="36" fill="white"/>
        </clipPath>
    </defs>
</svg>
