<svg width="685" height="685" viewBox="0 0 685 685" fill="none" xmlns="http://www.w3.org/2000/svg">
    <rect width="172" height="172" rx="86" fill="#090A0D"/>
    <path d="M54.0909 47C50.1732 47 47 50.1732 47 54.0909V117.909C47 121.827 50.1732 125 54.0909 125H117.909C121.827 125 125 121.827 125 117.909V54.0909C125 50.1732 121.827 47 117.909 47H54.0909ZM61.1818 68.245H75.2875C82.2685 68.245 87.0456 73.0205 87.0456 80.0724C87.0456 87.0038 82.0941 91.7544 75.0174 91.7544H67.4348V103.222H61.1818V68.245ZM67.4348 73.4801V86.5678H73.6186C78.0788 86.5678 80.6957 84.2419 80.6957 80.0724C80.6957 75.786 78.1457 73.4801 73.6394 73.4801H67.4348ZM100.916 76.1669C107.216 76.1669 111.172 78.9553 111.608 83.7772H105.964C105.528 81.9123 103.755 80.7234 100.944 80.7234C98.2064 80.7234 96.1447 82.0357 96.1447 83.9503C96.1447 85.4536 97.4048 86.3737 100.071 86.9764L104.745 88.0428C109.812 89.1809 112.162 91.3653 112.162 95.2653C112.162 100.36 107.483 103.755 100.867 103.755C94.2515 103.755 90.0825 100.89 89.6216 96.0685H95.563C96.1445 98.0327 98.0062 99.1985 101.013 99.1985C104.041 99.1985 106.151 97.8665 106.151 95.9023C106.151 94.3991 105.015 93.4503 102.495 92.8901L97.7928 91.8029C92.7015 90.64 90.3072 88.2889 90.3072 84.2896C90.3072 79.489 94.6617 76.1669 100.916 76.1669Z" fill="#D3D6E6"/>
    <rect x="171" width="172" height="172" rx="86" fill="#090A0D"/>
    <path d="M259.5 69.3333H239.5C229.835 69.3333 222 61.8714 222 52.6667C222 43.4619 229.835 36 239.5 36H259.5V69.3333Z" fill="#D3D6E6"/>
    <path d="M257 102.666H239.5C229.835 102.666 222 95.2044 222 85.9997C222 76.7949 229.835 69.333 239.5 69.333H257V102.666Z" fill="#D3D6E6"/>
    <path d="M239.5 136C229.835 136 222 128.538 222 119.334C222 110.129 229.835 102.667 239.5 102.667H257V119.334C257 128.538 249.165 136 239.5 136Z" fill="#D3D6E6"/>
    <path d="M274.5 69.3333H257V36H274.5C284.165 36 292 43.4619 292 52.6667C292 61.8714 284.165 69.3333 274.5 69.3333Z" fill="#D3D6E6"/>
    <path d="M274.5 102.666C284.165 102.666 292 95.2044 292 85.9997C292 76.7949 284.165 69.333 274.5 69.333C264.835 69.333 257 76.7949 257 85.9997C257 95.2044 264.835 102.666 274.5 102.666Z" fill="#D3D6E6"/>
    <rect x="342" width="172" height="172" rx="86" fill="#090A0D"/>
    <path d="M457.574 63.771C449.989 58.0899 428.727 39.8588 428.727 39.8588C426.365 37.8096 422.835 38.1129 420.84 40.5342C418.841 42.9555 419.136 46.5783 421.496 48.6274L433.644 59.1765H391.53C388.438 59.1765 385.933 61.7471 385.933 64.9197C385.933 68.0922 388.438 70.6628 391.53 70.6628H411.202L374.69 99.4177C372.238 101.35 371.775 104.954 373.657 107.47C374.759 108.945 376.42 109.716 378.101 109.716C379.29 109.716 380.488 109.33 381.507 108.529L403.886 90.9041C403.879 91.1706 403.843 91.4255 403.843 91.692C403.843 109.65 418.467 123.5 437.425 123.5C456.383 123.5 472.5 109.65 472.5 91.692C472.5 80.4837 466.252 70.2723 457.574 63.771Z" fill="#A1A4B2"/>
    <path d="M438.549 109.716C450.604 109.716 460.377 100.459 460.377 89.0406C460.377 77.6219 450.604 68.3652 438.549 68.3652C426.493 68.3652 416.72 77.6219 416.72 89.0406C416.72 100.459 426.493 109.716 438.549 109.716Z" fill="#D3D6E6"/>
    <path d="M438.544 100.526C445.345 100.526 450.858 95.3838 450.858 89.0401C450.858 82.6963 445.345 77.5537 438.544 77.5537C431.744 77.5537 426.231 82.6963 426.231 89.0401C426.231 95.3838 431.744 100.526 438.544 100.526Z" fill="#A1A4B2"/>
    <rect x="513" width="172" height="172" rx="86" fill="#090A0D"/>
    <path d="M567.091 48C563.173 48 560 51.0918 560 54.9091V117.091C560 120.908 563.173 124 567.091 124H630.909C634.827 124 638 120.908 638 117.091V54.9091C638 51.0918 634.827 48 630.909 48H567.091ZM615.522 66.1296C617.728 66.1296 619.234 67.4993 619.234 69.3683C619.234 71.2372 617.728 72.6069 615.522 72.6069C613.342 72.6069 611.818 71.2372 611.818 69.3683C611.818 67.4993 613.342 66.1296 615.522 66.1296ZM587.63 68.5653H594.658L607.088 102.645H600.378L597.421 93.9347H584.555L581.543 102.645H575.221L587.63 68.5653ZM590.801 75.0561L586.009 89.1104H595.967L591.217 75.0561H590.801ZM612.545 76.8104H618.528V102.645H612.545V76.8104Z" fill="#D3D6E6"/>
    <rect y="171" width="172" height="172" rx="86" fill="#090A0D"/>
    <rect x="47" y="218" width="78" height="78" rx="10" fill="#1E1F26"/>
    <path d="M98.694 276.157C99.9456 278.124 101.306 280.009 104.187 280.009C106.607 280.009 107.877 278.845 107.877 277.235C107.877 275.308 106.564 274.624 103.901 273.503L102.442 272.901C98.2291 271.172 95.4273 269.005 95.4273 264.429C95.4273 260.211 98.7645 257.002 103.979 257.002C107.693 257.002 110.361 258.246 112.285 261.504L107.738 264.317C106.738 262.588 105.656 261.907 103.979 261.907C102.268 261.907 101.185 262.952 101.185 264.317C101.185 266.004 102.27 266.686 104.775 267.731L106.235 268.333C111.2 270.379 114 272.468 114 277.165C114 282.226 109.869 285 104.323 285C98.8984 285 95.818 282.366 94.1032 279.106L98.694 276.157ZM77.7372 276.301C78.6525 277.886 80.0435 279.106 82.044 279.106C83.9577 279.106 85.0592 278.375 85.0592 275.531V257H91.088V276.427C91.088 282.319 87.5554 285 82.3967 285C77.7354 285 74.3711 281.944 73 279.106L77.7372 276.301Z" fill="#F5F6FA"/>
    <rect x="171" y="171" width="172" height="172" rx="86" fill="#090A0D"/>
    <path d="M256.996 267.197C262.528 267.197 267.012 262.632 267.012 257C267.012 251.368 262.528 246.803 256.996 246.803C251.465 246.803 246.98 251.368 246.98 257C246.98 262.632 251.465 267.197 256.996 267.197Z" fill="#D3D6E6"/>
    <path d="M295.043 240.184C293.11 239.469 291.089 238.753 288.981 238.127C289.508 235.98 289.947 233.834 290.299 231.776C292.144 219.97 290.123 211.651 284.5 208.431C282.831 207.447 280.986 207 278.877 207C272.727 207 264.907 211.651 257 219.433C249.093 211.651 241.273 207 235.123 207C233.014 207 231.169 207.447 229.5 208.431C223.877 211.741 221.856 220.059 223.701 231.776C224.053 233.834 224.492 235.98 225.019 238.127C222.911 238.753 220.89 239.379 218.957 240.184C207.974 244.478 202 250.381 202 257C202 263.619 208.062 269.522 218.957 273.816C220.89 274.531 222.911 275.247 225.019 275.873C224.492 278.02 224.053 280.166 223.701 282.224C221.856 294.03 223.877 302.349 229.5 305.569C231.169 306.553 233.014 307 235.123 307C241.361 307 249.181 302.349 257 294.567C264.907 302.349 272.727 307 278.877 307C280.986 307 282.831 306.553 284.5 305.569C290.123 302.259 292.144 293.941 290.299 282.224C289.947 280.166 289.508 278.02 288.981 275.873C291.089 275.247 293.11 274.621 295.043 273.816C306.026 269.522 312 263.619 312 257C312 250.381 306.026 244.478 295.043 240.184ZM282.04 212.903C285.642 215.05 286.872 221.669 285.379 231.061C285.115 232.939 284.676 234.907 284.149 236.964C279.58 235.891 274.748 235.175 269.652 234.728C266.665 230.435 263.589 226.589 260.514 223.1C267.016 216.571 273.605 212.098 278.965 212.098C280.107 212.098 281.161 212.367 282.04 212.903ZM272.2 265.945C270.618 268.807 268.773 271.669 266.84 274.531C263.589 274.8 260.339 274.889 257 274.889C253.573 274.889 250.323 274.8 247.16 274.531C245.227 271.669 243.47 268.807 241.888 265.945C240.219 262.993 238.637 259.952 237.232 257C238.637 254.048 240.219 251.007 241.888 248.055C243.47 245.193 245.315 242.331 247.248 239.469C250.498 239.2 253.749 239.111 257.088 239.111C260.514 239.111 263.765 239.2 266.928 239.469C268.861 242.331 270.618 245.193 272.2 248.055C273.869 251.007 275.45 254.048 276.856 257C275.363 259.952 273.869 262.903 272.2 265.945ZM279.492 262.993C280.81 266.123 281.864 269.165 282.831 272.206C279.843 272.921 276.681 273.458 273.342 273.905C274.396 272.206 275.538 270.417 276.505 268.538C277.559 266.66 278.526 264.782 279.492 262.993ZM257 287.233C254.891 284.907 252.871 282.403 250.938 279.809C252.958 279.898 254.979 279.987 257 279.987C259.021 279.987 261.042 279.898 263.062 279.809C261.129 282.403 259.109 284.907 257 287.233ZM240.658 273.816C237.319 273.369 234.157 272.832 231.169 272.116C232.136 269.165 233.19 266.034 234.508 262.903C235.474 264.692 236.441 266.571 237.495 268.36C238.55 270.327 239.604 272.027 240.658 273.816ZM234.508 251.007C233.19 247.877 232.136 244.835 231.169 241.794C234.157 241.079 237.319 240.542 240.658 240.095C239.604 241.794 238.462 243.583 237.495 245.462C236.441 247.34 235.474 249.218 234.508 251.007ZM257 226.767C259.109 229.093 261.129 231.597 263.062 234.191C261.042 234.102 259.021 234.013 257 234.013C254.979 234.013 252.958 234.102 250.938 234.191C252.871 231.597 254.891 229.093 257 226.767ZM276.505 245.551L273.342 240.184C276.681 240.631 279.843 241.168 282.831 241.884C281.864 244.835 280.81 247.966 279.492 251.097C278.526 249.218 277.559 247.34 276.505 245.551ZM228.621 231.061C227.128 221.669 228.358 215.05 231.96 212.903C232.839 212.367 233.893 212.098 235.035 212.098C240.307 212.098 246.896 216.481 253.486 223.1C250.411 226.499 247.335 230.435 244.348 234.728C239.252 235.175 234.42 235.98 229.851 236.964C229.324 234.907 228.973 232.939 228.621 231.061ZM206.92 257C206.92 252.796 211.928 248.324 220.714 245.014C222.471 244.299 224.404 243.673 226.337 243.136C227.743 247.608 229.5 252.349 231.609 257.089C229.5 261.83 227.655 266.481 226.337 270.953C214.212 267.376 206.92 262.009 206.92 257ZM231.96 301.097C228.358 298.95 227.128 292.331 228.621 282.939C228.885 281.061 229.324 279.093 229.851 277.036C234.42 278.109 239.252 278.825 244.348 279.272C247.335 283.565 250.411 287.411 253.486 290.9C246.984 297.429 240.395 301.902 235.035 301.902C233.893 301.902 232.839 301.633 231.96 301.097ZM285.379 282.939C286.872 292.331 285.642 298.95 282.04 301.097C281.161 301.633 280.107 301.902 278.965 301.902C273.693 301.902 267.104 297.519 260.514 290.9C263.589 287.501 266.665 283.565 269.652 279.272C274.748 278.825 279.58 278.02 284.149 277.036C284.676 279.093 285.027 281.061 285.379 282.939ZM293.286 268.986C291.529 269.701 289.596 270.327 287.663 270.864C286.257 266.392 284.5 261.651 282.391 256.911C284.5 252.17 286.345 247.519 287.663 243.047C299.788 246.624 307.08 251.991 307.08 257C307.08 261.204 301.984 265.676 293.286 268.986Z" fill="#D3D6E6"/>
    <rect x="342" y="171" width="172" height="172" rx="86" fill="#090A0D"/>
    <path d="M427.639 207C402.253 207 403.838 218.067 403.838 218.067L403.867 229.532H428.092V232.974H394.244C394.244 232.974 378 231.122 378 256.871C378 282.62 392.178 281.707 392.178 281.707H400.64V269.759C400.64 269.759 400.184 255.506 414.592 255.506C429 255.506 438.619 255.506 438.619 255.506C438.619 255.506 452.119 255.725 452.119 242.391C452.119 229.056 452.119 220.342 452.119 220.342C452.119 220.342 454.168 207 427.639 207ZM414.281 214.71C416.691 214.71 418.639 216.668 418.639 219.091C418.639 221.514 416.691 223.472 414.281 223.472C411.871 223.472 409.923 221.514 409.923 219.091C409.923 216.668 411.871 214.71 414.281 214.71Z" fill="#D3D6E6"/>
    <path d="M428.361 307C453.747 307 452.162 295.933 452.162 295.933L452.133 284.468H427.908V281.026H461.755C461.755 281.026 478 282.878 478 257.129C478 231.379 463.821 232.293 463.821 232.293H455.36V244.241C455.36 244.241 455.816 258.494 441.407 258.494C426.999 258.494 417.38 258.494 417.38 258.494C417.38 258.494 403.881 258.275 403.881 271.609C403.881 284.944 403.881 293.657 403.881 293.657C403.881 293.657 401.831 307 428.361 307ZM441.719 299.29C439.309 299.29 437.36 297.332 437.36 294.909C437.36 292.486 439.309 290.528 441.719 290.528C444.129 290.528 446.077 292.486 446.077 294.909C446.077 297.332 444.129 299.29 441.719 299.29Z" fill="#D3D6E6"/>
    <rect x="513" y="171" width="172" height="172" rx="86" fill="#090A0D"/>
    <g clip-path="url(#clip0_320_52)">
        <path d="M593.385 306.677C591.898 306.499 590.339 306.27 589.921 306.167C589.306 306.022 588.687 305.891 588.066 305.777C587.356 305.639 586.651 305.474 585.954 305.282C582.716 304.354 582.484 304.278 580.042 303.28C577.796 302.364 573.658 300.225 572.242 299.252C571.855 298.983 571.492 298.767 571.437 298.767C571.382 298.767 570.476 298.129 569.423 297.35C562.727 292.395 557.701 286.379 554.069 278.97C553.444 277.697 552.934 276.568 552.934 276.462C552.934 276.357 552.821 276.067 552.684 275.824C552.4 275.317 551.996 274.224 551.67 273.095C551.53 272.616 551.367 272.143 551.182 271.679C551.03 271.32 550.907 270.882 550.907 270.706C550.907 270.528 550.755 269.952 550.569 269.421C550.383 268.893 550.233 268.271 550.233 268.038C550.233 267.806 550.087 267.006 549.906 266.26C549.467 264.416 549 259.64 549 256.963C549 254.29 549.467 249.514 549.906 247.671C550.086 246.924 550.233 246.109 550.233 245.859C550.233 245.608 550.346 245.117 550.483 244.765C550.623 244.415 550.803 243.786 550.886 243.368C550.972 242.95 551.167 242.23 551.326 241.763L551.787 240.414C552.125 239.404 552.439 238.549 552.589 238.217C552.675 238.031 553.01 237.271 553.337 236.529C553.865 235.33 554.997 233.068 555.659 231.885C555.9 231.451 555.991 231.307 557.298 229.266C559.367 226.025 562.904 221.993 566.196 219.119C567.356 218.106 571.232 215.163 571.406 215.163C571.455 215.163 571.82 214.944 572.221 214.675C573.273 213.971 574.305 213.372 575.651 212.698C576.134 212.459 576.612 212.211 577.085 211.953C577.308 211.825 577.726 211.633 579.872 210.672C580.345 210.461 580.854 210.269 582.322 209.756C582.645 209.643 583.295 209.405 583.759 209.231C584.227 209.057 584.776 208.913 584.98 208.913C585.182 208.913 585.713 208.773 586.159 208.599C586.604 208.425 587.413 208.227 587.959 208.16C588.502 208.096 589.225 207.943 589.564 207.824C589.9 207.708 590.822 207.558 591.612 207.492C592.641 207.399 593.668 207.277 594.691 207.128C596.791 206.821 601.356 206.821 603.434 207.128C604.416 207.269 605.401 207.385 606.388 207.476C607.133 207.538 608.082 207.693 608.5 207.821C608.918 207.946 609.641 208.103 610.105 208.16C610.57 208.221 611.351 208.413 611.841 208.59C612.334 208.77 612.891 208.913 613.084 208.913C613.276 208.913 613.673 209.021 613.963 209.155C614.255 209.286 614.875 209.506 615.342 209.643C615.806 209.784 616.602 210.061 617.116 210.266C617.625 210.47 618.309 210.738 618.635 210.86C619.237 211.087 623.682 213.311 624.287 213.69C629.194 216.75 631.718 218.749 635.112 222.256C639.204 226.485 641.92 230.513 644.685 236.443C644.88 236.862 645.179 237.481 645.35 237.817C645.518 238.156 645.659 238.553 645.659 238.699C645.659 238.848 645.799 239.293 645.973 239.691C646.443 240.771 646.845 242.001 647.035 242.941C647.129 243.402 647.303 243.972 647.422 244.207C647.541 244.442 647.681 245.038 647.737 245.526C647.791 246.013 647.953 246.813 648.091 247.299C648.888 250.057 649.284 258.185 648.802 261.779C648.659 262.847 648.497 264.138 648.442 264.648C648.35 265.521 647.889 267.776 647.495 269.292L647.089 270.898C646.323 273.989 644.431 278.393 642.121 282.467C641.205 284.085 638.136 288.458 637.556 288.97C637.504 289.016 637.245 289.322 636.982 289.645C636.72 289.971 635.877 290.884 635.115 291.671C631.755 295.141 629.045 297.286 624.287 300.241C623.723 300.592 618.938 302.929 618.043 303.292C617.579 303.478 616.804 303.792 616.322 303.988C615.843 304.181 615.309 304.342 615.141 304.345C614.973 304.348 614.53 304.498 614.158 304.678C613.786 304.857 613.313 305.007 613.102 305.01C612.895 305.013 612.288 305.16 611.753 305.337C611.22 305.517 610.477 305.71 610.105 305.767C609.733 305.825 608.937 305.984 608.332 306.118C607.728 306.253 605.902 306.515 604.28 306.701C600.66 307.123 597.003 307.115 593.385 306.677ZM597.059 296.911C597.294 296.728 597.535 296.364 597.599 296.109C597.74 295.544 620.438 250.038 620.866 249.468C621.226 248.986 621.259 248.214 620.93 247.942C620.756 247.796 618.583 247.75 612.781 247.76C608.43 247.769 604.771 247.772 604.652 247.769C604.475 247.763 604.438 244.855 604.456 232.4C604.469 223.949 604.429 216.958 604.368 216.861C604.307 216.763 604.069 216.684 603.837 216.684C603.51 216.684 603.358 216.824 603.157 217.315C602.778 218.228 601.731 220.299 596.635 230.194C595.577 232.247 594.521 234.302 593.467 236.358C592.564 238.125 591.139 240.899 590.305 242.522C588.062 246.884 585.823 251.248 583.588 255.615C579.734 263.143 579.268 264.041 579.102 264.239C578.782 264.627 578.608 265.521 578.788 265.856C578.952 266.164 579.28 266.177 587.416 266.164C592.066 266.159 595.902 266.183 595.942 266.219C596.049 266.329 596.009 295.367 595.899 296.06C595.827 296.514 595.875 296.755 596.083 296.963C596.442 297.323 596.541 297.32 597.059 296.911Z" fill="#D3D6E6"/>
    </g>
    <rect y="342" width="172" height="172" rx="86" fill="#090A0D"/>
    <path fill-rule="evenodd" clip-rule="evenodd" d="M95.8954 386.741C93.6329 386.348 91.1409 386.112 88.3882 386.069C83.0735 385.984 78.8324 387.202 75.4315 389.164C72.6739 388.263 67.6779 386.863 62.2377 386.459C56.2377 386.014 49.7819 386.838 44.8065 390.272C39.4639 393.96 35.4384 400.689 36.0642 412.821C36.3383 418.139 41.831 444.15 49.4757 454.128C52.4346 457.989 55.9275 459.75 59.2614 459.473C60.9583 459.332 62.773 458.683 64.5779 457.224C64.6824 457.35 64.7958 457.472 64.9159 457.593C66.0185 458.701 68.1239 459.753 69.894 460.182C72.4677 460.806 77.2436 461.526 81.9489 459.572C82.0436 461.002 82.1297 462.465 82.1748 463.556C82.3717 468.309 82.798 472.731 83.7967 475.346C84.5226 477.246 85.5994 480.787 88.5543 482.936C90.7454 484.529 93.957 485.634 98.9579 484.594C102.512 483.856 105.668 482.847 108.292 480.488C111.814 477.322 114.669 471.314 115.029 458.119L115.169 457.046L115.206 456.784L115.983 456.85C119.863 457.022 124.81 456.209 127.722 454.897C131.862 453.034 134.79 450.15 135.52 448.513C136.298 446.773 136.036 445.273 135.403 444.132C134.736 442.933 132.728 440.868 128.166 441.781C126.039 442.207 124.342 442.408 122.987 442.442C130.356 430.396 134.665 417.049 135.384 408.014C135.82 402.526 134.779 398.363 133.004 396.163C124.622 385.777 112.62 384.428 104.227 385.17C100.605 385.49 97.6521 386.216 95.8954 386.741ZM95.536 389.627C95.6588 389.566 95.8038 389.505 95.9735 389.449C98.857 388.499 118.796 383.057 130.651 397.746C132.129 399.579 132.789 403.084 132.425 407.657C131.664 417.223 126.696 431.784 118.273 444.221C118.435 444.344 118.651 444.477 118.923 444.587C120.447 445.198 123.31 445.455 128.669 444.382C129.873 444.141 130.732 444.151 131.288 444.278C132.08 444.458 132.531 444.869 132.782 445.321C133.117 445.926 133.146 446.844 132.446 447.867C131.579 449.135 129.314 450.919 126.426 452.22C123.222 453.662 117.231 454.349 113.868 453.657C113.583 453.599 113.315 453.528 113.064 453.446C112.536 458.146 111.413 466.918 110.768 470.544C110.164 473.94 109.117 476.388 107.314 478.206C105.521 480.013 102.951 481.222 99.1471 482.013C95.3887 482.794 92.7021 482.245 90.7427 481.172C87.819 479.571 86.4833 476.715 85.7212 474.868C84.7538 472.521 84.257 464.012 84.3217 454.584C79.423 458.912 73.3534 458.017 70.511 457.327C69.2386 457.018 67.7016 456.306 66.9092 455.51C66.3118 454.91 66.0507 454.233 66.0922 453.589C66.1306 452.999 66.4025 452.354 67.1837 451.78C67.8083 451.321 68.9239 450.842 70.7543 450.476C73.0413 450.019 74.2878 449.686 75.1324 449.219C75.6654 448.925 76.002 448.569 76.3962 448.102C76.8012 447.623 77.2436 447.048 77.865 446.334C77.8605 446.284 77.8565 446.234 77.8534 446.183C75.8074 446.134 73.8686 445.605 72.1364 444.701C70.9342 445.941 67.7043 449.323 64.211 453.399C62.4275 455.478 60.6288 456.403 58.9315 456.545C56.4275 456.753 53.931 455.219 51.7087 452.319C44.3507 442.715 39.1264 417.659 38.8625 412.54C38.3064 401.758 41.6475 395.681 46.3998 392.39C50.8315 389.319 56.6016 388.661 61.9453 389.041C68.2302 389.489 73.8873 391.345 75.8092 392.033C78.9628 389.943 83.0262 388.642 88.257 388.725C90.8784 388.767 93.3012 389.088 95.536 389.627ZM110.448 450.69C110.224 446.404 112.014 444.99 113.608 444.293C113.951 444.143 114.388 444 114.756 443.888C114.588 443.662 114.378 443.424 114.155 443.153C113.164 441.946 111.833 440.394 110.807 437.981C110.099 436.318 105.269 429.101 103.644 422.782C102.712 419.157 102.874 415.806 104.85 413.614C106.564 411.712 109.787 410.536 115.322 411.077C113.568 405.919 105.793 391.803 88.2096 391.524C77.7257 391.357 72.6748 397.634 70.2257 403.928L68.4529 413.748C69.9248 412.992 71.8119 412.238 73.7802 411.798C75.894 411.325 78.2806 411.173 80.3632 411.953C82.5565 412.775 84.1954 414.548 84.8387 417.433C86.3516 424.219 86.186 428.792 85.3744 432.259C84.9708 433.985 84.4154 435.4 83.8704 436.632C83.6596 437.107 83.4623 437.532 83.2775 437.93C82.9619 438.609 82.6829 439.209 82.4391 439.845C82.3654 440.038 82.2927 440.227 82.2212 440.412C81.7645 441.6 81.3637 442.643 81.0855 443.613C81.0422 443.763 81.0029 443.909 80.9677 444.05C81.1744 444 81.3744 443.969 81.5672 443.953C82.4534 443.878 83.2302 444.136 83.8873 444.4C85.1855 444.921 86.3476 446.174 86.9114 447.649C87.0663 448.054 87.1753 448.473 87.2346 448.894C87.282 449.04 87.3056 449.195 87.3012 449.356C86.9878 460.223 87.3043 471.169 88.4007 473.829C88.9855 475.247 89.9181 477.506 92.1614 478.735C93.6471 479.548 95.6931 479.868 98.5427 479.277C101.639 478.633 103.775 477.737 105.235 476.265C106.684 474.804 107.438 472.8 107.923 470.068C108.712 465.638 110.225 453.417 110.448 450.69ZM84.4078 449.583L84.4025 449.776C84.3802 450.075 84.2887 450.362 84.102 450.615C79.9761 456.217 73.8507 455.253 71.2114 454.612C70.6306 454.471 69.9569 454.216 69.4288 453.896C69.3877 453.871 69.3431 453.84 69.2985 453.807C69.3328 453.79 69.3677 453.774 69.402 453.76C69.8708 453.563 70.5056 453.383 71.3369 453.217C74.0761 452.67 75.5498 452.209 76.5619 451.65C78.0726 450.815 78.577 449.738 80.6226 447.522C81.0851 447.02 81.4556 446.771 81.8186 446.741C82.1918 446.709 82.5061 446.874 82.7828 446.985C83.4177 447.24 83.9297 447.9 84.2052 448.621C84.3235 448.931 84.4016 449.261 84.4078 449.583ZM73.2038 394.117C70.7181 393.327 66.411 392.165 61.7342 391.833C57.0476 391.499 51.9641 391.974 48.0775 394.667C43.9167 397.549 41.2579 402.96 41.7449 412.401C41.9984 417.32 46.9534 441.42 54.0248 450.65C55.515 452.594 57.0065 453.896 58.6851 453.756C59.7752 453.666 60.8467 452.945 61.9913 451.61C65.2717 447.783 68.3235 444.559 69.7315 443.096C66.1302 440.101 64.0069 435.251 64.744 430.013L64.7511 429.963C65.4498 425.12 65.198 420.941 65.0552 418.573C65.015 417.9 64.9828 417.373 64.9846 417.018C64.9744 416.51 64.894 409.703 67.5257 402.94C68.7543 399.783 70.5596 396.64 73.2038 394.117ZM116.335 446.358C116.949 446.837 117.865 447.301 119.233 447.599C121.182 448.023 124.295 448.115 129.253 447.122L129.316 447.111C128.371 447.971 126.913 448.915 125.211 449.681C123.636 450.39 121.276 450.873 119.006 451.059C117.324 451.196 115.69 451.171 114.467 450.92C114.163 450.857 113.889 450.781 113.654 450.686C113.544 450.642 113.401 450.554 113.328 450.507C113.249 448.921 113.507 447.967 114.013 447.39C114.42 446.927 114.96 446.76 115.414 446.628C115.751 446.53 116.065 446.446 116.335 446.358ZM77.0431 414.204C76.2266 414.207 75.344 414.32 74.4288 414.525C72.5962 414.935 70.8047 415.676 69.4793 416.391C68.8159 416.75 68.3052 417.083 67.9806 417.339C67.944 417.367 67.9114 417.394 67.8824 417.418C67.8927 417.615 67.9078 417.859 67.9257 418.145C68.0641 420.365 68.3619 425.132 67.6092 430.351C66.5788 437.498 71.9632 443.368 78.1641 443.387C78.2083 443.211 78.2552 443.037 78.3052 442.863C78.6194 441.768 79.0699 440.597 79.5221 439.422L79.7337 438.871C80.0083 438.155 80.3583 437.4 80.7034 436.654C80.8802 436.274 81.0552 435.896 81.2186 435.528C81.7244 434.385 82.2092 433.14 82.5601 431.64C83.2561 428.666 83.4614 424.537 82.0351 418.101L82.0181 418.025C81.5592 415.968 80.523 415.013 79.3235 414.564C78.6686 414.318 77.9096 414.205 77.0819 414.204H77.0431ZM116.576 441.611C124.268 429.864 128.836 416.392 129.548 407.442C129.839 403.782 129.562 400.938 128.378 399.471C119.866 388.924 106.733 389.918 100.339 391.217C110.967 395.758 116.27 405.317 117.933 409.859C118.469 411.321 118.615 412.373 118.569 412.751C118.558 412.835 118.544 412.914 118.526 412.988C118.648 416.432 117.711 418.871 117.588 422.614C117.496 425.356 118.178 428.297 118.333 431.337C118.494 434.497 118.125 437.749 116.086 441.013C116.199 441.15 116.307 441.281 116.412 441.409C116.468 441.477 116.523 441.544 116.576 441.611ZM115.653 413.927C113.408 413.655 111.597 413.67 110.153 413.938C108.719 414.204 107.694 414.712 107.023 415.456C105.597 417.038 105.771 419.487 106.444 422.105C108.03 428.269 112.784 435.291 113.474 436.914C113.713 437.474 113.971 437.98 114.239 438.441C115.681 435.481 115.603 432.536 115.31 429.711C115.051 427.219 114.627 424.805 114.703 422.524C114.814 419.167 115.615 416.885 115.653 413.927ZM75.6547 416.578H75.6141L75.5851 416.779C75.5574 416.967 75.6319 417.183 75.7355 417.377C75.844 417.58 76.0061 417.799 76.2078 418.004C76.6052 418.409 77.1819 418.788 77.8525 418.883L77.8681 418.885C78.5476 418.977 79.169 418.754 79.623 418.456C79.8507 418.306 80.0427 418.134 80.1842 417.963C80.3186 417.801 80.4253 417.619 80.4529 417.446L80.4538 417.438C80.4828 417.237 80.398 417.056 80.2753 416.912C80.1529 416.767 79.9775 416.64 79.7739 416.529C79.3659 416.308 78.7998 416.134 78.1708 416.049C77.5427 415.964 76.9489 415.981 76.4944 416.086C76.2677 416.138 76.0628 416.215 75.9047 416.321C75.8043 416.388 75.7141 416.474 75.6547 416.578ZM111.086 415.062C110.87 415.065 110.644 415.081 110.412 415.112L110.383 415.115C109.754 415.2 109.188 415.375 108.78 415.596C108.577 415.706 108.402 415.834 108.279 415.978C108.158 416.12 108.073 416.298 108.098 416.495L108.099 416.504C108.124 416.679 108.232 416.865 108.369 417.03C108.511 417.2 108.703 417.373 108.931 417.523C109.382 417.819 109.997 418.04 110.67 417.954L110.686 417.952C111.363 417.861 111.946 417.478 112.346 417.071C112.548 416.865 112.71 416.647 112.819 416.443C112.92 416.253 112.994 416.04 112.971 415.855L112.969 415.846L112.733 415.878L112.728 415.862L112.969 415.846L112.968 415.837C112.936 415.64 112.805 415.492 112.649 415.387C112.49 415.281 112.286 415.205 112.059 415.153C111.794 415.092 111.48 415.06 111.14 415.062L111.086 415.062ZM75.823 417.045V416.915C75.8279 416.954 75.8378 416.999 75.852 417.045H75.823ZM75.6547 416.578C75.6199 416.638 75.5953 416.706 75.5851 416.779L75.823 416.812L75.8235 416.578H75.6547ZM112.733 415.878L112.733 415.894L112.972 415.878L112.733 415.878ZM96.2195 389.476L96.1909 389.476C96.0659 389.475 95.9271 389.491 95.7753 389.533L95.74 389.542C96.0467 389.453 96.361 389.467 96.6418 389.564C96.532 389.519 96.4003 389.485 96.2476 389.477C96.2382 389.477 96.2293 389.477 96.2195 389.476Z" fill="#D3D6E6"/>
    <rect x="171" y="342" width="172" height="172" rx="86" fill="#090A0D"/>
    <path d="M307 417.75C307 469 257 484.5 257 484.5C257 484.5 207 469 207 417.75C207 411.5 207.556 406.25 208.111 402C208.944 395.75 213.667 390.75 220.333 389.25C228.944 387 242.556 384.5 257 384.5C271.444 384.5 284.611 388.25 293.5 390.5C300.167 392 303.667 396.5 304.5 402.5C304.778 406.75 307 411.75 307 417.75Z" fill="#A1A4B2"/>
    <path d="M257 392C270.611 392 283.389 394.5 291.722 396.5C295.056 397.25 297.278 399.75 297.833 403C298.389 407.75 298.667 412.75 298.667 417.75C298.667 456.75 266.722 472.5 257 476.25C247.278 472.25 215.333 456.5 215.333 417.75C215.333 412.75 215.611 407.75 216.167 403C216.444 399.75 218.944 397.25 222.278 396.5C230.611 394.5 243.389 392 257 392ZM257 384.5C242.556 384.5 228.944 387 220.056 389.25C213.667 390.75 208.667 396 208.111 402C207.556 406.25 207 411.75 207 417.75C207 469 257 484.5 257 484.5C257 484.5 307 469 307 417.75C307 411.5 306.444 406.25 305.889 402C305.056 395.75 300.333 390.75 293.667 389.25C285.056 387 271.444 384.5 257 384.5Z" fill="#1E1F26"/>
    <path d="M254.227 444.5H259.782V464.5H254.227V444.5Z" fill="#F5F6FA"/>
    <path d="M256.999 399.5C256.999 399.5 240.332 412 240.332 432C240.332 445 249.499 453.25 254.221 457L256.999 449.5L259.776 457C264.499 453.25 273.665 445 273.665 432C273.665 412 256.999 399.5 256.999 399.5Z" fill="#D3D6E6"/>
    <path d="M256.999 399.5C256.999 399.5 240.332 412 240.332 432C240.332 445 249.499 453.25 254.221 457L256.999 449.5V399.5Z" fill="#D3D6E6"/>
    <rect x="342" y="342" width="172" height="172" rx="86" fill="#090A0D"/>
    <path fill-rule="evenodd" clip-rule="evenodd" d="M394.832 389H461.168C464.389 389 467 391.611 467 394.832V461.168C467 464.389 464.389 467 461.168 467H394.832C391.611 467 389 464.389 389 461.168V394.832C389 391.611 391.611 389 394.832 389ZM433.636 455.822V447.285C435.213 448.583 436.925 449.557 438.774 450.206C440.622 450.856 442.488 451.18 444.373 451.18C445.478 451.18 446.443 451.082 447.268 450.886C448.092 450.691 448.78 450.419 449.333 450.073C449.886 449.726 450.298 449.317 450.57 448.846C450.841 448.375 450.977 447.863 450.977 447.312C450.977 446.565 450.76 445.898 450.326 445.31C449.89 444.724 449.297 444.181 448.545 443.683C447.793 443.185 446.901 442.705 445.867 442.243C444.835 441.78 443.72 441.308 442.524 440.829C439.48 439.583 437.211 438.063 435.716 436.267C434.22 434.47 433.474 432.3 433.474 429.757C433.474 427.764 433.881 426.053 434.696 424.621C435.512 423.189 436.622 422.011 438.026 421.086C439.431 420.161 441.057 419.481 442.905 419.045C444.754 418.609 446.71 418.392 448.776 418.392C450.806 418.392 452.604 418.511 454.171 418.751C455.739 418.992 457.184 419.361 458.507 419.859V427.836C457.854 427.391 457.143 427 456.373 426.662C455.603 426.324 454.81 426.044 453.995 425.822C453.18 425.599 452.369 425.435 451.562 425.328C450.756 425.221 449.99 425.168 449.266 425.168C448.269 425.168 447.363 425.261 446.548 425.448C445.731 425.635 445.043 425.897 444.482 426.235C443.919 426.573 443.485 426.978 443.177 427.449C442.869 427.92 442.715 428.45 442.715 429.036C442.715 429.677 442.887 430.25 443.231 430.757C443.576 431.264 444.065 431.744 444.699 432.198C445.334 432.651 446.103 433.096 447.01 433.531C447.916 433.968 448.939 434.417 450.081 434.879C451.639 435.519 453.039 436.199 454.28 436.92C455.521 437.641 456.586 438.454 457.474 439.361C458.362 440.269 459.042 441.304 459.512 442.469C459.983 443.635 460.219 444.991 460.219 446.538C460.219 448.672 459.807 450.465 458.983 451.913C458.158 453.363 457.039 454.537 455.625 455.435C454.212 456.333 452.568 456.978 450.692 457.369C448.817 457.761 446.837 457.957 444.754 457.957C442.615 457.957 440.581 457.779 438.651 457.423C436.721 457.067 435.05 456.534 433.636 455.822ZM430.327 426.039H419.151V457.339H410.297V426.039H399.176V419.01H430.327V426.039Z" fill="#D3D6E6"/>
    <rect x="513" y="342" width="172" height="172" rx="86" fill="#090A0D"/>
    <path d="M646.478 409.554C644.445 408.777 642.091 409.546 641.103 411.324C640.17 413.004 638.924 414.035 637.295 414.466C634.746 415.152 631.7 414.271 630.275 413.517C628.396 412.524 626.217 411.016 623.913 409.423C616.56 404.33 607.411 398 594.837 398C584.779 398 579.613 402.646 571.06 410.349C569.431 411.815 569.418 414.2 571.047 415.663C572.63 417.095 575.172 417.14 576.805 415.775C576.847 415.741 576.888 415.704 576.93 415.67C579.23 414.072 593.72 415.625 600.053 420.155C609.465 426.886 616.26 431.75 624.001 431.75C635.079 431.75 644.328 425.221 648.749 414.283C649.503 412.415 648.507 410.341 646.478 409.554ZM625.646 435.804C623.613 435.028 621.259 435.796 620.272 437.574C619.339 439.254 618.093 440.285 616.464 440.716C613.914 441.391 610.869 440.521 609.444 439.767C607.565 438.774 605.386 437.266 603.082 435.672C595.728 430.58 586.579 424.25 574.005 424.25C563.948 424.25 558.781 428.896 550.228 436.599C548.599 438.065 548.587 440.45 550.216 441.913C551.799 443.345 554.344 443.394 555.978 442.025C556.019 441.991 556.061 441.954 556.103 441.92C558.398 440.322 572.897 441.875 579.225 446.405C588.633 453.136 595.428 458 603.169 458C614.247 458 623.497 451.471 627.917 440.533C628.671 438.665 627.675 436.591 625.646 435.804Z" fill="#D3D6E6"/>
    <rect y="513" width="172" height="172" rx="86" fill="#090A0D"/>
    <path d="M56.0726 621.932C53.2272 621.932 50.6404 619.503 50.6404 616.536C50.6404 613.568 52.9686 611.14 56.0726 611.14C59.1765 611.14 61.5043 613.568 61.5043 616.536C61.5043 619.503 58.9179 621.932 56.0726 621.932ZM122.808 592.525C122.291 588.208 119.704 584.701 116.341 582.004L115.048 580.924L114.014 582.273C111.944 584.701 111.168 589.018 111.427 592.255C111.685 594.684 112.462 597.111 113.755 599C112.72 599.54 111.427 600.079 110.392 600.619C108.064 601.428 105.736 601.698 103.408 601.698H36.4139L36.1552 603.316C35.6379 608.442 36.4139 613.838 38.4832 618.694L39.5178 620.583V620.852C45.7258 631.644 56.8484 636.5 69.0056 636.5C92.2858 636.5 111.427 625.978 120.48 603.316C126.429 603.586 132.379 601.967 135.224 596.032L136 594.684L134.707 593.874C131.344 591.716 126.688 591.446 122.808 592.525ZM89.4404 588.208H79.3523V598.73H89.4404V588.208ZM89.4404 574.989H79.3523V585.511H89.4404V574.989ZM89.4404 561.5H79.3523V572.021H89.4404V561.5ZM101.856 588.208H91.7682V598.73H101.856V588.208ZM64.3497 588.208H54.262V598.73H64.3497V588.208ZM77.0245 588.208H66.9365V598.73H77.0245V588.208ZM51.9338 588.208H41.8458V598.73H51.9338V588.208ZM77.0245 574.989H66.9365V585.511H77.0245V574.989ZM64.3497 574.989H54.262V585.511H64.3497V574.989Z" fill="#D3D6E6"/>
    <rect x="171" y="513" width="172" height="172" rx="86" fill="#090A0D"/>
    <path d="M256.9 649L208.548 610.755C207.949 610.321 207.35 609.451 207.15 608.582C206.95 607.713 206.95 606.844 207.15 605.975L212.744 587.504L256.9 649ZM227.53 550.346L238.518 587.504H212.744L223.733 550.346C223.933 549.477 224.732 549.042 225.532 549.042C226.73 548.825 227.33 549.477 227.53 550.346ZM238.518 587.504H275.282L256.9 649L238.518 587.504ZM306.85 606.192C307.05 607.061 307.05 607.93 306.85 608.8C306.65 609.669 306.051 610.321 305.451 610.973L256.9 649L301.056 587.504L306.85 606.192ZM301.056 587.504H275.481L286.471 550.346C286.67 549.477 287.47 549.042 288.269 549.042C289.268 549.042 289.867 549.477 290.067 550.346L301.056 587.504Z" fill="#D3D6E6"/>
    <rect x="342" y="513" width="172" height="172" rx="86" fill="#090A0D"/>
    <path d="M475.5 624.001V574.002L428 549L380.5 574.002V624.001L428 649L475.5 624.001Z" fill="#1E1F26"/>
    <path d="M449.252 573.23C445.799 573.23 443.002 575.8 443.002 578.971V604.861L415.462 576.567L415.134 576.218C412.024 573.088 408.469 573.23 406.752 573.23C403.299 573.23 400.502 575.8 400.502 578.971V618.004C400.502 621.174 403.299 623.744 406.752 623.744C410.204 623.744 413.002 621.174 413.002 618.004V591.923L441.197 620.915L441.472 621.241C444.552 624.049 448.739 623.744 449.252 623.744C452.704 623.744 455.502 621.174 455.502 618.004V578.971C455.502 575.8 452.704 573.23 449.252 573.23Z" fill="#D3D6E6"/>
    <rect x="513" y="513" width="172" height="172" rx="86" fill="#090A0D"/>
    <path d="M598.998 549C597.852 549 596.706 549.26 595.648 549.782L561.735 566.469C559.626 567.507 558.092 569.472 557.571 571.801L549.191 609.32C548.674 611.643 549.219 614.086 550.674 615.952L574.151 646.035C575.612 647.909 577.836 649 580.183 649H617.814C620.161 649 622.385 647.909 623.846 646.035L647.323 615.956V615.952C648.777 614.087 649.327 611.647 648.81 609.324V609.32L640.426 571.801V571.796C639.905 569.471 638.372 567.509 636.261 566.469L602.353 549.782L602.349 549.777C601.29 549.258 600.145 549 598.998 549ZM598.998 553.471C599.491 553.471 599.983 553.583 600.442 553.807L634.355 570.495C635.267 570.944 635.925 571.786 636.15 572.792L644.53 610.311C644.754 611.317 644.519 612.366 643.891 613.171L620.415 643.254C619.783 644.063 618.828 644.529 617.814 644.529H580.183C579.169 644.529 578.218 644.063 577.586 643.254L554.11 613.171C553.48 612.363 553.243 611.314 553.467 610.311L561.851 572.796C562.076 571.789 562.733 570.946 563.642 570.499V570.495L597.555 553.807C598.012 553.582 598.506 553.471 598.998 553.471ZM598.981 562.876C598.672 562.877 598.357 562.939 598.056 563.068C596.849 563.605 596.278 565.035 596.805 566.264C597.309 567.471 597.483 568.677 597.615 569.884C597.658 570.51 597.684 571.114 597.662 571.718C597.728 572.321 597.419 572.926 596.981 573.53C596.52 574.133 596.477 574.738 596.411 575.342C590.391 575.944 584.973 578.632 580.829 582.672L580.791 582.651C580.286 582.315 579.806 581.979 579.039 581.956C578.315 581.912 577.656 581.779 577.239 581.332C576.779 580.974 576.32 580.574 575.903 580.149C575.047 579.299 574.233 578.381 573.641 577.219C573.356 576.66 572.829 576.211 572.193 576.01C570.921 575.652 569.605 576.39 569.232 577.686C568.86 578.96 569.605 580.324 570.878 580.681C572.106 581.061 573.137 581.687 574.146 582.358C574.629 582.693 575.091 583.052 575.551 583.454C576.056 583.789 576.318 584.415 576.515 585.131C576.66 585.847 577.064 586.262 577.458 586.663C574.455 591.021 572.677 596.316 572.677 602.032C572.677 602.978 572.728 603.91 572.823 604.831C572.33 605.007 571.843 605.197 571.426 605.7C570.943 606.259 570.416 606.703 569.824 606.748C569.253 606.904 568.664 607.017 568.071 607.084C566.887 607.241 565.68 607.331 564.43 607.062C563.816 606.95 563.136 607.083 562.588 607.486C561.513 608.246 561.272 609.765 562.018 610.861C562.786 611.956 564.276 612.228 565.351 611.446C566.404 610.686 567.522 610.259 568.663 609.878C569.233 609.7 569.805 609.545 570.398 609.433C570.968 609.232 571.603 609.409 572.283 609.699C572.848 609.997 573.348 609.973 573.842 609.922C575.773 616.302 579.995 621.647 585.508 625.021C585.319 625.558 585.143 626.118 585.311 626.824C585.442 627.562 585.464 628.257 585.156 628.771C584.915 629.33 584.653 629.863 584.368 630.4C583.754 631.428 583.097 632.457 582.132 633.351C581.671 633.776 581.361 634.379 581.339 635.072C581.295 636.413 582.328 637.533 583.644 637.578C584.96 637.623 586.081 636.57 586.125 635.229C586.147 633.91 586.497 632.75 586.891 631.587C587.089 631.029 587.331 630.469 587.594 629.933C587.791 629.351 588.316 628.924 588.952 628.566C589.586 628.233 589.871 627.761 590.156 627.265C592.925 628.276 595.893 628.859 598.998 628.859C602.157 628.859 605.174 628.257 607.982 627.212C608.279 627.729 608.585 628.22 609.22 628.566C609.856 628.946 610.381 629.351 610.578 629.933C610.842 630.492 611.062 631.05 611.259 631.609C611.654 632.772 611.982 633.932 612.026 635.251C612.026 635.899 612.289 636.528 612.793 636.997C613.78 637.891 615.274 637.824 616.173 636.84C617.051 635.834 616.984 634.312 616.019 633.395C615.054 632.523 614.396 631.472 613.804 630.422C613.519 629.907 613.257 629.351 613.016 628.815C612.709 628.278 612.73 627.605 612.883 626.868C613.059 626.107 612.862 625.549 612.686 624.968L612.669 624.911C618.138 621.504 622.304 616.143 624.193 609.765L624.266 609.769C624.88 609.814 625.472 609.879 626.13 609.499C626.788 609.186 627.449 609.005 628.019 609.184C628.589 609.274 629.179 609.408 629.75 609.564C630.89 609.899 632.034 610.302 633.108 611.04C633.635 611.375 634.293 611.533 634.951 611.376C636.245 611.085 637.056 609.791 636.771 608.494C636.486 607.175 635.212 606.348 633.918 606.639C632.646 606.929 631.462 606.881 630.255 606.77C629.663 606.703 629.091 606.616 628.499 606.482C627.906 606.437 627.384 606.036 626.879 605.499C626.375 604.896 625.805 604.739 625.234 604.56L625.196 604.547C625.272 603.718 625.32 602.881 625.32 602.032C625.32 596.49 623.66 591.332 620.822 587.052C621.238 586.606 621.658 586.182 621.811 585.423C622.009 584.708 622.271 584.082 622.775 583.747C623.214 583.344 623.698 582.986 624.18 582.629C625.167 581.958 626.199 581.31 627.428 580.952C628.042 580.773 628.564 580.347 628.871 579.721C629.486 578.536 629.028 577.063 627.843 576.459C626.681 575.833 625.231 576.3 624.639 577.507C624.046 578.67 623.236 579.587 622.402 580.437C621.964 580.862 621.526 581.266 621.066 581.646C620.649 582.093 619.99 582.226 619.266 582.271C618.499 582.293 618.014 582.651 617.51 582.987C613.327 578.764 607.767 575.96 601.586 575.342C601.52 574.738 601.477 574.133 601.016 573.53C600.577 572.926 600.269 572.321 600.335 571.718C600.313 571.114 600.338 570.51 600.382 569.884C600.514 568.677 600.687 567.471 601.192 566.264C601.433 565.683 601.455 564.991 601.192 564.343C600.797 563.421 599.91 562.874 598.981 562.876ZM595.837 579.935L595.73 580.795C595.423 583.209 595.204 585.646 594.984 588.06C594.853 589.335 594.742 590.633 594.654 591.907C593.579 591.125 592.505 590.296 591.364 589.558C589.39 588.194 587.415 586.829 585.375 585.532L584.685 585.096C587.77 582.387 591.604 580.556 595.837 579.935ZM602.16 579.935C606.566 580.581 610.533 582.548 613.68 585.441L612.947 585.912C610.929 587.231 608.979 588.596 607.005 589.96C606.216 590.496 605.446 591.056 604.701 591.615C604.108 592.039 603.296 591.658 603.252 590.92C603.187 589.959 603.1 589.022 603.013 588.06C602.793 585.646 602.574 583.209 602.267 580.795L602.16 579.935ZM580.534 589.977L581.232 590.719C582.899 592.485 584.589 594.185 586.3 595.907C587.024 596.644 587.748 597.34 588.494 598.033C589.02 598.525 588.822 599.395 588.142 599.596C587.068 599.931 585.991 600.243 584.917 600.6C582.657 601.36 580.377 602.078 578.118 602.906L577.124 603.259C577.102 602.85 577.064 602.447 577.064 602.032C577.064 597.583 578.347 593.455 580.534 589.977ZM617.724 590.418C619.746 593.804 620.933 597.768 620.933 602.032C620.933 602.406 620.895 602.768 620.877 603.137L620.098 602.884C617.816 602.124 615.538 601.472 613.234 600.801C611.743 600.354 610.249 599.954 608.758 599.574C609.876 598.479 611.041 597.404 612.116 596.286C613.805 594.565 615.492 592.844 617.137 591.056L617.724 590.418ZM597.64 597.561H600.314C600.73 597.561 601.127 597.764 601.346 598.077L603.055 600.268C603.297 600.559 603.387 600.98 603.321 601.36L602.704 604.067C602.638 604.492 602.352 604.826 602.002 605.028L599.547 606.189C599.196 606.39 598.758 606.39 598.407 606.189L595.948 605.028C595.597 604.826 595.289 604.492 595.245 604.067L594.633 601.36C594.567 600.98 594.657 600.559 594.898 600.268L596.608 598.077C596.827 597.764 597.224 597.561 597.64 597.561ZM589.719 608.224C590.399 608.112 590.95 608.807 590.687 609.455C590.27 610.573 589.873 611.669 589.501 612.786C588.689 615.089 587.899 617.369 587.153 619.694L586.853 620.654C582.949 618.009 579.951 614.116 578.353 609.534L579.519 609.433C581.909 609.21 584.256 608.916 586.647 608.625C587.678 608.514 588.688 608.358 589.719 608.224ZM608.672 608.538C609.703 608.65 610.713 608.763 611.744 608.852C614.134 609.076 616.503 609.298 618.894 609.455L619.656 609.499C618.088 614.023 615.155 617.879 611.332 620.528L611.084 619.716C610.36 617.391 609.572 615.088 608.805 612.808C608.454 611.78 608.102 610.775 607.729 609.769C607.488 609.121 608.014 608.449 608.672 608.538ZM599.161 612.948C599.474 612.948 599.787 613.108 599.962 613.433C600.445 614.372 600.952 615.289 601.479 616.205C602.663 618.307 603.844 620.432 605.116 622.488L605.634 623.344C603.542 624.017 601.313 624.388 598.998 624.388C596.753 624.388 594.589 624.04 592.551 623.405L593.099 622.51C594.371 620.453 595.577 618.35 596.783 616.249C597.332 615.332 597.86 614.394 598.364 613.433C598.54 613.108 598.849 612.948 599.161 612.948Z" fill="#D3D6E6"/>
    <defs>
        <clipPath id="clip0_320_52">
            <rect width="100" height="100" fill="white" transform="translate(549 207)"/>
        </clipPath>
    </defs>
</svg>
