<svg width="182" height="175" viewBox="0 0 182 175" fill="none" xmlns="http://www.w3.org/2000/svg">
    <path d="M35.4095 169.943C40.0918 173.343 45.5279 174.984 50.9243 174.984C59.0457 174.984 67.0607 171.267 72.2189 164.28C72.2337 164.265 72.2477 164.249 72.2609 164.233C72.2734 164.217 72.2858 164.2 72.2975 164.184L72.3154 164.158C72.3278 164.141 72.3395 164.124 72.3512 164.108L90.604 139.008L108.857 164.108C108.875 164.135 108.893 164.156 108.911 164.179C108.92 164.19 108.928 164.201 108.936 164.214C117.534 175.924 134.054 178.504 145.812 169.956C157.584 161.409 160.216 144.883 151.724 133.081L151.705 133.051C151.69 133.026 151.677 133.008 151.658 132.988L133.445 107.875L162.954 98.2691C176.815 93.7572 184.434 78.7927 179.923 64.9257C175.414 51.0595 160.467 43.4383 146.592 47.9371L117.084 57.5034L117.071 26.4494C117.057 11.8684 105.193 0 90.6173 0C76.0417 0 64.1775 11.8684 64.1643 26.4626L64.1378 57.4902L34.6292 47.9238C34.6175 47.9238 34.6033 47.9212 34.589 47.9172C34.5704 47.9122 34.5513 47.9047 34.5365 47.8973C20.6882 43.4516 5.79504 51.0728 1.29801 64.9133C-3.1991 78.7531 4.36665 93.6646 18.1619 98.2162C18.1747 98.2201 18.1861 98.2247 18.1971 98.2294L18.2457 98.2481L18.2679 98.2558L47.7631 107.861L29.55 132.975C29.5434 132.988 29.5336 133.001 29.5237 133.015C29.5137 133.028 29.5039 133.041 29.4973 133.054C20.9924 144.856 23.6378 161.396 35.4095 169.943Z" fill="#77A9ED"/>
</svg>
