<svg width="170" height="170" viewBox="0 0 170 170" fill="none" xmlns="http://www.w3.org/2000/svg">
    <path d="M42.5 0C19.0279 0 0 19.0279 0 42.5C0 65.9725 19.0279 85 42.5 85C19.0279 85 0 104.028 0 127.5C0 150.972 19.0279 170 42.5 170C65.9725 170 85 150.972 85 127.5C85 150.972 104.028 170 127.5 170C150.972 170 170 150.972 170 127.5C170 104.028 150.972 85 127.5 85C150.972 85 170 65.9725 170 42.5C170 19.0279 150.972 0 127.5 0C104.028 0 85 19.0279 85 42.5C85 19.0279 65.9725 0 42.5 0Z" fill="#C4E489"/>
</svg>
