<svg width="1728" height="419" viewBox="0 0 1728 419" fill="none" xmlns="http://www.w3.org/2000/svg">
    <path d="M-74.75 50.6924C-74.75 170.888 0.00869751 357.645 193.791 357.645C387.574 357.645 313.204 50.6924 492.334 50.6924C670.87 50.6924 637.829 363.693 851.864 363.692C1065.9 363.692 1022.04 50.6924 1212.87 50.6924C1403.7 50.6924 1382.06 363.692 1542.89 363.692C1703.72 363.692 1792.25 217.985 1792.25 68.3538" stroke="#E4E6F2" stroke-width="100"/>
    <path d="M-72.75 368.692C-72.75 248.113 2.00869 60.7586 195.791 60.7586C389.573 60.7586 315.204 368.692 494.334 368.692C672.87 368.692 639.829 54.6922 853.864 54.6924C1067.9 54.6926 1024.04 368.692 1214.87 368.692C1405.7 368.692 1384.06 54.6924 1544.89 54.6924C1705.72 54.6924 1794.25 200.865 1794.25 350.975" stroke="#F5F6FA" stroke-width="100"/>
</svg>
