<svg width="86" height="86" viewBox="0 0 86 86" fill="none" xmlns="http://www.w3.org/2000/svg">
    <circle cx="43" cy="43" r="43" fill="white"/>
    <path d="M28.4744 34.3375C27.9635 32.6308 27.786 30.2736 27.8345 28.3032C27.8353 28.2703 27.8373 28.24 27.8406 28.2119C27.8992 27.72 28.3128 27.9249 28.3436 27.5265C28.4097 26.7135 28.1199 25.976 28.2444 25.1268C28.2884 24.8468 28.986 25.1316 29.0174 24.8414C29.1907 23.2728 28.9506 21.6053 29.2577 19.7852C29.2614 19.7636 29.2651 19.7423 29.2688 19.7211C29.4932 18.445 29.7784 17.1988 30.137 15.9527C30.3176 15.3267 30.5152 14.7044 30.7492 14.0542C30.8671 13.7274 30.9919 13.3991 31.1435 13.0327C31.3138 12.642 31.4043 12.3664 31.8531 11.5575C32.8522 9.74873 34.8431 8.43449 36.1704 7.99185C37.54 7.49727 38.4905 7.39633 39.1943 7.27667C42.6319 6.77125 45.1818 7.283 47.9253 8.29556C48.9759 8.68838 50.1994 9.39669 51.1479 10.4301C52.1022 11.4385 52.644 12.6669 52.8367 13.1252C52.8956 13.2701 52.9246 13.3298 52.8198 13.1897C53.9035 15.0162 53.8994 16.6533 53.9049 17.6619C53.8754 19.543 53.6791 21.0444 53.791 22.5042C53.8124 22.7945 54.4077 22.6434 54.4543 22.7001C55.164 23.5972 53.9857 23.2608 53.8022 23.812C53.7588 23.9406 53.717 24.075 53.677 24.2044C53.5985 24.5539 53.5372 24.6506 53.4872 24.7886C53.437 24.9164 53.3975 25.0473 53.3692 25.1983C53.3123 25.4992 53.3015 25.8614 53.3279 26.2445C53.4158 27.3507 53.6446 28.4184 53.9669 29.2746C54.2341 29.9482 55.1967 28.9878 54.7308 29.7887C54.7005 29.8445 54.0527 29.8563 54.0383 30.0487C54.0227 30.266 54.099 30.5325 54.1781 30.7162C54.2576 30.9043 54.3311 31.0012 54.4773 31.3465C54.4795 31.3519 54.4816 31.3573 54.4839 31.3627C54.4397 31.3345 54.3697 31.2135 54.1318 30.9746C53.9212 30.7668 53.4325 30.3554 52.6754 30.1961C51.9023 30.0196 51.1145 30.2417 50.7533 30.4442C50.3715 30.6478 50.2336 30.8126 50.1867 30.8611C50.1093 30.9807 50.4799 30.5967 50.7652 30.1885C51.0725 29.7609 51.3816 29.2446 51.6702 28.6062C51.8005 28.324 51.0245 28.3666 51.2121 27.8493C51.2787 27.6825 51.4006 27.4515 51.638 27.1264C51.9042 26.8056 52.1406 26.3664 53.2194 25.6908C53.4737 25.5674 53.7263 25.4704 53.889 25.4456C54.2972 25.3838 54.4065 25.9041 54.523 25.9703C55.4421 26.5485 56.121 24.7124 56.3455 24.6012C57.3726 23.9744 58.4412 23.6534 59.3721 23.4808C59.7721 23.4173 61.1661 23.1309 62.157 23.1157C63.1987 23.0726 64.1392 23.1138 65.0855 23.0938C65.1228 23.0931 65.1602 23.0925 65.1976 23.0921C67.1102 22.9929 69.1907 24.0247 70.1679 24.6825C71.5952 25.6223 72.4087 26.7747 72.9175 27.5419C72.9828 27.6425 73.0424 27.7365 73.0957 27.8215C74.4024 30.0798 74.4094 31.3712 74.7325 32.9469C74.9012 33.8709 75.0045 35.1184 74.5799 36.4617C74.4169 36.9349 75.3424 36.6245 75.1063 37.242C74.712 38.2 74.1182 38.9722 74.272 38.7706C73.4311 40.219 72.5729 40.7244 72.0036 41.1361C71.4153 41.5258 70.9802 41.7555 70.6812 41.9263C69.0236 42.8806 68.1974 42.8768 67.3188 43.0593C66.4335 43.1974 65.6336 43.2599 64.8192 43.2945C64.5135 43.3061 64.7565 42.5778 64.4441 42.5502C63.5903 42.4807 62.5023 42.295 61.5422 42.3914C60.3567 42.51 59.3174 43.0792 59.2351 44.7514C58.8732 44.8088 58.5688 44.8578 58.2001 44.9263C58.8114 44.6375 58.803 44.4092 58.6712 44.4536C58.5291 44.4818 58.2621 44.6617 57.8979 44.907C57.8776 44.8623 57.851 44.8183 57.8168 44.7784C57.6833 44.6306 57.4117 44.5586 57.2382 44.4871C57.0631 44.4213 56.9543 44.3942 57.0774 44.5528C57.1359 44.617 57.7673 44.6718 57.8169 44.7151C57.8393 44.735 57.8571 44.7612 57.8728 44.7949C57.9001 44.274 57.6784 43.7006 57.4828 43.426C57.2868 43.1376 57.1504 43.0359 57.0869 42.9785C56.9593 42.877 57.0395 42.9319 57.1618 42.975C57.422 43.0766 57.8737 43.2188 58.3701 43.3282C58.5487 43.3648 58.7257 43.3908 58.9033 43.4038C59.1499 43.421 59.2802 42.8656 59.3767 42.792C60.171 42.2021 60.5894 43.7821 60.7614 43.9406C61.6938 44.8191 62.4664 44.9822 63.785 45.4245C64.134 45.5458 64.4924 45.6621 64.9002 45.8255C65.2555 45.9695 65.1044 45.0925 65.4688 45.2118C65.8541 45.3433 66.3072 45.5108 66.8431 45.791C69.3168 47.3164 69.8342 48.4948 70.6595 49.7345C70.8539 50.0696 70.1375 50.2385 70.2055 50.4206C70.3165 50.7118 70.5213 50.797 70.7466 50.8184C71.6818 51.5291 72.1707 51.7925 72.2792 52.5562C72.3013 52.7965 71.7313 52.8399 71.6864 52.8986C70.9514 53.7438 72.3527 53.8343 72.4188 53.9848C73.1913 55.6706 71.8921 56.8663 72.2299 58.377C72.2702 58.5604 72.9363 58.0819 73.0064 58.6061C73.0303 58.7871 73.0521 58.969 73.0719 59.1515C73.1468 59.9158 72.923 60.8447 72.5487 61.4728C72.179 62.1141 71.7616 62.506 71.418 62.7943C70.73 63.3517 70.188 63.6066 69.9365 63.7605C67.3245 65.0423 66.2157 64.5055 64.9625 64.5226C63.3256 64.4284 62.0759 63.9084 61.0192 63.3833C60.5244 63.1302 61.0632 62.752 61.0494 62.6792C60.8554 61.5442 60.1079 62.7229 59.9462 62.7235C59.8094 62.7197 59.6858 62.7026 59.583 62.6818C58.4336 62.4347 57.4981 61.2731 56.0479 62.1035C56.009 62.0778 55.9714 62.0528 55.9327 62.0272C54.5379 61.0368 53.3179 60.532 51.3803 58.9361C50.688 58.2502 49.9422 57.7694 49.8844 57.7839C50.6996 58.0872 51.987 57.5961 52.288 57.2373C52.5106 57.0394 52.6063 56.9081 52.6927 56.789C52.7787 56.666 52.8242 56.5822 52.8602 56.5134C52.9989 56.2323 52.9994 56.1696 53.0191 56.1083C53.042 56.0115 53.0305 56.0409 53.0254 56.0765C53.0114 56.1581 52.9945 56.3194 52.9819 56.4824C52.9558 56.817 52.9378 57.1981 52.9198 57.5853C52.8843 58.3615 52.8476 59.1705 52.7827 59.9851C52.6902 60.9925 52.6126 61.9598 52.55 63.0521C52.5479 63.1207 51.8671 63.1456 51.8664 63.2855C51.8621 63.7311 51.9382 64.0127 52.0453 64.3825C52.3 65.0275 53.1222 64.98 54.0955 65.8785C54.4323 66.2038 52.8732 67.203 52.7476 67.2613C52.3124 67.5464 51.3389 67.1587 51.2518 67.2546C50.541 67.9433 53.9056 68.186 53.5176 69.6952C53.4998 69.7359 52.9712 69.383 52.8797 69.48C52.7757 69.587 52.7243 69.7073 52.6834 69.832C52.6217 70.0218 52.5972 70.2258 52.4008 70.3587C51.6685 70.8495 50.1761 70.3028 50.5064 71.595C50.5323 71.769 52.2965 72.5458 51.5361 73.4888C51.3907 73.6561 51.1082 74.0578 50.5885 74.5747C49.894 75.2784 48.9303 75.7631 48.5443 75.8493C47.8448 76.0082 48.0776 75.2596 48.0148 75.2583C46.2346 75.0158 46.7599 74.4609 45.9312 73.4376C45.3883 72.6297 45.5429 73.9608 45.5313 74.8342C45.5305 75.1271 45.5156 75.3664 45.4575 75.4512C45.232 75.7904 44.2316 75.2055 44.0023 74.983C43.7616 74.7649 44.0285 74.3696 43.8233 74.249C42.5112 73.4376 43.2682 75.6543 42.7974 76.1017C41.5904 77.1374 40.7357 74.9467 39.9107 74.4624C39.6669 74.3262 39.7345 74.847 39.4822 74.8085C39.0556 74.7367 38.806 74.5492 38.5919 74.4126C38.082 74.152 37.6836 73.8795 36.9279 73.7799C36.8577 73.7701 36.6509 73.8137 36.401 73.8276C35.2101 73.2476 34.7561 72.6607 35.1536 72.0294C35.251 71.9029 35.8142 71.9613 35.7926 71.5204C35.7635 70.8668 35.6644 69.8373 35.3921 69.2551C35.1902 68.825 34.4327 69.485 34.6019 68.8644C34.6797 68.5903 35.2448 68.9839 35.3522 68.4842C35.4569 67.9887 35.293 66.8012 35.2353 66.347C35.1744 65.8949 34.5533 66.2025 34.5063 66.1703C34.4293 66.1126 34.3425 66.0014 34.2581 65.8697C34.0426 65.4769 33.8673 65.027 33.8647 64.9662C33.7722 63.4141 33.901 61.9486 34.0576 60.4899C34.2189 59.2644 34.191 57.9189 34.1647 56.4647C34.1516 55.6453 34.067 54.8134 33.7825 54.2054C33.7279 54.0793 33.5312 54.0316 33.3677 54.0993C33.202 54.1595 33.0562 54.2804 33.0384 54.2389C33.0234 54.2051 33.0076 54.1645 32.9919 54.1169C33.0506 54.3382 33.1539 54.697 33.5484 55.097C33.9307 55.5074 34.6677 55.7466 35.1435 55.6926C35.626 55.6582 35.9164 55.4928 36.0496 55.4195C36.1483 55.3627 36.2193 55.3123 36.2764 55.2688C36.5055 55.085 36.5164 55.0502 36.5616 55.0056C36.6363 54.9203 36.6346 54.9185 36.6468 54.9011C36.6588 54.8806 36.6426 54.8889 36.6239 54.8915C36.5822 54.9031 36.519 54.9041 36.4423 54.8917C36.2917 54.8623 36.0926 54.769 35.8766 54.654C35.4437 54.4274 34.9372 54.118 34.511 54.2826C35.7811 54.8472 35.3733 55.0723 35.1998 55.7658C35.1183 56.0985 35.6805 56.1724 35.7162 56.224C36.2307 57.0248 35.1343 56.8775 34.9013 56.8648C34.043 56.8217 34.7326 57.5523 34.1575 57.5301C33.585 57.5119 33.1037 56.7045 32.8234 57.3238C33.1924 57.7055 34.5781 57.8045 34.5516 58.356C34.5279 58.8547 34.3733 59.393 34.1401 59.9492C33.7169 61.0424 32.5561 62.6422 31.4544 63.3702C30.7837 63.8852 30.0308 64.3006 29.4692 64.5375C28.9623 64.7586 28.5456 64.8694 28.2142 64.9516C27.1343 65.1917 26.5649 65.1512 25.82 64.9668C24.5072 64.5714 24.5247 65.0275 24.142 65.4259C23.9688 65.5487 23.7338 65.6606 23.3338 65.6755C21.6633 65.619 23.3006 63.6318 23.3039 63.1059C23.3834 62.5875 23.0312 62.9991 23.0103 62.6687C23.0112 62.348 23.4595 62.2065 23.2165 61.9442C23.0797 61.7935 22.4909 61.7565 21.9106 61.8231C21.577 61.8889 21.2585 61.9771 21.0855 62.1037C20.1365 62.7787 19.8185 64.101 19.0716 62.8692C19.0353 62.8005 19.6342 62.5119 19.4784 62.2758C18.7662 61.1842 18.1188 60.2006 17.4737 59.1879C17.0583 58.5161 16.5791 57.839 16.2093 57.0725C16.0892 56.8159 16.79 56.5951 16.7316 56.4466C16.615 56.14 16.5138 55.941 16.3992 55.8125C15.9703 55.2843 15.237 56.0033 13.9342 55.5062C15.6504 55.1285 16.3879 54.3299 16.3545 53.4144C16.3541 52.8191 15.6065 52.8962 15.133 52.3469C14.9909 52.1655 15.6043 51.7525 15.2889 51.5787C14.2899 50.9502 12.7925 51.1587 13.8675 49.7491C13.877 49.7358 13.8867 49.7225 13.8966 49.7092C13.8931 49.7183 13.8801 49.7442 13.8766 49.7532C13.899 49.7632 14.4779 50.0224 14.513 50.0381C14.5241 50.0095 14.5675 49.928 14.5786 49.8994C15.6567 48.578 14.93 47.7989 15.8234 46.6494C15.8747 46.5858 15.9321 46.5233 15.9922 46.464C17.3501 45.1 19.5982 45.0333 20.6977 44.8221C21.0641 46.0933 21.6364 46.1501 21.9598 45.6101C22.1363 45.3497 22.2874 44.9675 22.3632 44.5151C23.2691 44.3656 24.1585 44.2194 24.7765 44.2835C24.9839 44.3044 24.9782 44.8795 25.015 44.9339C25.0761 45.0157 25.1331 45.0758 25.1847 45.1178C25.7161 45.4927 25.7496 44.3912 25.8894 44.3105C26.4055 44.0311 26.9225 43.8995 27.4337 43.8123C28.4666 43.6747 28.9435 43.879 29.6754 44.0468C29.9491 44.1237 30.232 44.2259 30.5361 44.4021C30.8313 44.6088 31.1979 44.7369 31.5005 45.5346C31.6712 45.9839 31.4932 46.7258 31.2208 47.0522C30.9594 47.4058 30.7281 47.5705 30.5084 47.7238C30.427 47.7847 30.3366 47.8454 30.242 47.9025C30.1818 47.9384 30.1888 48.3018 29.998 48.5609C29.8203 48.8196 29.4014 48.9505 29.0391 48.4393C29.0155 48.4051 29.2481 48.2419 29.3093 48.0716C29.3813 47.8978 29.2172 47.7594 28.7101 47.6832C27.6969 47.519 26.424 46.4365 25.1518 46.7658C25.0485 46.7907 24.8867 46.9054 24.6881 47.0102C24.2661 47.2218 23.7153 47.3827 23.509 46.7192C23.4691 46.5857 23.6618 46.2403 23.6194 46.0024C23.4873 45.2445 22.8879 46.4835 22.8532 45.2545C22.8197 44.0259 22.3241 42.945 20.9835 43.3148C20.9422 43.3247 20.3238 44.2508 19.9896 44.1124C19.4578 43.8915 18.7658 43.4002 18.198 43.2037C17.9264 43.1103 17.8733 43.8035 17.8222 43.7983C17.7107 43.7814 17.5994 43.7614 17.4953 43.741C15.7482 43.378 14.6068 42.4188 12.9936 41.2768C12.8612 41.1829 12.5384 41.1781 12.1833 41.1247C11.6916 41.051 11.1303 40.864 10.9962 40.2741C10.7847 39.1644 13.2194 36.9035 11.6201 36.6404C11.1863 36.5624 9.1969 37.9001 8.37414 37.3907C8.08952 37.21 8.00184 36.8623 8.2923 36.242C7.55043 35.5067 7.09023 34.6217 6.71076 33.707C6.51265 33.1306 6.77806 32.2417 6.956 31.3756C6.93739 31.2309 7.26821 30.8256 7.70207 30.4575C7.76585 30.389 7.70846 29.1578 8.01891 29.0793C8.4553 28.9721 8.8153 29.4479 9.10854 29.4177C10.0779 29.3354 10.9321 28.9689 11.8494 28.806C12.103 28.7614 12.3579 28.7324 12.6172 28.7308C13.0714 28.7283 12.9478 29.2991 13.4818 29.3031C14.0114 29.3096 14.3491 28.5546 15.0868 28.9013C15.6697 29.162 16.0873 30.6987 17.0263 30.8425C17.0143 30.3939 17.0573 30.0831 17.1814 29.839C17.2821 29.2864 17.7029 29.1877 18.3251 28.9144C18.4973 28.838 18.3124 28.3173 18.3951 28.2543C18.7298 27.9868 19.0322 28.4219 19.3499 28.1342C19.415 28.0753 19.4332 27.6952 19.4773 27.5318C19.4853 27.5036 19.4942 27.4819 19.5044 27.4694C20.1221 26.7256 20.9593 27.9365 21.0874 28.1468C21.6082 28.9471 21.9272 28.3087 22.3424 28.6462C22.753 28.9841 22.0658 29.2963 22.5581 29.5241C23.1582 29.8026 23.8765 29.9385 24.5816 30.035C25.0691 30.1016 25.5424 30.1557 25.9627 30.2337C26.3708 30.3082 26.2077 29.5898 26.2685 29.5847C27.1951 29.558 27.847 30.5224 28.708 29.3758C28.5944 30.1906 28.6027 30.6263 28.6681 30.8179C28.8844 31.4532 29.4654 29.3741 30.3297 30.0853C30.4221 30.1615 30.2125 31.8114 29.8092 31.9822C29.4509 32.1311 29.0313 31.6809 28.4559 31.7186C28.3646 31.7202 28.2734 31.73 28.1818 31.7512C27.9532 31.7833 26.8196 33.0461 26.7758 33.1374C26.1054 33.7142 26.529 31.2831 26.516 31.138C26.3806 29.6028 25.2389 31.1285 25.0294 31.2218C24.8209 31.2994 24.6278 31.3472 24.4338 31.3746C23.6181 31.4861 22.9221 31.248 22.196 31.4874C21.6065 31.6799 21.4159 33.2952 20.9941 33.2117C20.2562 33.0675 19.8197 32.3652 19.4113 32.0326C18.9639 31.7384 18.4412 31.7174 17.9184 32.6504C17.7707 33.0258 17.8092 34.4613 17.7253 33.8204C17.2539 33.7959 17.0722 33.6746 16.8647 33.5234C16.684 33.444 15.8404 32.1652 15.4141 32.9778C15.358 33.0803 15.3669 33.5979 15.2949 33.6422C14.8178 33.9295 14.4954 33.5242 13.9883 33.742C13.4833 33.96 12.8997 34.2899 12.31 34.1637C12.3071 34.1631 12.3042 34.1624 12.3012 34.1617C11.9766 34.0697 11.4665 33.1706 11.2773 32.9593C10.7305 32.3423 10.4627 33.5204 10.064 32.7624C9.62174 32.0114 9.93897 30.6497 9.02834 30.3102C9.31958 31.6236 9.60032 32.9766 9.9151 34.2924C9.6355 34.3493 9.39974 34.4055 9.42071 34.3428C9.43507 34.3035 9.52412 34.2416 9.76263 33.9919C9.98267 33.753 10.4493 33.2101 10.6513 32.2939C10.5261 32.5873 10.4404 32.8254 10.4053 32.9068C10.3494 32.9789 10.4519 32.8992 10.1994 32.1698C10.0763 31.8775 10.501 31.8449 10.6486 31.6531C10.7209 31.6315 10.7803 31.6324 10.8122 31.6777C11.3416 32.4344 11.2568 33.3069 11.9787 34.0234C12.154 34.1981 12.3923 34.3599 12.678 34.5577C12.7019 34.3342 12.8713 34.2826 13.0416 34.2328C13.2153 34.1904 13.4048 34.1842 13.5621 34.2318C12.7514 35.5786 13.8711 35.7671 14.4272 36.2463C14.6227 36.4164 14.4161 36.7534 14.5067 36.9674C14.5091 36.972 14.5116 36.9766 14.5142 36.9811C15.0073 37.8209 15.3116 36.4337 15.6029 36.3488C16.7676 35.9255 15.404 38.6961 16.5002 39.0743C16.5606 39.098 17.8374 37.8349 17.9676 37.7728C18.8126 37.377 17.8686 38.3462 18.218 38.6044C18.531 38.8324 18.7854 39.0783 19.083 39.2573C19.4304 39.4599 19.8126 39.5828 20.3701 39.5192C20.6841 39.4814 21.6585 38.7469 21.8921 39.6708C21.923 39.7919 21.7038 40.2895 21.7462 40.3384C22.5319 41.1805 23.1229 39.5801 23.8416 39.2178C24.5585 38.8556 24.9749 40.2277 25.0359 40.6005C25.1945 41.5689 24.6001 40.857 24.5483 40.9291C23.9555 41.8134 24.6125 41.8438 25.03 42.0585C24.6129 43.6802 25.2904 43.768 25.4597 42.2698C25.4802 42.1075 25.099 42.1596 25.03 42.0585C25.5108 41.2449 25.9338 40.8789 26.2137 40.9835C26.525 41.0888 26.7901 41.5029 26.9898 42.2473C27.1985 43.0364 26.6502 43.7715 27.8731 43.7425C28.4105 43.7204 28.4746 42.5575 28.9147 42.3256C29.132 42.1984 29.3298 42.155 29.3314 42.1425C29.3284 42.1379 29.2641 42.1363 29.0645 42.1717C28.8745 42.2028 28.4891 42.3151 28.2286 42.4715C27.9335 42.6372 27.5735 42.8044 27.0168 43.4606C26.4353 44.0366 25.9289 45.778 26.2863 46.7737C26.5548 47.6896 26.8812 47.9792 27.1084 48.2255C27.3437 48.4534 27.5289 48.5654 27.6839 48.6485C27.9925 48.807 28.1849 48.8391 28.3258 48.8726C28.3468 48.872 28.3267 48.8707 28.3015 48.8843C28.2089 48.9316 28.1856 49.5654 28.1484 49.6243C28.1342 49.6596 28.1308 49.6682 28.1843 49.6591C28.2484 49.6446 28.323 49.639 28.7281 49.5255C28.3205 49.5413 27.9117 49.5406 27.5307 49.7709C27.4703 49.8084 27.7811 50.4126 27.5583 50.4736C27.2214 50.5689 26.889 50.6439 26.5798 50.703C25.475 50.9353 24.9298 50.9063 24.4732 50.92C24.033 50.922 23.7466 50.9184 23.593 50.9242C23.1857 51.0235 22.8705 51.0954 22.5835 51.1802C22.2061 51.2902 21.7934 51.523 21.562 51.716C21.3181 51.9117 21.3086 52.0341 21.363 51.9406C21.3729 51.9218 21.3855 51.8951 21.3999 51.8605C20.9592 52.2087 20.5636 52.4219 20.2468 52.5713C19.937 52.6907 19.7057 52.8608 19.8185 52.4138C19.6539 52.4696 19.5048 52.7412 19.5639 52.9115C19.6717 53.233 20.3505 53.1885 20.7956 53.2189C21.2333 53.2226 21.0499 53.1325 20.7403 53.1926C20.428 53.239 20.0255 53.4535 19.9244 53.5194C19.9191 53.5313 19.7343 53.4876 19.443 53.6715C18.817 54.0034 19.9261 53.5299 19.9244 53.5194C19.8766 53.5481 19.8385 53.5974 19.8308 53.6642C19.8838 53.9011 20.1579 54.3051 20.3323 54.3862C20.4719 54.447 20.9042 53.9894 20.9679 54.0283C21.3799 54.2843 21.8905 54.6758 22.4119 55.171C23.448 56.0767 24.5799 57.2713 24.6014 57.5018C24.6003 57.5166 24.1781 58.0738 24.1871 58.106C24.1982 58.1477 24.2211 58.1857 24.267 58.228C25.5591 59.2565 25.4057 58.1617 25.2794 57.7011C25.2639 57.6376 25.2506 57.585 25.2414 57.5432C26.405 57.4097 26.4788 57.6732 26.6001 58.7376C26.713 58.6613 26.6818 58.7559 26.5838 58.956C26.7863 59.0559 26.8159 59.2498 26.8902 59.3863C27.0803 59.6468 26.3192 58.5188 26.2874 58.5086C26.189 58.3799 26.1728 58.2583 26.2099 58.1342C26.3942 57.7574 26.4046 57.8348 26.578 57.7826C26.7457 57.733 27.0761 57.4551 27.385 56.8986C27.3924 56.8854 27.4 56.8717 27.4076 56.8576C27.8255 56.0612 28.3699 54.4401 28.6614 53.5066C28.8983 52.7452 29.3771 52.4866 29.588 51.6472C29.6196 51.5298 29.0281 51.352 29.0247 51.3087C28.9428 50.691 29.2645 50.5266 29.5538 50.6519C29.852 50.7633 30.1576 51.0995 30.3717 51.0035C30.5037 50.9418 30.6258 50.8842 30.8508 50.6962C30.9544 50.6184 31.0944 50.4791 31.3819 50.2227C31.5336 50.0986 31.8191 49.7834 32.5271 49.3778C32.9859 49.1402 34.4751 48.2633 36.6886 49.0287C38.9392 49.8975 39.5719 51.7726 39.727 52.4542C39.5972 52.2858 39.5248 52.3324 39.4713 52.3974C39.4183 52.4674 39.3831 52.5733 39.3535 52.6784C39.2956 52.8927 39.2633 53.1152 39.2555 53.328C39.2405 53.7569 39.3346 54.1742 39.5883 54.675C39.718 54.9224 41.5872 55.4713 42.0072 55.9643C42.0435 55.9894 42.0686 56.014 42.0804 56.0383C42.2681 56.4344 41.4928 56.3314 41.7201 56.7903C41.7395 56.8327 42.2065 56.7702 42.2173 57.0908C42.2484 57.9056 42.2766 59.1383 42.2073 60.4191C42.1512 61.1553 42.1176 61.8929 42.153 62.6063C42.1621 62.824 42.904 62.5311 42.9296 62.8423C42.9642 63.2611 42.9912 63.6917 43.0065 64.1082C43.0142 64.3172 43.0191 64.5226 43.0205 64.7128C43.0209 64.8909 43.0233 65.1144 43.0076 65.1145C43.0094 65.6958 42.9804 66.2724 42.9011 66.8146C42.8534 67.1293 42.3094 67.0092 42.1641 67.0962C41.2879 67.6468 42.7316 67.9993 42.7713 68.0676C42.9987 68.5041 43.1395 68.8964 43.1983 69.1111C43.224 69.2114 43.2378 69.2755 43.1646 69.155C43.123 69.0887 43.0651 68.977 42.8974 68.7199C42.692 68.4552 42.5333 68.0307 41.4032 67.1513C41.4297 67.2682 41.3893 67.2774 40.9151 67.1602C41.69 67.448 41.9514 67.5807 42.0395 67.585C42.1286 67.5944 42.1408 67.5489 42.2624 67.476C42.3118 67.4509 42.7542 66.0258 43.0941 67.2748C43.1022 67.359 43.4892 68.6403 43.796 67.7418C43.8129 67.6854 43.5435 67.0391 43.9542 67.0815C44.1638 67.1009 44.4266 66.9885 44.738 66.9442C44.8846 66.9162 44.9507 66.9701 45.0216 67.3313C45.0436 67.444 45.1341 67.8102 45.1684 68.0334C45.1941 68.263 45.1823 68.3262 44.7216 68.014C44.6988 67.9843 44.0773 67.5177 43.535 67.5318C43.1369 67.5063 43.1177 67.4351 43.6974 67.8524C43.9109 68.0007 45.256 69.0418 44.7458 68.2386C44.6382 68.0928 44.259 67.9935 44.1405 67.7331C43.9682 67.3952 44.3932 67.2415 44.0734 66.8068C44.0132 66.8044 43.9409 66.7998 43.8533 66.7925C43.7234 66.7429 42.561 66.7226 43.4308 66.7933C43.5674 66.7958 44.1245 66.8899 44.1931 66.8354C44.4615 66.6004 44.2622 65.8422 44.2979 64.975C44.3532 65.4285 44.3918 65.4244 44.4094 65.4029C44.4283 65.367 44.4362 65.2523 44.448 65.1193C44.4784 64.6208 45.4194 64.6712 45.5447 64.0728C45.661 63.4551 45.7148 62.2472 45.2495 61.6742C44.7805 61.0866 43.3865 61.9126 43.2011 60.9304C43.1676 60.7435 43.1387 60.5574 43.1141 60.3687C42.9766 59.4847 42.9337 58.5911 42.9651 57.6125C42.982 57.1163 43.0148 56.6142 43.0831 55.984C43.1195 55.6614 43.1584 55.3222 43.2488 54.7897C43.3008 54.5053 43.3443 54.2144 43.5165 53.5899C43.6278 53.2372 43.6896 52.9002 44.1556 51.9797C44.2155 51.8663 44.2825 51.7464 44.3588 51.6194C44.4458 51.4742 44.5557 51.3028 44.6804 51.1279C44.9386 50.775 45.2248 50.3911 45.855 49.8359C46.7278 48.8254 50.2351 47.5034 52.4805 48.3362C56.0397 49.6286 56.8914 51.1623 57.8276 52.0184C57.5492 51.7964 57.6066 51.8855 57.6794 51.9437C57.856 52.0837 57.9496 51.5277 58.3185 51.7487C58.8548 52.0666 59.8003 52.5133 60.8527 53.0479C61.1781 53.2071 61.2452 53.2257 61.3856 53.2874C61.5301 53.3509 61.9019 53.493 62.3208 53.6635C63.1982 53.9856 63.5166 54.1876 63.8368 54.3998C64.1351 54.6082 64.3221 54.8063 64.4466 55.0265C64.9913 56.0463 63.8997 56.5126 64.4621 56.9866C64.6631 57.1379 64.8742 56.3947 64.8364 55.8891C64.9668 55.6513 65.0581 55.4667 65.102 55.4489C65.6521 55.2197 66.0596 55.1909 66.1807 55.2301C66.3099 55.2932 66.0483 55.3132 65.1011 55.8792C65.4814 55.6596 65.6691 55.5462 65.7179 55.4654C65.7313 55.4012 65.3567 54.8279 65.313 54.8173C65.225 54.8409 64.8999 55.0017 64.2975 55.7905C63.6893 56.5111 62.9947 58.399 63.1844 59.7888C63.1982 59.5778 63.1991 59.3706 63.166 59.1727C63.1147 58.8789 62.5989 58.9797 62.6141 58.7104C62.6423 58.067 62.7925 57.4969 63.1843 56.8569C63.2195 56.7962 63.9197 57.0467 63.8709 56.6054C63.8304 56.2572 63.8806 55.8589 63.872 55.5812C63.8703 55.4482 63.8488 55.3403 63.8377 55.3779C63.8343 55.3992 63.8318 55.4579 63.8764 55.6176C63.9342 55.7829 63.9809 56.0323 64.4181 56.6173C64.4112 56.6137 64.4042 56.6102 64.3973 56.6067C64.0329 56.4292 63.1103 57.1891 63.2659 56.1214C63.305 55.9064 64.4775 55.0644 63.0668 55.3459C62.811 55.3633 60.8676 55.7276 61.4957 54.8653C61.6623 54.6281 62.2553 53.6118 62.2828 53.8536C62.3059 53.902 61.7984 54.3448 62.01 54.5455C62.0312 54.563 62.0548 54.5812 62.081 54.6003C62.1849 54.7927 61.2411 54.4198 60.3785 54.1703C60.3713 54.1931 60.1996 54.1678 59.9765 54.1502C59.7184 54.1279 59.8928 54.8759 59.4982 54.8184C58.3043 54.6412 56.5149 53.8943 55.3222 53.2306C54.8734 52.9835 55.3922 52.5879 55.378 52.519C55.3195 52.226 55.2301 52.0882 55.1152 52.0406C54.8758 51.938 54.4095 52.5457 54.246 52.545C53.721 52.5266 53.1796 52.3712 52.2508 51.8487C51.7785 51.5646 51.1872 51.2291 50.2871 50.3435C49.456 49.5617 47.908 47.4113 47.9772 44.7702C48.0076 44.1066 48.073 43.3678 48.2236 42.5142C48.4186 41.5611 47.6458 42.0639 47.641 41.8583C47.8541 39.5325 48.3316 41.494 49.0051 40.2772C49.291 39.8195 49.6172 39.3702 49.9743 38.952C50.1486 38.871 50.4936 38.4241 51.1077 37.7483C51.7359 37.1031 52.6974 35.9751 54.834 35.1759C55.0487 35.0907 55.3172 34.9878 55.5629 34.8976C56.0731 34.712 55.2815 34.1904 55.7441 34.0344C57.2192 33.5447 58.3637 33.2967 59.5683 33.1108C60.539 32.9656 61.4302 32.901 62.3022 32.9006C62.668 32.9022 62.5629 33.4957 62.6622 33.6054C63.3551 34.3734 63.8109 33.0258 63.9339 32.8781C64.2317 32.5373 64.4571 32.4758 64.6578 32.4738C64.8593 32.4707 65.0675 32.5177 65.2146 32.4254C65.3008 32.3691 65.3556 32.319 65.2768 32.3244C65.2369 32.328 65.1571 32.3484 65.0259 32.4025C64.9028 32.4508 64.6946 32.5626 64.6335 32.5935C65.2096 32.1832 65.6008 31.9249 65.6589 31.8624C65.7397 31.8409 65.2972 31.8736 64.4157 33.3278C64.9817 32.3549 65.0898 32.2685 65.012 32.3835C64.9344 32.5153 64.7148 32.9571 64.6031 33.4162C64.359 34.3911 64.5189 35.0424 64.5771 35.1888C64.469 34.3681 64.2459 33.5298 64.2707 33.4616C64.2883 33.4668 64.3141 33.5031 64.4549 33.6902C63.8704 32.652 63.8619 32.7239 64.3711 32.9892C64.1137 32.7453 64.053 32.6917 64.3213 32.7567C64.5789 32.8251 65.1163 32.8696 65.3119 32.8154C64.6541 32.7767 64.032 32.7714 63.5441 32.8111C63.2986 32.8311 63.1052 32.8583 62.9039 32.9034C62.6993 32.9468 62.4507 33.0302 61.7549 33.2127C61.3508 33.3119 61.8587 33.8664 61.5988 34.0226C61.5927 34.0307 61.5849 34.0366 61.5751 34.0397C60.3055 34.4603 60.5203 34.3077 58.9366 35.2061C59.9717 34.549 60.1745 34.205 60.3647 34.0085C60.5279 33.8131 60.5714 33.7401 60.5919 33.7114C60.6225 33.6634 60.5453 33.7891 60.457 33.9604C60.2674 34.3194 60.0143 34.869 59.6456 35.6039C59.4803 35.9219 60.364 35.8086 60.0933 36.3664C59.707 37.0037 59.6267 37.623 57.6642 39.4071C57.1252 39.8419 56.3417 40.4655 54.8869 40.9876C53.467 41.545 50.9611 41.6679 49.1715 40.9298C45.5453 39.303 45.2653 37.7505 44.7306 36.9846C44.1085 35.6263 45.3192 36.8287 45.0769 36.0012C45.0954 36.0002 45.1094 35.9979 45.112 35.9832C45.1214 35.8774 44.9032 35.3593 44.7579 34.9324C44.6027 34.4902 44.4728 34.0731 44.3591 33.6945C44.1328 32.9357 43.9537 32.3048 43.757 31.7218C43.5924 31.2312 43.0643 32.1551 42.9057 31.4958C42.5973 30.1963 42.3811 29.0383 42.2082 27.896C42.1129 27.2542 42.0343 26.5656 42.0055 25.7605C41.9915 25.3611 41.9921 24.9245 42.0133 24.4936C42.0326 24.0796 42.0809 23.5967 42.0932 23.6093C42.2614 22.18 42.5168 20.7219 42.9053 19.4486C42.9651 19.2621 44.4276 19.0267 44.1257 18.669C43.7179 18.6668 43.2404 18.6989 42.8058 18.7161C42.7983 18.6638 42.7908 18.614 42.7837 18.5721C42.7473 18.3093 42.7081 18.2089 42.7298 18.349C42.7522 18.4799 42.8597 18.9014 43.1931 19.4182C42.4976 18.2909 42.4218 17.967 42.3603 17.8703C42.3212 17.7846 42.4213 17.9821 42.6295 18.2249C43.0571 18.7619 43.8248 19.1655 44.0519 19.1963C43.6292 19.0039 43.1524 18.8467 42.6671 18.7511C42.4264 18.7032 42.1835 18.6713 41.9727 18.6553C41.7722 18.6362 41.5565 18.6489 41.61 18.622C40.8156 18.7507 40.3617 18.8803 40.6093 18.7797C40.7013 18.7341 40.8179 19.5381 41.0694 19.4154C41.4795 19.2437 42.4628 18.4603 42.8683 17.6662C43.0349 17.3614 43.0424 17.3227 43.0628 17.2823C43.0766 17.2512 43.0722 17.2618 43.0639 17.2843C43.0457 17.333 43.0096 17.4328 42.9704 17.5446C42.8903 17.7723 42.7944 18.0522 42.6869 18.3431C42.471 18.9283 42.2053 19.5577 41.8341 20.2124C41.7384 20.3857 40.3868 20.1306 40.5365 20.7318C40.537 20.7334 40.5374 20.7352 40.5379 20.7371C40.5619 20.8766 40.7012 21.613 40.9969 21.8158C41.0416 21.8421 41.6801 21.715 41.6971 21.9539C41.774 23.1391 41.8373 24.7521 41.7843 26.3856C41.7733 26.6765 41.7596 26.9743 41.7421 27.2749C41.7231 27.5884 41.0033 27.3612 40.9846 27.5882C40.8589 29.2041 41.6728 30.8829 41.3405 32.549C41.1169 33.6679 39.8925 33.4864 38.8543 34.2483C38.7078 34.3559 38.7992 35.0135 38.1434 35.1658C36.4945 35.5506 34.6152 35.5601 32.8644 36.0076C32.4872 36.1037 33.0557 36.906 32.0394 36.5527C31.9711 36.5278 31.5507 35.9467 31.2094 35.8453C30.9732 35.7746 30.3353 36.0921 30.0181 35.9183C29.7012 35.7441 30.2217 35.398 29.8298 35.0837C29.4339 34.7695 28.6968 35.0703 28.4744 34.3375ZM28.7336 59.5541C29.4843 59.6309 27.4795 58.3176 27.8145 58.8348C27.8331 58.8609 28.698 59.548 28.7336 59.5541ZM8.56924 32.3818C8.00039 32.5609 8.10844 32.8078 8.46595 32.8754C8.82284 32.9486 9.41455 32.9104 9.82328 32.8964C10.63 32.9101 8.9123 32.2868 8.56924 32.3818ZM12.9918 30.8117C12.0578 30.0401 12.2083 33.4328 13.0359 32.6875C13.0835 32.6457 13.045 30.8568 12.9918 30.8117ZM38.0738 31.7142C38.0438 31.7277 38.0944 32.2002 38.1274 32.206C38.9192 32.3238 38.8179 31.3812 38.0738 31.7142ZM20.7585 29.8741C20.5083 29.3941 19.6949 29.8859 20.0049 30.4722C20.2415 30.9408 21.0577 30.4671 20.7585 29.8741ZM40.2364 73.3405C40.2323 73.3785 40.5425 73.5017 40.5864 73.303C40.7315 72.6733 40.2889 72.7292 40.2364 73.3405ZM33.841 32.1879C33.4718 32.0563 33.1257 31.8228 32.8571 31.5387C32.8531 31.5375 32.8408 31.5348 32.8368 31.5334C31.9506 30.5145 31.7077 28.7962 33.4422 29.3804L33.366 29.3608C33.402 29.373 33.4385 29.3864 33.4762 29.4011C33.6342 29.4628 33.4784 29.5885 33.277 29.7417L33.3363 29.7569C33.0141 29.9511 32.6283 30.2161 32.8901 30.4336C32.9615 30.4935 33.0341 30.5371 33.1083 30.568L33.0853 30.5621C33.6661 30.784 34.2105 30.1039 35.0003 30.3575C35.0161 30.3631 35.0611 30.3855 35.0765 30.3922C35.3647 30.5289 35.2987 30.5841 35.3869 30.8502C35.43 30.9738 34.9548 31.5091 34.3955 31.761L34.4131 31.769C34.123 32.0025 33.8774 32.2073 33.8369 32.1908C33.8383 32.1899 33.8397 32.1889 33.841 32.1879ZM31.2186 61.0206C31.2541 61.0314 31.5347 60.6455 31.5109 60.6177C30.9813 60.0338 30.4714 60.7281 31.2186 61.0206ZM51.688 62.0161C51.7431 61.9815 51.6824 60.96 51.625 60.9309C50.3192 60.4698 50.4531 62.7024 51.688 62.0161ZM20.7315 44.866C20.9108 44.3368 21.19 44.0328 21.4805 44.0506C21.7771 44.0322 22.0831 44.1793 22.3603 44.5147C22.1332 44.5463 21.9015 44.5928 21.6658 44.6534C21.3807 44.7213 21.0633 44.7968 20.7315 44.866Z" fill="#C1E480"/>
</svg>
