<svg width="259" height="456" viewBox="0 0 259 456" fill="none" xmlns="http://www.w3.org/2000/svg">
    <path d="M191.233 8.34154C195.847 8.34154 199.588 4.6068 199.588 -2.59952e-06L259 0C259 37.3668 228.66 67.6586 191.233 67.6586L67.7671 67.6586C63.1531 67.6586 59.4122 71.3931 59.4122 75.9999C59.4122 80.6069 63.1531 84.3415 67.7671 84.3415L191.233 84.3415C228.66 84.3415 259 114.633 259 152.001C259 189.367 228.66 219.658 191.233 219.658L67.7671 219.658C63.1531 219.658 59.4122 223.394 59.4122 228C59.4122 232.606 63.1531 236.342 67.7671 236.342L191.233 236.342C228.66 236.342 259 266.633 259 303.999C259 341.367 228.66 371.659 191.233 371.659L67.7671 371.659C63.1531 371.659 59.4122 375.393 59.4122 380.001C59.4122 384.607 63.1531 388.342 67.7671 388.342L191.233 388.342C228.66 388.342 259 418.634 259 456L199.588 456C199.588 451.394 195.847 447.658 191.233 447.658L67.7671 447.658C30.3408 447.658 1.95634e-05 417.367 2.11951e-05 380.001C2.2827e-05 342.633 30.3408 312.341 67.7671 312.341L191.233 312.341C195.847 312.341 199.588 308.607 199.588 303.999C199.588 299.393 195.847 295.658 191.233 295.658L67.7671 295.658C30.3408 295.658 2.62011e-05 265.366 2.78328e-05 228C2.94646e-05 190.634 30.3408 160.342 67.7671 160.342L191.233 160.342C195.847 160.342 199.588 156.607 199.588 152.001C199.588 147.393 195.847 143.659 191.233 143.659L67.7671 143.659C30.3408 143.659 3.28387e-05 113.367 3.44705e-05 75.9999C3.61023e-05 38.6331 30.3408 8.34153 67.7671 8.34153L191.233 8.34154Z" fill="#7D9BC7"/>
</svg>
