<svg width="319" height="452" viewBox="0 0 319 452" fill="none" xmlns="http://www.w3.org/2000/svg">
    <g clip-path="url(#clip0_206_334)">
        <rect width="319" height="452" rx="36" fill="#88A7D4"/>
        <path d="M62.7329 8.34154C67.3469 8.34154 71.0878 4.6068 71.0878 -2.59699e-06L130.5 0C130.5 37.3668 100.16 67.6586 62.7329 67.6586L-60.7329 67.6586C-65.3469 67.6586 -69.0878 71.3931 -69.0878 75.9999C-69.0878 80.6069 -65.3469 84.3415 -60.7329 84.3415L62.7329 84.3415C100.16 84.3415 130.5 114.633 130.5 152.001C130.5 189.367 100.16 219.658 62.7329 219.658L-60.7329 219.658C-65.3469 219.658 -69.0878 223.394 -69.0878 228C-69.0878 232.606 -65.3469 236.342 -60.7329 236.342L62.7329 236.342C100.16 236.342 130.5 266.633 130.5 303.999C130.5 341.367 100.16 371.659 62.7329 371.659L-60.7329 371.659C-65.3469 371.659 -69.0878 375.393 -69.0878 380.001C-69.0878 384.607 -65.3469 388.342 -60.7329 388.342L62.7329 388.342C100.16 388.342 130.5 418.634 130.5 456L71.0878 456C71.0878 451.394 67.3469 447.658 62.7329 447.658L-60.7329 447.658C-98.1592 447.658 -128.5 417.367 -128.5 380.001C-128.5 342.633 -98.1592 312.341 -60.7329 312.341L62.7329 312.341C67.3469 312.341 71.0878 308.607 71.0878 303.999C71.0878 299.393 67.3469 295.658 62.7329 295.658L-60.7329 295.658C-98.1592 295.658 -128.5 265.366 -128.5 228C-128.5 190.634 -98.1592 160.342 -60.7329 160.342L62.7329 160.342C67.3469 160.342 71.0878 156.607 71.0878 152.001C71.0878 147.393 67.3469 143.659 62.7329 143.659L-60.7329 143.659C-98.1592 143.659 -128.5 113.367 -128.5 75.9999C-128.5 38.6331 -98.1592 8.34153 -60.7329 8.34153L62.7329 8.34154Z" fill="#7D9BC7"/>
    </g>
    <defs>
        <clipPath id="clip0_206_334">
            <rect width="319" height="452" rx="36" fill="white"/>
        </clipPath>
    </defs>
</svg>
