<svg width="319" height="452" viewBox="0 0 319 452" fill="none" xmlns="http://www.w3.org/2000/svg">
    <g clip-path="url(#clip0_206_362)">
        <rect width="319" height="452" rx="36" fill="#88A7D4"/>
        <path d="M257.767 8.34154C253.153 8.34154 249.412 4.6068 249.412 -2.59699e-06L190 0C190 37.3668 220.34 67.6586 257.767 67.6586L381.233 67.6586C385.847 67.6586 389.588 71.3931 389.588 75.9999C389.588 80.6069 385.847 84.3415 381.233 84.3415L257.767 84.3415C220.34 84.3415 190 114.633 190 152.001C190 189.367 220.34 219.658 257.767 219.658L381.233 219.658C385.847 219.658 389.588 223.394 389.588 228C389.588 232.606 385.847 236.342 381.233 236.342L257.767 236.342C220.34 236.342 190 266.633 190 303.999C190 341.367 220.34 371.659 257.767 371.659L381.233 371.659C385.847 371.659 389.588 375.393 389.588 380.001C389.588 384.607 385.847 388.342 381.233 388.342L257.767 388.342C220.34 388.342 190 418.634 190 456L249.412 456C249.412 451.394 253.153 447.658 257.767 447.658L381.233 447.658C418.659 447.658 449 417.367 449 380.001C449 342.633 418.659 312.341 381.233 312.341L257.767 312.341C253.153 312.341 249.412 308.607 249.412 303.999C249.412 299.393 253.153 295.658 257.767 295.658L381.233 295.658C418.659 295.658 449 265.366 449 228C449 190.634 418.659 160.342 381.233 160.342L257.767 160.342C253.153 160.342 249.412 156.607 249.412 152.001C249.412 147.393 253.153 143.659 257.767 143.659L381.233 143.659C418.659 143.659 449 113.367 449 75.9999C449 38.6331 418.659 8.34153 381.233 8.34153L257.767 8.34154Z" fill="#7D9BC7"/>
    </g>
    <defs>
        <clipPath id="clip0_206_362">
            <rect width="319" height="452" rx="36" fill="white"/>
        </clipPath>
    </defs>
</svg>
