<svg width="600" height="452" viewBox="0 0 600 452" fill="none" xmlns="http://www.w3.org/2000/svg">
    <g clip-path="url(#clip0_206_319)">
        <rect width="600" height="452" rx="36" fill="#A7A7E3"/>
        <path fill-rule="evenodd" clip-rule="evenodd" d="M-4.07863 55.5L-77 13.3247L-23.2528 -79.8246L49.711 -37.7222L49.7522 -122H157.248L157.289 -37.7222L230.252 -79.8246L284 13.3247L211.078 55.5L284 97.6753L230.252 190.825L157.289 148.722L157.248 233H49.7522L49.711 148.722L-23.2528 190.825L-77 97.6753L-4.07863 55.5Z" fill="#9494D4"/>
        <path fill-rule="evenodd" clip-rule="evenodd" d="M421.389 168.473L397.622 134.053L441.508 103.372L465.309 137.768L483.215 99.7536L531.445 122.443L513.577 160.475L555.25 156.88L559.595 210.25L517.925 213.886L541.692 248.306L497.807 278.987L474.006 244.591L456.1 282.606L407.869 259.916L425.738 221.885L384.065 225.479L379.72 172.109L421.389 168.473Z" fill="#9494D4"/>
    </g>
    <defs>
        <clipPath id="clip0_206_319">
            <rect width="600" height="452" rx="36" fill="white"/>
        </clipPath>
    </defs>
</svg>
