<svg width="367" height="376" viewBox="0 0 367 376" fill="none" xmlns="http://www.w3.org/2000/svg">
    <rect x="0.706724" y="119.757" width="142" height="48" rx="24" transform="rotate(-43.1143 0.706724 119.757)" stroke="black"/>
    <path d="M29.8333 113.721C31.2933 112.354 32.835 111.425 34.4586 110.935C36.0821 110.446 37.6682 110.407 39.2167 110.82C40.7543 111.222 42.1355 112.077 43.3602 113.385C44.5741 114.681 45.3362 116.116 45.6467 117.688C45.9462 119.249 45.8036 120.829 45.2189 122.428C44.6233 124.016 43.5955 125.494 42.1355 126.861L36.5117 132.126L24.2094 118.986L29.8333 113.721ZM37.7484 130.146L35.7459 130.114L40.8441 125.341C41.9654 124.291 42.7442 123.156 43.1806 121.937C43.6169 120.717 43.7078 119.503 43.4533 118.295C43.2104 117.076 42.6188 115.964 41.6783 114.96C40.716 113.932 39.64 113.262 38.4504 112.952C37.2615 112.618 36.0442 112.629 34.7987 112.984C33.5531 113.339 32.3697 114.042 31.2484 115.092L26.1502 119.865L26.2664 117.882L37.7484 130.146ZM57.0804 113.296C55.9475 114.356 54.7407 115.081 53.4601 115.469C52.1803 115.834 50.9284 115.867 49.7044 115.566C48.4812 115.243 47.3939 114.573 46.4425 113.557C45.4802 112.529 44.8718 111.411 44.6172 110.203C44.3627 108.994 44.4478 107.786 44.8724 106.577C45.2971 105.369 46.0467 104.261 47.1213 103.255C48.1841 102.26 49.3314 101.625 50.563 101.348C51.7947 101.072 53.0257 101.158 54.2561 101.606C55.4873 102.031 56.6278 102.804 57.6776 103.926L48.1118 112.882L46.9144 111.603L55.7969 103.286L55.3921 104.75C54.6682 104.047 53.897 103.575 53.0786 103.333C52.2602 103.091 51.4457 103.075 50.6351 103.286C49.8244 103.497 49.0628 103.936 48.3504 104.603C47.5795 105.325 47.0555 106.112 46.7785 106.963C46.4905 107.802 46.4454 108.655 46.6433 109.522C46.8528 110.378 47.313 111.186 48.0238 111.945C48.7674 112.739 49.5936 113.259 50.5024 113.504C51.4113 113.749 52.3403 113.723 53.2897 113.426C54.239 113.129 55.1575 112.565 56.0452 111.733C56.8511 110.979 57.5137 110.106 58.0331 109.116C58.5641 108.115 58.9204 107.091 59.1021 106.044L60.2831 107.305C60.135 108.365 59.7772 109.434 59.2096 110.513C58.6311 111.581 57.9214 112.508 57.0804 113.296ZM67.7073 101.505L67.0766 102.096L62.9095 88.9011L64.6264 87.2936L68.9557 101.75L67.1687 103.423L53.0108 98.1687L54.7978 96.4956L67.7073 101.505ZM82.2198 89.7589C80.7599 91.1258 79.2013 92.048 77.5442 92.5255C75.8988 92.992 74.2909 93.007 72.7205 92.5704C71.1392 92.1222 69.7197 91.2265 68.4621 89.8833C67.1937 88.5284 66.3932 87.0531 66.0609 85.4574C65.7286 83.8617 65.8493 82.2582 66.423 80.6471C67.0085 79.025 68.0312 77.5305 69.4912 76.1635C70.9511 74.7966 72.5038 73.8799 74.1493 73.4134C75.7947 72.9468 77.4026 72.9319 78.973 73.3684C80.5434 73.805 81.9628 74.7007 83.2313 76.0556C84.4889 77.3988 85.2893 78.8741 85.6326 80.4815C85.9649 82.0772 85.8442 83.6806 85.2705 85.2918C84.6967 86.903 83.6798 88.392 82.2198 89.7589ZM80.8256 88.2697C81.9819 87.1871 82.7841 86.0306 83.2321 84.8002C83.6692 83.5581 83.7495 82.3212 83.4731 81.0896C83.1967 79.8579 82.5555 78.7048 81.5494 77.6303C80.5325 76.544 79.4186 75.8225 78.2078 75.4657C76.997 75.1089 75.763 75.1135 74.5057 75.4797C73.2485 75.8458 72.0417 76.5701 70.8854 77.6527C69.7291 78.7353 68.9269 79.8918 68.4789 81.1223C68.0309 82.3527 67.9392 83.5892 68.204 84.8318C68.4804 86.0634 69.1271 87.2224 70.144 88.3086C71.1501 89.3831 72.2585 90.0988 73.4693 90.4556C74.6918 90.8015 75.9371 90.7972 77.2053 90.4428C78.4625 90.0767 79.6693 89.3523 80.8256 88.2697ZM82.3105 70.7369L83.9223 69.2278L87.4161 72.9595L87.6238 73.3569L89.1164 74.9512L89.6797 75.3773L95.8636 81.9822L94.2518 83.4913L82.3105 70.7369ZM87.7782 74.8562C87.0728 73.5878 86.6221 72.3221 86.4259 71.0591C86.2415 69.7853 86.3207 68.5823 86.6636 67.4503C87.0182 66.3073 87.651 65.3094 88.562 64.4564C89.5315 63.5488 90.5922 62.9611 91.7443 62.6934C92.8965 62.4257 94.0436 62.4805 95.1858 62.8577C96.3397 63.2239 97.3978 63.921 98.3601 64.9488C99.3115 65.965 99.9374 67.0666 100.238 68.2538C100.539 69.4183 100.524 70.5724 100.192 71.7161C99.849 72.8481 99.1928 73.868 98.2234 74.7756C97.3123 75.6285 96.2749 76.1943 95.1111 76.473C93.959 76.7407 92.7534 76.7406 91.4944 76.4728C90.2362 76.1823 88.9974 75.6434 87.7782 74.8562ZM96.7133 66.4907C96.0134 65.7432 95.2379 65.2309 94.3867 64.9538C93.5472 64.6658 92.7053 64.6211 91.8611 64.8197C91.0177 64.9957 90.2514 65.4063 89.5623 66.0515C88.8615 66.7076 88.3663 67.478 88.0768 68.3628C87.7881 69.2249 87.6839 70.1554 87.7642 71.1541C87.8445 72.1529 88.0828 73.1682 88.4789 74.2001C89.4825 74.6633 90.4799 74.9678 91.4713 75.1136C92.4626 75.2595 93.4034 75.2225 94.2936 75.0028C95.1845 74.7604 95.9803 74.3112 96.6811 73.6551C97.3702 73.0099 97.8358 72.2781 98.0778 71.4598C98.3206 70.6188 98.3259 69.7699 98.0938 68.9133C97.8733 68.0457 97.4131 67.2382 96.7133 66.4907ZM111.939 56.082C112.53 56.7127 112.851 57.4421 112.903 58.2701C112.967 59.0872 112.751 59.9687 112.256 60.9146C111.772 61.8496 111.01 62.8037 109.971 63.7769C108.908 64.772 107.831 65.5063 106.74 65.9798C105.65 66.4306 104.626 66.6007 103.667 66.4899C102.708 66.3791 101.878 65.9839 101.176 65.3042L102.823 63.7623C103.319 64.1522 103.901 64.3638 104.568 64.3971C105.224 64.4187 105.914 64.2659 106.638 63.9388C107.361 63.6118 108.074 63.1202 108.775 62.464C109.791 61.5127 110.443 60.6172 110.731 59.7777C111.02 58.9156 110.912 58.2159 110.409 57.6786C110.016 57.2582 109.539 57.1236 108.979 57.275C108.409 57.4147 107.566 57.9076 106.452 58.7539L104.362 60.3491C103.328 61.1414 102.41 61.6829 101.608 61.9734C100.807 62.2413 100.109 62.3033 99.5137 62.1591C98.9076 62.0033 98.3858 61.6918 97.9484 61.2247C97.347 60.5823 97.0367 59.8646 97.0175 59.0715C96.9991 58.2559 97.2364 57.4091 97.7294 56.531C98.2115 55.6413 98.9139 54.7645 99.8366 53.9006C100.818 52.9821 101.819 52.3075 102.841 51.8771C103.874 51.4356 104.854 51.2528 105.779 51.3286C106.705 51.4043 107.497 51.7474 108.157 52.3577L106.527 53.8832C106.119 53.5641 105.627 53.3894 105.05 53.3591C104.463 53.3172 103.819 53.4488 103.118 53.754C102.43 54.0483 101.706 54.5508 100.946 55.2616C100.012 56.1364 99.4078 56.9542 99.1337 57.7149C98.8713 58.4647 98.9806 59.0966 99.4618 59.6105C99.8117 59.9842 100.26 60.1235 100.806 60.0283C101.353 59.9331 102.102 59.5276 103.054 58.8118L105.44 57.0056C106.52 56.1696 107.455 55.6004 108.246 55.2982C109.037 54.9959 109.725 54.9223 110.308 55.0774C110.904 55.2215 111.447 55.5564 111.939 56.082Z" fill="black"/>
</svg>
