
<svg width="367" height="376" viewBox="0 0 367 376" fill="none" xmlns="http://www.w3.org/2000/svg">
<rect x="255.195" y="194.006" width="144" height="43" rx="21.5" transform="rotate(39.6991 255.195 194.006)" stroke="black"/>
<path d="M280.249 233.651L270.668 245.192L269.283 244.042L278.583 232.84L279.139 233.328L264.02 239.673L262.481 238.396L265.924 222.382L266.506 222.84L257.218 234.027L255.833 232.877L265.415 221.336L267.6 223.15L264.121 238.925L263.213 238.172L278.064 231.837L280.249 233.651ZM277.575 251.264C276.559 250.421 275.819 249.486 275.354 248.459C274.9 247.441 274.743 246.409 274.883 245.364C275.022 244.319 275.463 243.35 276.204 242.458C276.953 241.555 277.824 240.944 278.817 240.625C279.81 240.305 280.849 240.275 281.934 240.534C283.028 240.802 284.084 241.358 285.099 242.201C286.125 243.052 286.865 243.987 287.319 245.006C287.774 246.024 287.935 247.051 287.804 248.085C287.683 249.129 287.248 250.102 286.498 251.004C285.757 251.897 284.881 252.504 283.869 252.825C282.868 253.155 281.825 253.19 280.74 252.931C279.656 252.671 278.601 252.116 277.575 251.264ZM278.558 250.079C279.317 250.71 280.085 251.121 280.86 251.315C281.644 251.497 282.393 251.461 283.108 251.205C283.833 250.958 284.481 250.491 285.052 249.804C285.614 249.127 285.95 248.409 286.059 247.651C286.179 246.901 286.077 246.158 285.753 245.421C285.429 244.684 284.887 244 284.128 243.37C283.379 242.748 282.608 242.342 281.814 242.15C281.03 241.968 280.28 242.004 279.566 242.26C278.851 242.515 278.212 242.982 277.65 243.659C277.08 244.346 276.734 245.065 276.614 245.814C276.495 246.564 276.597 247.307 276.921 248.044C277.264 248.779 277.809 249.458 278.558 250.079ZM288.085 259.99C287.295 259.334 286.755 258.617 286.465 257.839C286.194 257.06 286.165 256.238 286.378 255.376C286.602 254.522 287.072 253.664 287.787 252.802L291.735 248.047L293.15 249.223L289.395 253.747C288.543 254.773 288.126 255.744 288.145 256.661C288.172 257.567 288.627 258.387 289.509 259.119C290.135 259.639 290.794 259.951 291.486 260.058C292.186 260.154 292.877 260.052 293.559 259.752C294.241 259.452 294.864 258.963 295.426 258.286L295.711 259.069C294.926 259.89 294.08 260.47 293.174 260.81C292.279 261.158 291.394 261.264 290.52 261.127C289.645 260.991 288.834 260.611 288.085 259.99ZM292.236 263.098L294.212 259.748L298.952 254.039L300.367 255.214L295.449 261.139L293.652 264.274L292.236 263.098ZM300.715 257.426L301.277 256.749L303.479 257.979L306.003 256.098L306.849 256.8L304.984 259.047L309.2 262.547L308.255 263.686L304.039 260.186L300.385 264.587C299.738 265.366 299.451 266.056 299.526 266.655C299.619 267.252 300.025 267.849 300.743 268.445C301.215 268.837 301.672 269.121 302.115 269.298C302.567 269.483 303.052 269.608 303.57 269.674L302.535 270.92C302.161 270.87 301.678 270.711 301.085 270.444C300.502 270.186 299.954 269.844 299.441 269.418C298.662 268.771 298.141 268.113 297.881 267.446C297.639 266.778 297.602 266.123 297.77 265.483C297.956 264.84 298.296 264.222 298.79 263.627L302.623 259.01L300.715 257.426ZM310.923 263.925L311.529 264.636L312.339 265.101L305.121 273.795L303.705 272.62L310.923 263.925ZM312.676 263.223C312.389 262.985 312.215 262.693 312.155 262.348C312.113 262.002 312.203 261.695 312.424 261.429C312.654 261.152 312.939 261.007 313.279 260.994C313.637 260.98 313.96 261.092 314.247 261.33C314.555 261.586 314.73 261.887 314.771 262.233C314.822 262.57 314.732 262.876 314.502 263.153C314.28 263.42 313.995 263.565 313.647 263.588C313.308 263.6 312.984 263.479 312.676 263.223ZM311.867 279.734C310.852 278.891 310.112 277.956 309.647 276.929C309.193 275.911 309.036 274.879 309.175 273.834C309.315 272.789 309.755 271.82 310.496 270.927C311.246 270.025 312.117 269.414 313.11 269.094C314.103 268.775 315.142 268.745 316.226 269.004C317.321 269.272 318.376 269.827 319.392 270.67C320.418 271.522 321.158 272.457 321.612 273.475C322.067 274.494 322.228 275.52 322.097 276.555C321.976 277.598 321.541 278.571 320.791 279.474C320.05 280.367 319.174 280.973 318.162 281.294C317.161 281.624 316.118 281.659 315.033 281.4C313.949 281.141 312.893 280.586 311.867 279.734ZM312.851 278.549C313.61 279.179 314.378 279.591 315.153 279.784C315.937 279.967 316.686 279.931 317.401 279.675C318.126 279.428 318.774 278.961 319.345 278.273C319.907 277.596 320.243 276.878 320.352 276.12C320.472 275.371 320.37 274.627 320.046 273.89C319.722 273.154 319.18 272.47 318.421 271.84C317.672 271.218 316.901 270.811 316.106 270.62C315.323 270.437 314.573 270.473 313.858 270.729C313.144 270.985 312.505 271.451 311.943 272.128C311.372 272.816 311.027 273.534 310.907 274.284C310.787 275.034 310.89 275.777 311.214 276.514C311.556 277.249 312.102 277.927 312.851 278.549ZM325.751 276.287L327.166 277.462L325.219 280.81L320.466 286.535L319.051 285.359L323.969 279.435L325.751 276.287ZM331.41 280.648C332.221 281.32 332.772 282.055 333.063 282.852C333.364 283.638 333.407 284.463 333.193 285.325C332.988 286.178 332.528 287.035 331.813 287.896L327.853 292.667L326.437 291.491L330.193 286.967C331.053 285.931 331.459 284.951 331.411 284.028C331.382 283.103 330.911 282.261 329.998 281.503C329.362 280.975 328.684 280.654 327.963 280.541C327.253 280.437 326.551 280.53 325.859 280.822C325.185 281.112 324.567 281.595 324.005 282.272L323.768 281.399C324.555 280.597 325.393 280.037 326.282 279.717C327.171 279.398 328.053 279.316 328.929 279.472C329.824 279.625 330.651 280.017 331.41 280.648Z" fill="black"/>
</svg>
