<svg width="367" height="376" viewBox="0 0 367 376" fill="none" xmlns="http://www.w3.org/2000/svg">
<rect x="39.6368" y="255.847" width="195" height="57" rx="28.5" transform="rotate(-19.2252 39.6368 255.847)" stroke="black"/>
<path d="M79.3689 272.174L79.4484 271.333C81.2884 270.714 82.8674 270.48 84.1851 270.63C85.4957 270.76 86.571 271.188 87.4109 271.911C88.2437 272.615 88.8497 273.511 89.2291 274.598C89.6435 275.787 89.7202 276.946 89.4592 278.077C89.2113 279.18 88.6247 280.186 87.6995 281.097C86.7742 282.007 85.4958 282.746 83.8641 283.315L69.5722 288.299L67.2982 276.045L61.6695 265.638L75.4477 260.833C77.5427 260.102 79.3162 260.037 80.7683 260.638C82.2335 261.211 83.2612 262.344 83.8512 264.036C84.1603 264.923 84.2443 265.876 84.1032 266.897C83.9752 267.89 83.5432 268.854 82.8072 269.789C82.0642 270.703 80.9181 271.498 79.3689 272.174ZM72.1463 286.351L70.5633 285.31L82.8912 281.011C84.3818 280.491 85.4241 279.755 86.0182 278.802C86.6254 277.822 86.7077 276.698 86.2652 275.429C85.7945 274.079 84.9392 273.214 83.6993 272.833C82.4594 272.452 80.8725 272.599 78.9387 273.273L69.1489 276.687L68.3481 274.391L77.9869 271.029C79.276 270.58 80.2207 269.855 80.8209 268.855C81.4412 267.848 81.516 266.669 81.0454 265.32C80.7012 264.333 80.0677 263.65 79.1449 263.271C78.2352 262.866 77.1056 262.898 75.7559 263.369L64.3043 267.362L64.8968 265.563L70.0478 275.086L72.1463 286.351ZM111.121 273.81L108.272 267.585L108.3 265.237L106.829 263.445L105.188 256.799L108.029 255.808L110.204 264.573L113.961 272.819L111.121 273.81ZM109.237 264.91C109.412 266.837 109.272 268.637 108.816 270.31C108.373 271.955 107.627 273.379 106.577 274.581C105.548 275.776 104.248 276.647 102.677 277.195C101.005 277.778 99.3942 277.922 97.8451 277.626C96.2889 277.31 94.9064 276.618 93.6975 275.548C92.5016 274.451 91.5981 273.027 90.987 271.274C90.3688 269.502 90.1905 267.824 90.4521 266.242C90.7337 264.652 91.3892 263.26 92.4185 262.065C93.4478 260.87 94.7984 259.981 96.4703 259.398C98.0415 258.85 99.6017 258.724 101.151 259.02C102.72 259.309 104.2 259.956 105.59 260.963C106.98 261.969 108.196 263.285 109.237 264.91ZM93.8273 270.284C94.2768 271.573 94.9356 272.62 95.8035 273.424C96.6916 274.222 97.6973 274.741 98.8206 274.982C99.957 275.195 101.119 275.095 102.308 274.68C103.517 274.259 104.53 273.601 105.347 272.706C106.178 271.783 106.814 270.692 107.255 269.431C107.717 268.163 107.974 266.796 108.029 265.331C107.075 264.218 106.024 263.308 104.874 262.602C103.744 261.889 102.571 261.44 101.354 261.254C100.15 261.041 98.9435 261.145 97.7349 261.567C96.5464 261.981 95.5771 262.636 94.8271 263.53C94.0901 264.397 93.6218 265.419 93.4222 266.595C93.2426 267.765 93.3777 268.995 93.8273 270.284ZM133.933 258.602C134.182 260.029 134.042 261.411 133.514 262.747C133.006 264.077 132.179 265.269 131.033 266.324C129.888 267.378 128.499 268.19 126.867 268.759C124.974 269.42 123.172 269.63 121.461 269.391C119.744 269.131 118.241 268.48 116.951 267.439C115.675 266.37 114.731 264.96 114.12 263.207C113.509 261.455 113.374 259.773 113.716 258.163C114.072 256.525 114.844 255.081 116.035 253.83C117.225 252.578 118.767 251.623 120.661 250.962C122.292 250.393 123.885 250.166 125.438 250.279C126.985 250.373 128.37 250.782 129.594 251.507C130.839 252.225 131.811 253.231 132.51 254.523L129.64 255.524C128.846 254.22 127.704 253.375 126.214 252.991C124.738 252.579 123.154 252.669 121.462 253.259C120.092 253.737 118.988 254.426 118.15 255.329C117.333 256.224 116.814 257.263 116.595 258.447C116.368 259.61 116.49 260.867 116.96 262.217C117.431 263.566 118.12 264.636 119.029 265.427C119.937 266.217 120.989 266.708 122.186 266.901C123.396 267.067 124.686 266.91 126.056 266.433C127.768 265.836 129.074 264.917 129.975 263.677C130.895 262.429 131.258 261.071 131.062 259.603L133.933 258.602ZM141.366 260.382L140.445 260.364L147.267 242.125L150.531 240.987L142.081 263.013L139.482 263.92L131.368 240.654L134.148 239.684L141.366 260.382ZM145.132 252.426L146.188 249.719L157.007 257.808L153.683 258.967L145.132 252.426ZM167.655 254.536C165.701 255.217 163.838 255.448 162.068 255.23C160.31 254.984 158.766 254.348 157.437 253.32C156.12 252.266 155.156 250.862 154.545 249.11C153.927 247.337 153.789 245.646 154.131 244.035C154.473 242.425 155.229 240.997 156.399 239.753C157.57 238.509 159.081 237.564 160.935 236.918C162.768 236.279 164.51 236.123 166.16 236.451C167.811 236.779 169.266 237.548 170.524 238.759C171.795 239.942 172.768 241.501 173.442 243.435L156.944 249.188L156.175 246.982L171.494 241.64L170.211 243.206C169.708 241.958 169.023 240.966 168.156 240.229C167.289 239.492 166.304 239.033 165.202 238.853C164.1 238.672 162.934 238.796 161.705 239.225C160.376 239.688 159.312 240.364 158.515 241.252C157.711 242.12 157.195 243.136 156.968 244.3C156.761 245.456 156.886 246.689 157.343 247.998C157.821 249.368 158.547 250.448 159.523 251.237C160.499 252.027 161.645 252.497 162.963 252.647C164.281 252.798 165.705 252.606 167.236 252.072C168.626 251.587 169.905 250.881 171.073 249.955C172.261 249.021 173.248 247.965 174.035 246.787L174.793 248.962C174.041 250.173 173.027 251.284 171.753 252.293C170.471 253.282 169.105 254.03 167.655 254.536ZM172.864 233.198L175.644 232.229L178.624 237.663L182.543 248.903L179.764 249.872L175.707 238.239L172.864 233.198ZM183.514 229.044C185.106 228.489 186.568 228.34 187.9 228.599C189.226 228.837 190.392 229.458 191.397 230.463C192.396 231.448 193.19 232.786 193.78 234.478L197.047 243.845L194.267 244.814L191.169 235.931C190.46 233.897 189.452 232.531 188.147 231.834C186.856 231.109 185.313 231.06 183.52 231.685C182.271 232.12 181.272 232.785 180.522 233.679C179.792 234.567 179.341 235.605 179.168 236.795C179.009 237.958 179.161 239.204 179.625 240.533L178.233 240.137C177.784 238.396 177.707 236.785 178.004 235.303C178.301 233.821 178.917 232.545 179.854 231.472C180.804 230.373 182.024 229.563 183.514 229.044ZM217.495 236.714L214.625 230.429L214.746 228.15L213.242 226.268L210.016 213.227L212.856 212.237L216.536 227.356L220.335 235.724L217.495 236.714ZM215.581 227.825C215.756 229.752 215.616 231.552 215.16 233.225C214.717 234.87 213.971 236.294 212.921 237.496C211.892 238.691 210.592 239.562 209.021 240.11C207.349 240.693 205.738 240.837 204.189 240.541C202.633 240.225 201.251 239.532 200.042 238.463C198.846 237.366 197.942 235.941 197.331 234.189C196.713 232.416 196.535 230.739 196.796 229.156C197.078 227.567 197.733 226.175 198.763 224.98C199.792 223.785 201.142 222.896 202.814 222.313C204.386 221.765 205.946 221.639 207.495 221.935C209.064 222.224 210.544 222.871 211.934 223.877C213.324 224.884 214.54 226.199 215.581 227.825ZM200.171 233.198C200.621 234.488 201.28 235.534 202.148 236.339C203.036 237.136 204.041 237.655 205.165 237.896C206.301 238.11 207.464 238.01 208.652 237.595C209.861 237.174 210.874 236.515 211.691 235.62C212.522 234.698 213.158 233.606 213.599 232.345C214.061 231.077 214.319 229.711 214.373 228.246C213.419 227.133 212.368 226.223 211.218 225.517C210.088 224.804 208.915 224.354 207.698 224.169C206.494 223.956 205.288 224.06 204.079 224.482C202.891 224.896 201.921 225.55 201.171 226.445C200.434 227.312 199.966 228.333 199.766 229.51C199.587 230.68 199.722 231.909 200.171 233.198Z" fill="black"/>

</svg>