<svg width="367" height="376" viewBox="0 0 367 376" fill="none" xmlns="http://www.w3.org/2000/svg">
    <rect x="249.298" y="16.6546" width="125" height="43" rx="21.5" transform="rotate(22.7716 249.298 16.6546)" stroke="black"/>
    <path d="M270.083 50.2805C269.704 51.1482 269.189 51.8935 268.537 52.5164C267.897 53.1444 267.155 53.6209 266.31 53.9459C265.483 54.2637 264.578 54.4044 263.595 54.3679C262.625 54.3366 261.617 54.1016 260.572 53.663C259.466 53.1985 258.515 52.6042 257.72 51.88C256.943 51.1487 256.341 50.3251 255.916 49.4091C255.503 48.4982 255.295 47.529 255.293 46.5013C255.296 45.4613 255.524 44.4003 255.978 43.3185C256.432 42.2366 257.027 41.3366 257.762 40.6186C258.515 39.8934 259.367 39.3618 260.319 39.0238C261.271 38.6858 262.283 38.5469 263.357 38.6072C264.436 38.6552 265.541 38.9166 266.672 39.3914C268.024 39.9591 269.121 40.6871 269.963 41.5755C270.817 42.469 271.396 43.4496 271.7 44.517C272.009 45.5722 272.011 46.6358 271.705 47.7078L269.935 46.9647C270.114 46.158 270.074 45.3748 269.815 44.6151C269.561 43.8432 269.111 43.1409 268.465 42.5085C267.832 41.8811 267.005 41.3533 265.985 40.925C264.792 40.4244 263.658 40.2157 262.582 40.299C261.518 40.3875 260.565 40.7465 259.722 41.3761C258.892 42.0108 258.234 42.906 257.749 44.0616C257.269 45.205 257.097 46.304 257.232 47.3587C257.368 48.4134 257.789 49.3566 258.496 50.1882C259.202 51.0198 260.158 51.6885 261.363 52.1943C262.543 52.6897 263.66 52.9055 264.713 52.8416C265.779 52.7829 266.715 52.4818 267.522 51.9383C268.328 51.3948 268.948 50.6426 269.38 49.6817L270.083 50.2805ZM263.717 48.4974L264.298 47.1144L270.973 49.9167L268.179 56.5739L266.832 56.0088L269.128 50.0749L269.36 50.8662L263.717 48.4974ZM274.632 47.0711L276.329 47.7833L275.433 51.5717L272.561 58.4133L270.864 57.7011L273.868 50.546L274.632 47.0711ZM282.448 50.3087L281.806 51.8393C281.603 51.6675 281.35 51.4961 281.046 51.325C280.754 51.1591 280.466 51.0168 280.184 50.8981C279.446 50.5885 278.719 50.4783 278.001 50.5677C277.284 50.6571 276.632 50.9544 276.044 51.4595C275.461 51.9523 274.989 52.629 274.627 53.4896L274.427 52.6244C274.756 51.9094 275.154 51.2884 275.621 50.7614C276.088 50.2344 276.605 49.8297 277.172 49.5471C277.756 49.2573 278.37 49.1031 279.015 49.0842C279.676 49.0583 280.351 49.1898 281.04 49.4788C281.298 49.5872 281.554 49.7166 281.809 49.867C282.077 50.0226 282.29 50.1699 282.448 50.3087ZM289.047 65.3342L290.328 61.2514L291.323 60.1725L291.388 58.725L293.406 54.9519L295.139 55.6795L292.484 60.6602L290.781 66.0619L289.047 65.3342ZM291.894 60.4125C291.17 61.3808 290.352 62.1582 289.44 62.7445C288.547 63.3236 287.605 63.6729 286.615 63.7924C285.637 63.917 284.669 63.778 283.71 63.3754C282.689 62.9471 281.881 62.3403 281.285 61.5552C280.694 60.7577 280.342 59.8578 280.228 58.8554C280.131 57.8459 280.307 56.8064 280.756 55.7368C281.21 54.6549 281.829 53.8012 282.612 53.1756C283.407 52.5551 284.294 52.1826 285.272 52.058C286.25 51.9334 287.249 52.0853 288.269 52.5136C289.228 52.9162 290.005 53.51 290.601 54.2952C291.21 55.0855 291.626 56.0051 291.851 57.0539C292.076 58.1027 292.09 59.2222 291.894 60.4125ZM282.489 56.4645C282.159 57.2513 282.027 58.013 282.094 58.7496C282.173 59.4914 282.423 60.153 282.844 60.7347C283.283 61.3092 283.865 61.7487 284.59 62.0532C285.328 62.3628 286.073 62.4807 286.828 62.4068C287.599 62.3257 288.351 62.0847 289.083 61.6835C289.828 61.2875 290.519 60.7606 291.157 60.1028C291.18 59.187 291.072 58.3247 290.833 57.5158C290.606 56.7121 290.249 56.0127 289.761 55.4176C289.291 54.8153 288.687 54.3594 287.95 54.0497C287.224 53.7452 286.5 53.6438 285.778 53.7455C285.073 53.84 284.428 54.1188 283.844 54.5819C283.271 55.0501 282.82 55.6777 282.489 56.4645ZM304.737 56.5634C303.828 56.1815 303.056 56.0892 302.424 56.2865C301.809 56.4767 301.303 57.0451 300.906 57.9918L296.509 68.4663L294.812 67.7541L299.093 57.5562C299.434 56.7448 299.886 56.0814 300.449 55.5659C301.013 55.0505 301.685 54.74 302.467 54.6343C303.249 54.5287 304.144 54.6875 305.152 55.1107C305.644 55.3171 306.053 55.5469 306.381 55.8001C306.726 56.0461 307.036 56.3065 307.311 56.581L306.715 58.001C306.46 57.6772 306.17 57.4036 305.845 57.1802C305.537 56.9497 305.168 56.7441 304.737 56.5634ZM296.058 58.4297L296.639 57.0466L305.528 60.7779L304.947 62.1609L296.058 58.4297ZM307.816 60.9578L308.603 61.4614L309.513 61.67L305.139 72.0892L303.443 71.377L307.816 60.9578ZM309.307 59.7832C308.951 59.6336 308.699 59.4052 308.554 59.0982C308.413 58.7788 308.412 58.4532 308.552 58.1212C308.686 57.8016 308.914 57.5863 309.235 57.4754C309.561 57.3521 309.903 57.3653 310.259 57.515C310.628 57.6698 310.883 57.9069 311.024 58.2263C311.17 58.5333 311.175 58.8467 311.041 59.1663C310.902 59.4982 310.669 59.7258 310.342 59.8491C310.021 59.96 309.676 59.9381 309.307 59.7832ZM320.59 73.9333C320.109 74.7002 319.466 75.2837 318.662 75.6836C317.87 76.0887 316.988 76.2966 316.015 76.3074C315.041 76.3181 314.057 76.1145 313.061 75.6964C311.905 75.2113 310.98 74.5555 310.286 73.7291C309.597 72.8903 309.171 71.9595 309.007 70.9365C308.861 69.9063 309.013 68.8565 309.462 67.7869C309.911 66.7173 310.551 65.88 311.384 65.275C312.234 64.6629 313.197 64.3152 314.273 64.2319C315.349 64.1486 316.465 64.3495 317.62 64.8346C318.616 65.2527 319.451 65.8128 320.125 66.5151C320.804 67.2051 321.277 67.9746 321.542 68.8235C321.82 69.6776 321.851 70.551 321.635 71.4438L319.883 70.7083C320.06 69.7704 319.883 68.9006 319.352 68.0992C318.838 67.2907 318.065 66.6697 317.032 66.2362C316.196 65.8852 315.395 65.7441 314.628 65.8129C313.874 65.8868 313.199 66.1527 312.602 66.6106C312.01 67.0562 311.541 67.6909 311.195 68.5146C310.849 69.3383 310.722 70.1236 310.814 70.8705C310.905 71.6174 311.188 72.2858 311.664 72.8758C312.156 73.4587 312.821 73.9255 313.657 74.2765C314.702 74.7151 315.693 74.8347 316.63 74.6351C317.579 74.4407 318.315 73.9616 318.838 73.1979L320.59 73.9333ZM330.81 82.8653L332.09 78.7825L333.085 77.7036L333.151 76.2561L335.168 72.4829L336.902 73.2106L334.247 78.1913L332.544 83.5929L330.81 82.8653ZM333.657 77.9436C332.932 78.9119 332.114 79.6892 331.203 80.2755C330.309 80.8547 329.367 81.204 328.377 81.3234C327.399 81.448 326.431 81.309 325.472 80.9065C324.452 80.4782 323.644 79.8714 323.048 79.0862C322.457 78.2888 322.105 77.3889 321.99 76.3865C321.893 75.377 322.07 74.3375 322.519 73.2679C322.973 72.186 323.591 71.3323 324.375 70.7066C325.17 70.0862 326.057 69.7137 327.034 69.5891C328.012 69.4645 329.011 69.6164 330.032 70.0447C330.991 70.4472 331.768 71.0411 332.364 71.8263C332.972 72.6166 333.389 73.5362 333.614 74.585C333.838 75.6338 333.853 76.7533 333.657 77.9436ZM324.252 73.9956C323.922 74.7824 323.79 75.5441 323.857 76.2807C323.936 77.0224 324.186 77.6841 324.607 78.2657C325.045 78.8402 325.627 79.2797 326.353 79.5842C327.09 79.8939 327.836 80.0117 328.59 79.9378C329.362 79.8568 330.114 79.6157 330.846 79.2146C331.591 78.8186 332.282 78.2917 332.919 77.6339C332.942 76.7181 332.834 75.8557 332.595 75.0469C332.369 74.2432 332.012 73.5438 331.524 72.9487C331.054 72.3464 330.45 71.8904 329.712 71.5808C328.987 71.2763 328.263 71.1749 327.541 71.2766C326.836 71.3711 326.191 71.6499 325.606 72.113C325.034 72.5812 324.582 73.2087 324.252 73.9956ZM341.042 70.4585L342.738 71.1707L336.778 85.3703L335.081 84.6581L341.042 70.4585Z" fill="black"/>

</svg>