

<svg width="367" height="376" viewBox="0 0 367 376" fill="none" xmlns="http://www.w3.org/2000/svg">
<rect x="60.5472" y="122.013" width="150" height="48" rx="24" transform="rotate(-15.6998 60.5472 122.013)" stroke="black"/>
<path d="M87.2075 144.68L86.688 142.832L98.8872 139.403L99.4068 141.251L87.2075 144.68ZM91.0075 129.552L104.404 144.484L102.047 145.146L89.367 130.811L90.5222 130.486L87.1447 149.335L84.788 149.997L88.4429 130.273L91.0075 129.552ZM102.068 131.105L104.194 130.507L106.174 134.712L108.59 143.307L106.464 143.905L103.964 135.009L102.068 131.105ZM110.232 128.486C111.449 128.144 112.55 128.1 113.536 128.355C114.517 128.594 115.361 129.113 116.068 129.912C116.77 130.695 117.303 131.734 117.667 133.027L119.68 140.19L117.554 140.787L115.645 133.995C115.208 132.439 114.517 131.37 113.572 130.788C112.638 130.186 111.486 130.078 110.115 130.463C109.16 130.732 108.381 131.183 107.778 131.818C107.191 132.448 106.805 133.205 106.621 134.088C106.449 134.951 106.505 135.891 106.791 136.907L105.767 136.547C105.511 135.223 105.528 134.013 105.819 132.917C106.109 131.822 106.63 130.894 107.38 130.135C108.142 129.356 109.092 128.806 110.232 128.486ZM119.262 126.222L120.377 126.108L121.388 125.624L125.057 138.678L122.932 139.276L119.262 126.222ZM119.763 124.012C119.332 124.133 118.925 124.106 118.544 123.931C118.173 123.736 117.932 123.438 117.819 123.038C117.702 122.622 117.753 122.242 117.972 121.898C118.202 121.534 118.533 121.291 118.964 121.17C119.426 121.04 119.843 121.073 120.213 121.268C120.58 121.447 120.821 121.745 120.938 122.161C121.051 122.561 121 122.941 120.785 123.301C120.566 123.645 120.225 123.882 119.763 124.012ZM124.248 124.87L126.373 124.273L128.353 128.478L130.769 137.073L128.644 137.67L126.143 128.775L124.248 124.87ZM131.996 122.368C133.12 122.052 134.145 122.03 135.069 122.302C135.988 122.559 136.786 123.091 137.462 123.898C138.133 124.69 138.651 125.733 139.014 127.027L141.028 134.189L138.902 134.787L136.993 127.994C136.555 126.438 135.903 125.359 135.035 124.755C134.163 124.136 133.111 123.999 131.879 124.346C131.001 124.593 130.291 125.025 129.75 125.642C129.224 126.255 128.893 126.997 128.755 127.866C128.613 128.721 128.684 129.656 128.97 130.673L127.946 130.312C127.691 128.988 127.685 127.785 127.929 126.702C128.189 125.616 128.663 124.701 129.352 123.959C130.052 123.197 130.933 122.667 131.996 122.368ZM142.231 119.491C143.356 119.175 144.38 119.153 145.304 119.425C146.239 119.678 147.045 120.208 147.72 121.015C148.392 121.807 148.909 122.85 149.273 124.143L151.286 131.306L149.16 131.903L147.251 125.111C146.814 123.555 146.161 122.475 145.294 121.871C144.421 121.252 143.369 121.116 142.137 121.462C141.259 121.709 140.55 122.141 140.008 122.759C139.483 123.372 139.151 124.113 139.013 124.983C138.871 125.837 138.943 126.773 139.229 127.789L138.205 127.429C137.949 126.105 137.943 124.901 138.187 123.819C138.447 122.732 138.921 121.818 139.61 121.076C140.31 120.314 141.184 119.786 142.231 119.491ZM166.904 126.916L165.058 122.125L165.188 120.368L164.169 118.959L163.247 113.908L165.419 113.298L166.643 119.959L169.076 126.306L166.904 126.916ZM165.904 120.167C165.946 121.617 165.758 122.958 165.34 124.19C164.932 125.401 164.308 126.432 163.467 127.284C162.641 128.131 161.628 128.723 160.426 129.061C159.148 129.42 157.936 129.453 156.79 129.161C155.639 128.852 154.636 128.27 153.781 127.414C152.936 126.537 152.326 125.429 151.949 124.089C151.568 122.734 151.512 121.47 151.78 120.297C152.065 119.121 152.62 118.109 153.445 117.262C154.271 116.415 155.323 115.811 156.601 115.452C157.803 115.114 158.976 115.092 160.122 115.385C161.284 115.673 162.362 116.226 163.356 117.044C164.35 117.861 165.2 118.902 165.904 120.167ZM154.121 123.479C154.398 124.465 154.843 125.279 155.455 125.921C156.083 126.559 156.812 126.994 157.642 127.226C158.483 127.438 159.358 127.417 160.266 127.161C161.191 126.901 161.979 126.455 162.633 125.823C163.297 125.171 163.823 124.383 164.212 123.459C164.616 122.531 164.872 121.521 164.98 120.426C164.318 119.549 163.572 118.819 162.744 118.238C161.931 117.652 161.074 117.261 160.171 117.066C159.28 116.852 158.372 116.874 157.448 117.134C156.539 117.389 155.783 117.834 155.181 118.469C154.589 119.084 154.191 119.827 153.988 120.699C153.799 121.566 153.844 122.493 154.121 123.479ZM167.439 114.575L167.153 113.558L169.868 112.222L169.73 108.446L171 108.089L171.949 111.462L178.279 109.683L178.76 111.393L172.429 113.172L174.287 119.78C174.616 120.951 175.101 121.703 175.744 122.038C176.398 122.353 177.263 122.359 178.342 122.056C179.05 121.856 179.642 121.599 180.119 121.282C180.61 120.961 181.064 120.567 181.482 120.101L182.008 121.972C181.703 122.307 181.217 122.677 180.549 123.08C179.897 123.48 179.186 123.788 178.416 124.004C177.245 124.333 176.241 124.399 175.405 124.202C174.58 123.986 173.908 123.576 173.389 122.974C172.882 122.352 172.503 121.594 172.252 120.701L170.304 113.77L167.439 114.575ZM190.957 120.479C189.463 120.899 188.058 120.987 186.742 120.741C185.438 120.476 184.312 119.929 183.364 119.098C182.427 118.248 181.77 117.153 181.393 115.813C181.012 114.457 180.987 113.185 181.317 111.995C181.648 110.805 182.279 109.772 183.213 108.894C184.146 108.017 185.322 107.379 186.739 106.981C188.14 106.587 189.451 106.551 190.672 106.873C191.893 107.194 192.946 107.837 193.832 108.801C194.729 109.746 195.385 110.958 195.801 112.436L183.186 115.982L182.712 114.296L194.426 111.003L193.392 112.116C193.073 111.159 192.606 110.384 191.991 109.792C191.376 109.201 190.66 108.812 189.844 108.626C189.027 108.44 188.149 108.479 187.209 108.743C186.193 109.029 185.365 109.486 184.727 110.114C184.085 110.727 183.652 111.463 183.429 112.324C183.221 113.18 183.258 114.109 183.539 115.11C183.833 116.157 184.328 116.999 185.022 117.635C185.716 118.271 186.552 118.676 187.532 118.849C188.511 119.023 189.586 118.945 190.757 118.616C191.82 118.317 192.81 117.848 193.727 117.208C194.659 116.563 195.447 115.818 196.09 114.973L196.558 116.636C195.939 117.508 195.129 118.293 194.128 118.989C193.123 119.671 192.066 120.167 190.957 120.479Z" fill="black"/>
</svg>