
<svg width="367" height="376" viewBox="0 0 367 376" fill="none" xmlns="http://www.w3.org/2000/svg">
<rect x="18.9378" y="151.59" width="120" height="62" rx="31" transform="rotate(11.488 18.9378 151.59)" stroke="black"/>
<path d="M28.4533 190.006L31.8047 190.687C31.716 191.967 31.9877 193.161 32.6197 194.269C33.2516 195.378 34.1853 196.326 35.4208 197.116C36.6845 197.887 38.1984 198.452 39.9623 198.811C42.62 199.351 44.8157 199.332 46.5496 198.754C48.3119 198.157 49.3507 197.082 49.6662 195.53C49.9099 194.33 49.6024 193.313 48.7437 192.477C47.9085 191.646 46.3083 190.843 43.9432 190.069L38.9568 188.394C35.8112 187.363 33.6499 186.128 32.4729 184.688C31.3008 183.226 30.9154 181.506 31.317 179.531C31.6372 177.955 32.3848 176.686 33.5598 175.725C34.7396 174.74 36.2383 174.114 38.0559 173.847C39.9019 173.561 41.9656 173.65 44.2469 174.113C46.5283 174.577 48.4792 175.341 50.0998 176.405C51.7486 177.45 52.9638 178.701 53.7453 180.158C54.5551 181.596 54.8374 183.16 54.5921 184.849L51.2406 184.168C51.3289 183.01 51.078 181.955 50.4879 181.002C49.9026 180.026 49.0203 179.186 47.8411 178.481C46.6902 177.757 45.2798 177.225 43.6099 176.886C41.1875 176.394 39.1587 176.434 37.5237 177.008C35.9169 177.563 34.9582 178.605 34.6475 180.134C34.4085 181.31 34.6949 182.311 35.5066 183.137C36.3466 183.945 37.8786 184.722 40.1026 185.467L44.976 187.156C47.247 187.911 49.0096 188.698 50.2638 189.516C51.5415 190.339 52.3929 191.271 52.818 192.313C53.2478 193.331 53.3217 194.534 53.0397 195.921C52.7004 197.591 51.9007 198.935 50.6409 199.952C49.4045 200.975 47.8139 201.631 45.8691 201.922C43.9243 202.212 41.7524 202.113 39.3534 201.626C36.9309 201.134 34.8554 200.32 33.1268 199.185C31.403 198.026 30.1247 196.665 29.2917 195.099C28.4635 193.511 28.1841 191.813 28.4533 190.006ZM79.5754 194.077L79.0018 196.9L60.9743 193.236L61.5479 190.414L79.5754 194.077ZM63.3426 192.248L58.8079 204.257L57.467 201.817L78.1403 206.019L77.5524 208.912L55.2562 204.38L60.1322 191.595L60.6336 177.921L82.7534 182.417L82.1655 185.31L61.6685 181.144L63.8555 179.421L63.3426 192.248ZM95.463 213.029C92.5231 212.432 90.0413 211.327 88.0177 209.716C86.0176 208.11 84.6022 206.157 83.7715 203.857C82.9456 201.534 82.8075 199.02 83.3572 196.315C83.9117 193.587 85.0201 191.327 86.6825 189.534C88.3448 187.741 90.4103 186.495 92.8788 185.797C95.3709 185.103 98.0869 185.055 101.027 185.653C103.967 186.25 106.437 187.352 108.437 188.959C110.437 190.565 111.852 192.519 112.683 194.818C113.514 197.118 113.652 199.631 113.097 202.36C112.548 205.064 111.439 207.325 109.772 209.141C108.11 210.934 106.044 212.18 103.576 212.878C101.107 213.576 98.4029 213.627 95.463 213.029ZM96.0724 210.031C98.4008 210.504 100.512 210.48 102.406 209.958C104.304 209.414 105.886 208.437 107.152 207.029C108.418 205.621 109.271 203.835 109.71 201.671C110.155 199.484 110.069 197.495 109.454 195.705C108.838 193.914 107.76 192.409 106.22 191.19C104.68 189.971 102.746 189.125 100.417 188.652C98.0889 188.178 95.9779 188.202 94.0841 188.724C92.1903 189.245 90.5988 190.207 89.3095 191.611C88.0437 193.019 87.1885 194.816 86.744 197.004C86.3042 199.168 86.3922 201.145 87.008 202.935C87.6472 204.73 88.7345 206.249 90.2697 207.492C91.8098 208.711 93.744 209.557 96.0724 210.031Z" fill="black"/>
</svg>
